<?xml version="1.0" standalone="no"?>
<!DOCTYPE svg PUBLIC "-//W3C//DTD SVG 20010904//EN"
 "http://www.w3.org/TR/2001/REC-SVG-20010904/DTD/svg10.dtd">
<svg version="1.0" xmlns="http://www.w3.org/2000/svg"
 width="2048.000000pt" height="1367.000000pt" viewBox="0 0 2048.000000 1367.000000"
 preserveAspectRatio="xMidYMid meet">
<metadata>
Created by potrace 1.13, written by Peter Selinger 2001-2015
</metadata>
<g transform="translate(0.000000,1367.000000) scale(0.100000,-0.100000)"
fill="#000000" stroke="none">
<path d="M0 10375 c0 -3133 1 -3294 17 -3289 17 5 17 5 1 -6 -21 -13 -24 -65
-5 -74 10 -5 10 -7 0 -12 -7 -3 -13 -11 -13 -18 0 -17 40 -18 47 0 8 20 36 17
51 -6 7 -12 18 -17 28 -13 12 4 15 2 12 -8 -8 -23 -38 -22 -58 1 -18 20 -21
21 -35 6 -9 -9 -23 -16 -31 -16 -12 0 -14 -469 -14 -3470 l0 -3470 10240 0
10240 0 0 2644 c0 2106 -3 2645 -12 2649 -10 4 -10 6 0 6 30 2 8 16 -28 18
-24 2 -40 -2 -40 -8 0 -7 -11 -9 -25 -7 -18 4 -26 0 -30 -14 -4 -10 -10 -16
-15 -13 -4 3 -28 6 -51 7 -24 1 -38 3 -31 6 6 2 12 8 12 13 0 14 -66 4 -87
-12 -13 -11 -15 -11 -9 -1 7 11 4 11 -12 1 -16 -10 -18 -17 -10 -26 5 -7 14
-10 19 -7 5 3 9 0 9 -5 0 -14 -13 -14 -28 1 -9 9 -12 9 -12 1 0 -7 -10 -10
-21 -8 -32 6 -36 15 -11 22 30 7 16 25 -16 20 -15 -2 -21 -2 -14 0 6 3 12 8
12 12 0 4 15 5 33 3 17 -3 29 -1 25 3 -4 4 -20 8 -35 10 -15 1 -46 5 -68 9
-87 15 -95 15 -95 6 0 -6 11 -10 25 -10 14 0 25 -4 25 -9 0 -5 9 -7 20 -4 11
3 20 0 20 -6 0 -5 -6 -8 -13 -5 -8 3 -19 -2 -26 -9 -14 -18 -1 -25 41 -23 15
1 25 0 23 -3 -3 -2 0 -10 6 -18 9 -10 8 -13 -4 -13 -9 0 -19 5 -23 11 -3 6
-17 8 -30 5 -14 -4 -24 -2 -24 4 0 6 -4 9 -9 5 -5 -3 -12 -1 -16 5 -4 6 -11 8
-16 5 -5 -3 -6 1 -3 9 7 19 24 21 24 4 0 -9 4 -8 10 2 16 25 12 30 -32 30 -33
0 -39 -3 -30 -12 17 -17 15 -24 -7 -24 -11 0 -18 3 -15 7 5 9 -80 19 -121 15
-16 -2 -29 -8 -28 -13 2 -10 -73 -11 -83 0 -4 4 1 9 10 13 19 7 11 24 -12 24
-15 0 -15 -2 -2 -10 12 -8 10 -10 -10 -9 -14 0 -51 -1 -83 -2 -31 -1 -60 1
-64 5 -12 12 -45 7 -37 -6 6 -10 5 -10 -7 -1 -15 12 -175 10 -187 -2 -3 -3 4
-5 16 -5 11 0 23 -4 27 -10 3 -5 -18 -9 -55 -8 -33 1 -60 6 -60 10 0 5 5 6 10
3 6 -3 10 -2 10 3 0 17 -12 21 -36 12 -14 -6 -34 -6 -47 -1 -12 5 -55 6 -95 2
-40 -4 -76 -3 -78 1 -3 4 -10 8 -15 8 -6 0 -7 -5 -3 -12 4 -7 3 -8 -5 -4 -16
10 -61 15 -61 7 0 -8 -45 -6 -105 4 -22 3 -59 7 -81 9 -36 2 -40 0 -28 -11 13
-13 37 -17 134 -22 25 -1 31 -4 21 -10 -8 -5 -29 -7 -45 -5 -17 3 -47 6 -66 6
-19 1 -38 6 -42 12 -5 8 -13 7 -28 -2 -12 -7 -20 -8 -20 -2 0 5 5 10 10 10 6
0 10 5 10 11 0 6 -13 8 -30 5 -16 -2 -30 -1 -30 4 0 4 -38 5 -84 3 -47 -3 -93
-2 -103 2 -10 5 -29 10 -43 11 -14 2 -26 7 -28 12 -3 9 -102 4 -112 -5 -2 -2
2 -8 10 -13 13 -8 12 -10 -2 -10 -9 0 -18 6 -21 13 -3 9 -9 9 -25 0 -18 -11
-23 -10 -30 4 -8 13 -19 15 -68 8 -75 -10 -149 -12 -195 -4 -22 3 -43 1 -53
-6 -15 -11 -14 -13 6 -20 13 -4 27 -6 32 -6 17 3 66 -11 62 -17 -2 -4 -25 -6
-50 -4 -35 3 -53 12 -81 38 -28 26 -45 34 -73 34 -28 0 -33 -3 -22 -10 8 -5
25 -10 37 -10 12 0 24 -4 27 -9 3 -4 -7 -7 -22 -5 -24 3 -23 2 5 -8 18 -6 33
-17 33 -24 0 -18 -12 -23 -35 -13 -18 7 -18 8 5 9 23 1 22 2 -9 16 -19 8 -40
13 -47 10 -6 -2 -15 -1 -20 4 -5 5 -27 10 -49 12 -22 2 -47 9 -55 17 -10 10
-15 10 -18 2 -2 -6 -7 -9 -12 -6 -8 5 -32 10 -94 19 -11 1 -21 7 -23 13 -2 6
8 9 24 6 15 -3 36 -5 46 -6 9 -1 17 -6 17 -12 0 -5 4 -3 10 5 6 9 5 17 -3 22
-9 6 -8 10 3 18 13 9 13 10 0 11 -8 1 -18 1 -22 0 -5 0 -8 5 -8 13 0 8 -3 21
-6 30 -3 9 -1 16 5 16 6 0 11 -10 11 -21 0 -18 4 -20 23 -14 12 4 33 8 47 9
14 2 31 4 38 4 6 1 12 8 12 16 0 19 -81 9 -97 -13 -11 -14 -12 -12 -13 12 0
21 5 27 23 28 16 1 18 2 5 6 -10 2 -18 9 -18 14 0 6 9 8 20 4 15 -5 18 -3 14
8 -4 12 2 13 35 7 22 -4 46 -3 53 1 8 6 -3 9 -31 9 -35 0 -49 6 -69 28 -13 15
-21 21 -17 13 6 -11 4 -13 -9 -8 -10 4 -19 7 -22 7 -2 0 4 9 13 19 15 18 19
18 37 5 11 -8 27 -14 36 -14 8 1 2 7 -15 15 -21 9 -24 14 -12 14 10 1 28 -4
39 -10 13 -7 18 -7 14 -1 -12 19 62 25 255 18 120 -3 189 -2 189 4 0 6 29 7
75 3 56 -4 75 -3 75 6 0 10 -48 13 -202 12 -319 -2 -488 3 -487 14 0 5 -8 13
-18 17 -16 6 -16 8 5 14 15 4 21 12 18 21 -3 8 -2 12 2 9 5 -3 22 -1 38 4 16
4 22 9 14 9 -13 1 -13 2 0 11 18 12 53 13 46 2 -3 -5 1 -9 9 -9 8 0 12 3 10 7
-5 8 191 4 204 -4 20 -13 18 8 -2 25 -12 10 -17 18 -11 19 5 0 19 -8 30 -19
20 -18 21 -18 40 5 10 13 26 23 34 23 10 0 11 -2 3 -6 -10 -3 -10 -10 -1 -26
10 -20 10 -21 -5 -8 -11 8 -17 9 -17 3 0 -17 35 -33 47 -21 7 7 19 6 37 -2 21
-10 29 -10 35 -1 5 8 16 9 38 3 44 -13 148 1 172 23 15 14 28 16 48 11 15 -4
22 -10 16 -12 -23 -8 -14 -25 10 -19 12 3 17 3 10 0 -7 -3 -10 -11 -7 -17 5
-13 114 -14 135 -1 6 4 39 6 73 4 33 -1 112 -2 174 -2 69 0 110 -3 106 -9 -3
-6 -14 -7 -24 -4 -11 3 -20 0 -24 -10 -6 -18 -5 -18 29 -5 18 7 33 7 48 -1 20
-9 21 -9 4 4 -13 11 -14 16 -5 19 23 8 115 0 136 -11 21 -11 52 -6 52 10 0 15
134 -3 147 -20 8 -10 12 -11 13 -4 0 7 7 10 15 7 21 -8 19 -24 -2 -24 -10 0
-24 -4 -31 -9 -8 -5 8 -6 37 -3 29 2 51 0 51 -5 0 -5 -6 -10 -12 -10 -7 0 -32
-3 -54 -7 -33 -5 -43 -3 -48 10 -3 9 -4 19 -1 23 2 4 -2 8 -10 8 -10 0 -11 -6
-4 -25 6 -14 8 -31 5 -37 -3 -8 29 -12 108 -13 61 -1 135 -4 164 -8 40 -4 52
-3 52 8 0 10 2 10 9 -1 8 -13 67 -28 131 -34 24 -2 27 -22 3 -22 -16 0 -26
-11 -10 -13 35 -4 89 -20 72 -21 -18 -1 -18 -3 -3 -11 14 -8 38 -8 68 0 3 1
-6 6 -20 12 -20 9 -22 12 -8 15 24 6 65 -17 49 -27 -10 -5 -9 -9 2 -13 10 -4
18 2 22 16 6 19 8 20 12 5 5 -19 67 -26 78 -9 3 5 17 8 30 5 14 -2 43 -6 65
-7 39 -2 52 -11 28 -20 -7 -2 -3 -2 9 0 13 2 30 -5 43 -19 11 -12 20 -17 20
-10 0 6 -4 14 -10 17 -19 12 -10 35 13 35 24 0 72 -29 49 -30 -7 0 -10 -5 -7
-10 4 -7 13 -7 26 0 13 7 19 7 19 0 0 -6 15 -8 35 -5 19 2 35 0 35 -5 0 -11
122 -2 135 11 14 14 25 11 25 -6 0 -9 -9 -15 -22 -15 -16 0 -19 -3 -10 -8 10
-7 8 -12 -5 -24 -14 -12 -29 -14 -65 -9 -27 5 -48 4 -48 -1 0 -5 -5 -6 -12 -2
-6 4 -8 3 -5 -3 3 -5 21 -8 39 -6 24 2 28 1 14 -5 -32 -14 0 -20 94 -16 71 2
80 1 58 -9 -16 -6 -28 -18 -27 -26 0 -11 2 -12 6 -3 4 10 8 10 20 0 13 -10 18
-9 32 8 9 11 24 18 34 16 22 -4 24 40 2 58 -12 10 -15 10 -15 -2 0 -8 5 -19
12 -26 9 -9 8 -12 -5 -12 -9 0 -16 6 -14 13 1 6 -4 11 -10 10 -7 -2 -13 2 -13
7 0 6 5 10 11 10 5 0 7 4 4 10 -3 5 -11 10 -16 10 -6 0 -7 -5 -4 -10 3 -6 2
-10 -4 -10 -6 0 -8 -6 -5 -14 5 -12 0 -13 -29 -4 -24 7 -34 15 -30 25 3 8 13
11 23 8 11 -3 20 1 24 10 5 13 10 14 27 4 16 -8 23 -8 29 1 4 6 11 11 16 11 5
-1 10 56 12 125 2 111 1 128 -15 140 -17 13 -17 13 0 14 17 0 18 11 16 149 -2
83 -6 148 -11 145 -4 -3 -8 -13 -8 -22 0 -14 -2 -15 -10 -2 -6 10 -4 20 7 32
10 11 12 18 5 18 -7 0 -12 -4 -12 -9 0 -4 -21 -8 -47 -7 -30 1 -47 -3 -49 -12
-1 -7 0 -8 3 -2 7 16 40 12 40 -5 0 -8 -8 -15 -17 -15 -9 0 -27 -9 -40 -20
-25 -21 -35 -26 -25 -11 3 5 -3 12 -12 14 -14 4 -13 5 5 6 12 0 22 4 22 9 0
12 -56 8 -73 -6 -12 -10 -21 -11 -37 -2 -13 7 -38 8 -68 4 -40 -6 -43 -9 -22
-14 l25 -6 -23 -8 c-17 -6 -27 -3 -36 10 -17 23 -56 29 -56 9 0 -8 -9 -15 -21
-15 -11 0 -18 -4 -15 -8 2 -4 -4 -8 -14 -9 -13 -1 -16 3 -12 20 5 18 4 19 -10
7 -9 -8 -14 -19 -12 -25 2 -6 -5 -16 -17 -24 -19 -11 -21 -11 -16 4 4 10 3 14
-4 10 -18 -12 -63 -13 -82 -3 -10 5 -26 6 -35 2 -9 -4 -21 -6 -27 -4 -20 5
-93 3 -103 -4 -6 -4 -21 -1 -32 6 -17 11 -22 11 -30 -2 -5 -8 -10 -10 -10 -4
0 6 -16 11 -35 12 -19 1 -35 -2 -35 -6 0 -12 -48 -13 -55 -2 -3 6 2 10 12 10
13 0 15 2 5 9 -7 4 -25 6 -39 3 -18 -3 -21 -7 -11 -13 9 -6 6 -9 -12 -10 -14
-1 -29 0 -35 1 -5 1 -29 2 -52 1 -23 -1 -44 3 -48 8 -3 6 -15 7 -28 4 -36 -9
-110 -10 -134 -2 -14 5 -23 4 -27 -4 -3 -9 -7 -8 -15 3 -9 13 -11 13 -11 -2 0
-18 29 -23 104 -18 18 1 26 -2 22 -9 -4 -6 -3 -11 3 -11 5 0 11 5 13 10 4 13
68 1 65 -12 -1 -6 4 -13 12 -16 9 -3 12 0 9 10 -5 11 4 15 38 17 24 1 44 -2
44 -7 0 -5 23 -7 50 -6 28 1 52 -1 55 -5 5 -9 43 -11 245 -16 129 -3 181 -10
179 -24 -1 -15 -18 -45 -18 -33 -1 6 -7 12 -15 12 -8 0 -16 7 -20 15 -3 8 -11
15 -17 15 -8 0 -7 -5 2 -16 12 -14 7 -16 -51 -14 -114 4 -147 1 -130 -11 12
-9 12 -10 -3 -5 -10 3 -21 6 -23 6 -14 0 0 19 22 29 15 6 24 14 21 17 -6 6
-70 -26 -75 -38 -2 -4 -9 -5 -17 -2 -7 3 -16 0 -20 -6 -4 -6 -1 -11 6 -9 29 3
46 -2 65 -20 26 -24 75 -41 57 -20 -9 12 -3 13 39 10 37 -2 48 -6 44 -17 -3
-8 -1 -14 4 -14 6 0 10 5 10 10 0 15 107 13 113 -2 2 -8 -4 -14 -17 -15 -149
-10 -365 0 -377 18 -6 9 -12 10 -16 4 -9 -12 -63 -14 -63 -3 0 13 66 22 134
19 48 -2 67 0 62 8 -4 6 -23 11 -42 11 -19 0 -34 5 -34 11 0 6 -8 8 -19 4 -13
-4 -23 0 -31 12 -8 13 -13 14 -16 5 -3 -6 -10 -10 -15 -6 -5 3 -9 0 -9 -5 0
-6 -4 -11 -10 -11 -5 0 -7 8 -4 17 5 17 5 17 -6 1 -12 -19 -40 -25 -40 -8 0 6
-9 10 -21 10 -14 0 -19 -5 -16 -14 6 -15 4 -15 -61 -2 -62 13 -81 30 -45 39
17 4 17 5 1 6 -10 0 -22 -8 -28 -19 -6 -11 -18 -20 -26 -20 -10 0 -7 -7 10
-24 15 -13 26 -25 26 -28 0 -3 -21 -2 -46 2 -25 4 -56 5 -70 2 -13 -2 -24 0
-24 7 0 5 7 8 15 5 18 -7 20 3 3 20 -18 17 -57 15 -63 -4 -6 -20 -35 -22 -35
-4 0 8 -10 12 -27 10 -16 -1 -36 1 -45 6 -12 6 -23 3 -37 -11 -18 -18 -20 -18
-24 -3 -4 15 -5 15 -6 0 -1 -11 -9 -18 -21 -18 -25 0 -26 17 -2 23 11 3 8 5
-9 6 -53 2 -91 13 -77 22 9 6 9 9 1 9 -7 0 -17 -9 -23 -20 -8 -15 -19 -19 -44
-17 -22 1 -32 6 -29 15 3 6 -2 12 -10 12 -9 0 -18 -9 -22 -20 -5 -16 -10 -17
-31 -10 -19 7 -24 6 -24 -5 0 -8 -4 -15 -10 -15 -5 0 -10 4 -10 9 0 4 -12 6
-26 3 -20 -4 -25 -2 -19 8 4 7 2 16 -6 21 -8 5 -16 3 -20 -3 -6 -9 -12 -8 -23
1 -29 24 -126 9 -126 -19 0 -16 -17 -11 -24 6 -3 8 -2 13 3 10 5 -3 11 0 14 7
4 10 -13 13 -67 12 -66 0 -85 6 -86 29 0 5 8 2 17 -5 14 -12 16 -12 11 1 -4
11 1 16 15 18 16 1 18 -1 8 -7 -8 -5 -9 -11 -3 -15 6 -3 12 0 15 6 3 10 9 10
29 0 28 -15 90 -13 95 4 2 6 -15 17 -39 24 -32 11 -42 12 -46 2 -5 -15 -32
-16 -32 -1 0 5 -5 7 -10 4 -6 -4 -17 -1 -25 5 -9 7 -15 8 -15 2 0 -16 -48 -20
-76 -6 -30 16 -47 19 -24 4 24 -15 7 -20 -35 -10 -46 11 -92 3 -76 -13 5 -5
34 -10 63 -10 64 0 91 -7 62 -17 -10 -4 -27 -3 -37 2 -10 5 -31 7 -48 4 -32
-5 -58 13 -74 50 -6 15 -9 16 -12 4 -3 -11 -16 -14 -50 -13 -28 1 -51 -3 -56
-10 -4 -7 -5 1 -1 17 4 16 3 27 -2 24 -5 -3 -14 0 -21 7 -10 11 -10 15 0 18 8
4 7 6 -3 7 -43 4 -82 20 -51 20 7 0 9 5 5 12 -5 8 -2 9 10 5 10 -4 15 -3 11 3
-9 14 19 12 33 -2 9 -9 12 -9 12 1 0 9 12 12 39 9 22 -2 37 0 35 4 -3 5 -2 8
3 9 4 0 17 3 28 5 11 3 29 5 40 5 10 0 25 5 32 11 20 16 123 21 123 6 0 -9 2
-10 8 -2 4 7 49 15 101 19 78 6 92 5 85 -6 -6 -11 -4 -11 10 0 9 8 16 10 15 5
-4 -25 4 -29 56 -26 41 3 53 7 46 15 -7 9 17 12 91 13 66 0 102 5 107 13 6 9
11 8 21 -4 13 -16 76 -20 98 -6 21 13 -35 53 -62 45 -36 -12 -87 -10 -98 3
-16 20 -4 26 44 23 61 -2 91 -1 96 5 3 3 -18 5 -46 5 -29 0 -52 5 -52 10 0 6
25 10 55 10 46 0 55 -3 55 -17 0 -14 9 -18 44 -19 42 0 44 1 35 23 -10 27 -2
30 17 6 12 -16 15 -16 25 -3 9 13 10 13 6 -2 -3 -9 -1 -19 6 -21 15 -6 47 11
47 24 0 6 -5 7 -10 4 -5 -3 -10 -1 -10 5 0 9 26 7 67 -5 7 -2 18 2 26 9 7 7
34 16 61 20 39 6 47 5 40 -6 -6 -11 -5 -11 8 0 10 8 51 13 111 15 52 1 93 6
90 10 -2 4 18 5 46 2 55 -6 83 1 60 16 -10 6 -2 9 21 9 19 0 46 3 60 5 25 5
25 5 3 -6 -32 -17 -29 -26 12 -33 48 -9 80 1 64 20 -9 12 -6 14 21 14 24 0 31
4 26 15 -7 19 1 19 35 1 16 -8 46 -12 75 -10 113 9 146 24 82 39 -31 7 -28 8
37 21 167 31 319 44 543 44 l52 0 0 394 c-1 365 -2 395 -18 398 -9 3 -27 0
-39 -5 -16 -7 -27 -6 -40 4 -11 9 -14 10 -9 2 4 -8 1 -13 -9 -13 -9 0 -14 4
-10 9 3 5 1 12 -4 15 -5 4 -12 2 -16 -4 -9 -15 -91 -12 -107 3 -20 21 -55 37
-62 30 -12 -13 -5 -21 14 -16 11 3 20 0 20 -6 0 -7 -24 -11 -65 -11 -44 0 -65
4 -65 12 0 9 -3 9 -12 0 -17 -17 -46 -15 -82 7 -38 22 -91 37 -81 21 4 -6 -4
-10 -19 -10 -14 0 -26 -5 -26 -12 0 -6 -3 -8 -7 -5 -3 4 -14 0 -24 -9 -14 -12
-22 -13 -38 -4 -12 6 -26 8 -31 5 -5 -3 -25 4 -45 15 -20 11 -40 18 -45 15 -5
-3 -17 -2 -27 3 -46 24 -72 32 -122 37 -30 3 -62 12 -71 20 -22 20 -54 20 -46
0 3 -9 0 -15 -8 -15 -8 0 -16 6 -19 14 -4 9 -25 14 -69 14 -35 0 -88 2 -118 5
-30 2 -49 2 -42 0 28 -11 8 -21 -38 -20 -28 1 -54 -3 -58 -9 -8 -12 -25 -13
-147 -13 -49 0 -91 4 -93 9 -5 12 -32 13 -32 1 0 -14 -32 -23 -44 -11 -13 13
-59 13 -73 -1 -8 -8 -13 -7 -18 2 -5 8 -4 10 3 5 7 -4 12 -3 12 2 0 5 -11 14
-24 20 -19 9 -27 8 -36 -4 -7 -8 -18 -14 -24 -14 -7 0 -7 3 -1 8 21 15 13 33
-28 63 -34 25 -37 30 -17 26 35 -8 59 7 34 21 -15 8 -16 13 -7 23 20 20 44 -6
33 -36 -8 -21 -5 -25 25 -36 25 -9 31 -16 22 -22 -7 -5 13 -6 48 -1 33 4 87 8
120 9 33 1 89 5 124 9 l65 8 -59 25 c-33 14 -71 27 -85 30 -14 2 -29 8 -33 12
-14 14 11 23 33 11 14 -7 20 -8 20 0 0 6 -14 13 -30 17 -17 3 -33 10 -36 14
-11 19 -26 8 -22 -16 5 -21 1 -25 -19 -25 -18 0 -23 4 -20 14 7 17 -13 26 -53
26 -16 0 -33 7 -38 16 -12 22 -71 32 -200 33 -62 0 -117 3 -122 6 -13 8 -50
-13 -50 -28 0 -20 -83 -15 -104 6 -10 9 -21 15 -26 12 -4 -3 -27 -6 -49 -7
-34 -1 -41 -5 -41 -22 0 -16 -2 -18 -9 -7 -5 8 -18 12 -30 8 -13 -3 -25 1 -32
11 -8 13 -9 13 -6 2 3 -11 -4 -16 -24 -17 -16 -1 -29 3 -29 9 0 7 -4 7 -12 0
-7 -6 -37 -8 -65 -6 -43 4 -57 1 -75 -16 -24 -22 -38 -26 -38 -10 0 13 -43 13
-55 1 -6 -5 -28 -11 -50 -13 -32 -3 -41 -8 -43 -26 -2 -12 -6 -22 -10 -23 -32
-4 -50 -7 -64 -14 -11 -4 -18 -3 -18 4 0 6 5 11 10 11 6 0 10 6 10 14 0 9 -10
13 -30 11 -28 -2 -56 -15 -33 -15 6 0 14 -7 17 -16 3 -8 2 -13 -3 -10 -11 7
-33 -18 -24 -27 3 -4 16 -7 27 -8 19 0 19 -1 -3 -10 -15 -6 -28 -6 -35 0 -7 6
-17 6 -26 1 -13 -8 -13 -10 -1 -10 8 0 12 -2 10 -5 -3 -2 -21 0 -41 5 -30 9
-35 14 -31 31 4 13 8 17 13 9 4 -7 17 -9 34 -4 25 6 25 7 9 19 -17 13 -16 14
7 23 22 9 20 10 -17 10 -30 0 -43 -5 -43 -14 0 -19 -18 -18 -37 1 -20 21 -48
15 -48 -10 0 -11 -7 -27 -15 -35 -13 -13 -16 -10 -28 35 -33 125 -144 753
-141 794 1 14 -1 34 -5 44 -3 9 -9 25 -12 35 -5 13 -9 10 -17 -15 -8 -26 -18
-35 -46 -43 -43 -12 -94 -13 -87 -2 2 4 1 14 -4 21 -9 16 -30 6 -30 -15 0 -12
-11 -18 -31 -16 -4 1 -22 3 -41 5 -45 5 -58 14 -58 37 0 36 -17 29 -30 -13 -7
-23 -19 -64 -28 -92 -19 -65 -110 -299 -173 -445 l-49 -115 -87 0 c-63 0 -97
5 -118 17 -84 46 -143 57 -225 41 -25 -5 -72 -7 -105 -6 -33 2 -87 4 -120 6
-33 1 -70 8 -83 15 -19 11 -33 9 -100 -13 -42 -14 -84 -29 -92 -32 -21 -9 -21
-9 -62 -17 -21 -5 -38 -12 -38 -18 0 -10 -103 -4 -122 9 -15 9 -228 13 -243 4
-9 -5 -86 -11 -166 -12 -15 0 -33 -10 -43 -25 -20 -26 -42 -31 -48 -12 -2 6
-12 12 -21 14 -12 1 -17 -5 -17 -21 0 -21 -2 -22 -24 -12 -14 7 -27 21 -30 31
-4 14 -8 17 -18 9 -7 -6 -24 -9 -38 -7 -78 11 -259 9 -298 -4 -31 -10 -46 -11
-55 -3 -9 7 -17 7 -24 0 -11 -11 -45 -1 -37 12 7 12 -29 -2 -38 -15 -6 -7 -11
-6 -18 4 -6 10 -10 11 -10 3 0 -7 -6 -13 -14 -13 -7 0 -45 -13 -83 -29 -65
-27 -117 -38 -204 -45 -19 -2 -47 -11 -61 -20 -17 -11 -42 -17 -66 -15 -23 2
-47 -3 -57 -11 -14 -12 -18 -12 -25 0 -7 12 -12 11 -28 -3 -10 -9 -29 -17 -41
-17 -27 0 -61 -17 -61 -30 0 -6 19 -11 43 -11 23 -1 56 -5 72 -10 19 -5 2 -6
-45 -2 -84 6 -90 8 -90 29 0 8 -4 14 -10 14 -5 0 -7 -8 -3 -17 5 -15 3 -16 -8
-5 -19 17 -29 15 -29 -8 0 -22 -15 -27 -26 -9 -3 6 -17 9 -30 6 -13 -2 -22 -1
-20 2 2 3 -2 11 -9 18 -10 10 -14 9 -19 -3 -4 -9 -2 -12 5 -8 7 4 9 -3 7 -17
-2 -20 -11 -25 -48 -30 -51 -8 -67 1 -52 28 9 14 6 20 -11 30 -19 10 -15 11
26 7 27 -3 47 -1 47 4 0 6 -30 9 -75 6 -79 -4 -99 -9 -90 -25 3 -5 -2 -6 -11
-2 -11 4 -15 3 -10 -5 3 -6 2 -13 -3 -16 -4 -3 -33 16 -62 42 -30 26 -67 59
-82 72 -16 14 -65 60 -109 103 -45 42 -83 77 -87 77 -12 0 -151 145 -151 157
0 7 -6 13 -13 13 -7 0 -20 8 -29 18 -9 9 -48 46 -87 81 -39 36 -71 71 -71 78
0 8 -8 17 -17 20 -25 9 -161 142 -185 181 -11 17 -23 32 -28 32 -13 0 -194
189 -202 211 -4 11 -15 22 -25 26 -18 7 -160 152 -197 202 -12 15 -44 49 -71
76 -75 74 -205 218 -205 228 0 10 -26 37 -35 37 -14 0 -225 239 -236 268 -5
13 -17 26 -27 29 -16 5 -263 281 -270 303 -2 5 -31 38 -65 72 -73 74 -257 292
-257 304 0 5 -18 24 -40 44 -57 50 -300 342 -300 360 0 9 -11 22 -24 30 -28
17 -346 396 -346 412 0 6 -21 32 -48 57 -63 62 -352 419 -352 436 0 7 -18 28
-39 47 -40 34 -221 254 -221 268 0 5 -12 22 -26 39 -14 17 -23 35 -19 41 4 6
1 9 -6 8 -7 -2 -27 20 -45 47 -17 28 -48 69 -69 92 -30 35 -37 50 -38 90 -2
45 -21 78 -39 67 -5 -3 -8 9 -8 25 0 20 -5 31 -14 31 -8 0 -13 -10 -12 -27 1
-21 -5 -29 -24 -34 -14 -4 -19 -7 -13 -8 16 -1 6 -62 -13 -77 -8 -6 -11 -13
-8 -17 3 -3 -5 -8 -18 -12 -13 -4 -38 -21 -56 -36 -18 -16 -38 -29 -43 -29 -6
0 -28 -13 -49 -30 -40 -32 -235 -150 -248 -150 -4 0 -24 -9 -44 -20 -20 -10
-90 -28 -156 -40 -134 -22 -166 -25 -157 -10 3 6 1 10 -4 10 -6 0 -11 -7 -11
-15 0 -9 -10 -15 -27 -16 -16 -1 -38 -3 -51 -4 -25 -3 -56 21 -47 36 11 16 -7
9 -22 -8 -12 -17 -14 -16 -31 6 -9 14 -34 42 -55 63 -21 21 -36 42 -32 47 3 5
0 11 -7 13 -8 3 -13 27 -13 71 0 51 -3 66 -12 63 -7 -3 -13 -2 -13 3 0 4 -13
8 -30 8 -33 0 -38 -8 -14 -28 14 -11 14 -13 0 -21 -9 -5 -21 -6 -28 -2 -8 5
-9 2 -5 -10 4 -10 4 -35 1 -56 -5 -33 -11 -40 -35 -45 -16 -4 -42 -17 -57 -29
-15 -12 -47 -33 -72 -45 -25 -13 -47 -27 -50 -31 -8 -13 -238 -140 -253 -140
-7 0 -23 -7 -35 -16 -12 -8 -26 -13 -31 -9 -5 3 -11 -2 -13 -11 -5 -24 -490
-286 -541 -292 -4 -1 -16 -10 -25 -21 -20 -23 -485 -269 -557 -296 -27 -9 -57
-25 -65 -35 -17 -19 -527 -285 -605 -315 -27 -11 -55 -18 -62 -17 -6 1 -13 -5
-15 -14 -3 -17 -610 -333 -640 -334 -10 0 -32 -9 -50 -20 -23 -14 -35 -16 -45
-8 -10 8 -13 5 -13 -11 0 -19 -50 -47 -353 -197 -195 -96 -359 -174 -366 -174
-6 0 -29 -9 -51 -20 -30 -15 -41 -17 -47 -8 -5 9 -9 5 -13 -11 -5 -21 -63 -53
-380 -207 -354 -173 -468 -223 -515 -227 -11 -1 -25 -11 -32 -23 -8 -13 -157
-90 -430 -219 -230 -109 -431 -202 -448 -208 -16 -5 -52 -19 -79 -31 -37 -16
-50 -18 -54 -8 -5 16 -23 16 -21 0 4 -32 -5 -41 -63 -67 -35 -16 -259 -119
-498 -230 -239 -110 -445 -201 -458 -201 -18 0 -23 5 -21 23 1 12 -1 30 -5 39
-6 14 -11 15 -21 5 -11 -10 -11 -16 -1 -32 16 -26 15 -47 -3 -53 -8 -3 -11 0
-7 7 4 6 1 11 -6 11 -9 0 -9 3 2 10 13 9 12 13 -9 30 -24 21 -46 27 -36 10 3
-5 -1 -10 -9 -10 -9 0 -16 -5 -16 -10 0 -6 11 -8 25 -4 23 6 25 4 25 -29 0
-24 -5 -37 -17 -42 -10 -3 -19 -1 -21 4 -6 18 -20 12 -26 -12 -7 -29 -123 -88
-157 -80 -16 3 -20 2 -11 -4 9 -7 2 -14 -24 -27 -27 -12 -40 -14 -48 -6 -8 8
-6 9 6 5 12 -5 20 -1 24 9 3 9 10 14 14 11 4 -3 11 2 14 11 5 12 2 15 -11 10
-11 -4 -8 1 7 13 14 11 27 17 30 15 2 -3 -1 -8 -8 -13 -6 -4 4 -7 23 -7 34 0
39 6 38 44 -1 6 3 12 8 12 5 0 8 5 6 11 -1 6 5 14 13 16 10 3 11 2 3 -4 -8 -6
-9 -14 -3 -23 8 -13 10 -12 10 3 0 9 5 17 11 17 8 0 8 4 1 13 -5 6 -12 23 -15
37 -4 25 -4 25 -6 -2 0 -16 -4 -28 -8 -29 -5 0 -19 -2 -31 -3 -13 -2 -28 -9
-33 -17 -7 -11 -9 -11 -9 -1 0 9 -8 7 -27 -8 -20 -16 -28 -18 -35 -8 -12 20
-9 28 8 21 13 -5 15 -3 6 13 -11 21 2 59 18 49 4 -3 11 6 14 20 4 14 10 25 15
25 5 0 4 -13 -2 -30 -6 -16 -17 -30 -24 -30 -7 0 -13 -4 -13 -10 0 -5 5 -10
11 -10 5 0 7 -5 3 -12 -5 -7 -3 -8 7 -2 8 4 23 8 33 9 11 0 21 6 24 14 3 9 0
11 -8 6 -10 -6 -12 -4 -7 8 4 11 2 14 -9 10 -7 -3 -14 0 -14 6 0 6 5 11 11 11
5 0 7 5 4 10 -3 6 1 13 9 16 9 3 13 10 10 15 -3 5 2 9 11 9 10 0 13 -5 9 -12
-5 -8 -2 -9 10 -5 10 4 20 7 24 7 3 0 -2 6 -12 13 -14 10 -15 18 -7 38 5 15 6
31 0 40 -11 18 -11 32 0 24 5 -3 12 -2 15 3 2 4 -4 13 -15 20 -14 9 -19 9 -19
0 0 -6 -3 -9 -6 -5 -3 3 -3 10 0 15 8 13 56 -9 56 -25 0 -7 6 -13 14 -13 8 0
17 -6 19 -12 3 -8 6 -6 6 5 1 21 18 23 24 2 3 -11 4 -10 3 2 -1 13 -10 17 -29
16 -15 -1 -27 2 -27 8 0 5 5 9 11 9 6 0 16 6 23 13 15 15 27 57 16 57 -5 0
-10 -8 -12 -17 -3 -15 -5 -14 -10 4 -4 14 0 27 10 35 12 10 14 10 8 1 -4 -7
-3 -13 2 -13 18 0 21 29 4 33 -10 3 -5 5 11 6 31 1 33 -6 12 -56 -8 -20 -13
-38 -11 -40 2 -3 7 5 11 16 3 12 10 19 15 16 4 -3 8 1 7 8 0 6 1 25 1 41 l2
29 20 -23 c14 -16 20 -18 20 -9 0 8 -5 20 -12 27 -6 6 -8 15 -4 19 4 4 10 3
14 -2 4 -6 15 -16 25 -24 15 -12 17 -12 11 2 -3 8 -11 18 -18 20 -15 6 -11 76
5 92 6 5 9 5 9 -3 0 -7 5 -12 11 -12 8 0 8 5 -1 15 -7 8 -16 15 -20 15 -12 0
-33 -68 -25 -80 3 -5 -1 -10 -10 -10 -10 0 -13 5 -9 12 5 8 1 9 -12 5 -17 -6
-17 -6 -3 6 9 6 20 23 24 36 6 20 4 23 -9 18 -9 -4 -16 -3 -16 2 0 9 56 25 78
22 6 -1 12 3 12 9 0 6 5 8 11 5 6 -4 8 -13 6 -19 -3 -7 1 -13 9 -13 7 0 11 4
8 9 -6 9 24 43 46 51 11 4 10 6 -4 6 -10 1 -27 -9 -37 -20 l-18 -21 3 28 c6
41 17 65 27 58 5 -3 9 0 9 6 0 8 -9 10 -25 6 -14 -4 -25 -2 -25 4 0 5 5 10 11
10 5 0 7 5 4 10 -3 6 -2 10 4 10 5 0 12 -6 14 -12 3 -8 6 -6 6 5 1 9 7 17 15
17 8 0 24 12 35 27 18 22 25 24 44 16 12 -6 31 -7 42 -2 l20 8 -20 0 c-15 1
-17 3 -6 10 7 5 10 14 7 20 -11 17 9 13 35 -8 19 -15 25 -16 36 -5 7 7 13 16
13 20 0 5 -5 3 -11 -3 -12 -12 -39 -7 -39 8 0 5 7 9 15 9 8 0 15 9 15 19 0 24
16 36 23 19 3 -8 6 -5 6 6 1 15 -4 17 -21 11 -13 -3 -28 -7 -35 -7 -6 -1 -9
-8 -5 -16 3 -10 1 -13 -6 -8 -7 4 -12 2 -12 -3 0 -6 5 -11 11 -11 5 0 7 -5 4
-10 -5 -8 -11 -7 -21 1 -10 8 -12 15 -4 23 15 15 13 96 -2 96 -9 0 -8 3 2 9
19 13 30 4 30 -24 0 -12 7 -25 15 -29 8 -3 15 -1 15 3 0 5 -6 11 -12 14 -7 2
-9 8 -5 13 5 5 14 1 21 -9 7 -9 15 -17 18 -17 10 0 2 80 -9 84 -18 7 -27 -13
-13 -29 10 -12 9 -15 -3 -15 -37 0 -30 44 10 57 l24 8 -20 24 c-12 13 -21 29
-21 35 0 6 11 -1 24 -16 13 -16 25 -28 28 -28 2 0 4 16 5 35 1 25 -3 35 -14
35 -10 0 -13 6 -9 16 3 9 6 19 7 22 0 4 4 -2 9 -13 7 -17 9 -17 9 -2 1 18 27
24 33 8 5 -15 78 -25 78 -12 0 7 -5 9 -10 6 -6 -3 -10 -2 -10 4 0 5 -12 9 -27
8 -26 -2 -28 1 -27 35 1 21 -2 35 -6 33 -5 -3 -11 1 -13 7 -3 7 -6 3 -6 -10
-1 -13 3 -20 9 -17 15 9 12 -4 -4 -21 -8 -8 -22 -14 -32 -14 -9 0 -22 -7 -28
-15 -9 -12 -11 -9 -11 17 0 18 4 39 9 46 5 9 1 20 -13 33 -23 22 -26 35 -10
44 6 4 9 0 7 -8 -2 -9 2 -17 7 -18 32 -8 49 -72 22 -82 -6 -3 -2 -6 9 -6 19
-1 21 3 17 33 -3 25 0 35 13 40 10 4 22 2 28 -4 13 -13 29 -13 21 0 -3 6 -1
10 4 10 15 0 14 -27 0 -36 -8 -5 -6 -10 5 -16 10 -6 20 -7 23 -4 4 3 1 6 -6 6
-7 0 -9 5 -6 10 4 6 11 8 16 5 5 -4 9 -1 9 4 0 6 -6 11 -12 11 -8 0 -5 7 6 15
11 8 16 15 10 15 -5 0 -3 4 4 8 16 10 5 42 -14 42 -8 0 -14 5 -14 11 0 8 -4 8
-14 0 -10 -9 -16 -9 -21 -1 -4 6 -14 10 -23 9 -30 -3 -35 1 -23 15 9 10 7 17
-5 27 -10 8 -20 13 -23 12 -3 -2 -6 3 -6 10 0 6 -6 22 -13 34 -8 14 -9 24 -2
28 5 3 10 -2 11 -12 0 -10 3 -13 6 -5 2 6 13 12 23 12 24 0 34 16 16 23 -8 3
-16 18 -19 34 -3 23 -4 22 -6 -9 0 -21 -5 -38 -10 -38 -4 0 -6 12 -4 28 4 21
2 24 -6 12 -9 -13 -11 -13 -11 2 0 9 3 18 7 21 5 2 3 3 -3 1 -17 -3 -32 9 -43
36 -9 24 -10 24 -10 3 -1 -12 8 -28 18 -35 11 -8 23 -27 27 -42 6 -26 5 -28
-15 -21 -23 7 -28 -4 -10 -22 8 -8 8 -13 0 -17 -6 -4 -11 0 -11 8 0 9 -6 16
-14 16 -8 0 -18 4 -21 10 -3 6 1 7 9 4 9 -3 16 -1 16 5 0 6 -4 11 -9 11 -5 0
-11 9 -14 20 -6 25 1 25 26 3 19 -18 19 -17 6 5 -8 12 -20 22 -27 22 -9 0 -12
6 -8 15 3 8 1 15 -4 15 -6 0 -10 -10 -10 -21 0 -19 -2 -20 -17 -8 -15 12 -16
12 -10 -4 4 -11 3 -16 -3 -12 -6 3 -10 14 -10 24 0 10 -12 24 -27 31 -23 11
-25 14 -10 17 9 3 17 9 17 14 0 6 5 7 11 3 8 -4 7 -9 -2 -15 -7 -4 -10 -11 -6
-16 7 -7 26 13 27 28 0 3 -11 11 -25 17 -30 14 -33 45 -7 64 24 17 45 56 37
68 -3 6 2 10 11 10 10 0 15 3 11 6 -12 12 -55 -6 -60 -26 -3 -11 -1 -18 4 -14
5 3 9 -1 9 -8 0 -16 -36 -49 -44 -41 -12 12 -6 23 12 23 10 0 13 3 7 8 -14 9
-17 55 -4 47 5 -4 9 -1 9 4 0 17 -15 13 -41 -10 l-24 -20 25 7 c22 6 23 6 7
-10 -9 -9 -14 -23 -11 -30 8 -21 -12 -28 -27 -9 -11 13 -11 17 -1 20 6 3 12 9
12 14 0 6 -4 7 -10 4 -20 -13 -9 8 16 30 19 17 25 29 21 45 -5 18 -2 21 14 17
12 -3 19 0 19 10 0 8 5 11 10 8 6 -4 8 -10 5 -15 -3 -5 -1 -11 4 -14 5 -4 12
2 16 13 3 11 13 22 21 25 8 3 12 10 9 16 -3 5 -2 10 3 10 5 0 14 -10 20 -22
10 -23 11 -23 11 5 1 15 -4 27 -11 27 -6 0 -8 3 -5 7 4 3 2 12 -4 20 -7 8 -8
13 -1 13 5 0 12 -7 15 -15 4 -9 17 -13 36 -12 26 2 28 4 16 16 -12 12 -11 17
7 33 23 20 17 24 -13 7 -14 -7 -18 -16 -14 -30 4 -11 2 -19 -4 -19 -6 0 -11 4
-11 9 0 5 -16 15 -35 22 -19 7 -35 19 -35 26 0 7 -5 13 -11 13 -6 0 -9 -9 -6
-20 3 -11 1 -20 -5 -20 -6 0 -8 13 -4 34 5 26 3 35 -10 40 -9 3 -20 4 -24 1
-5 -3 -12 0 -16 6 -4 8 -3 9 4 5 7 -4 12 -3 12 3 0 5 -6 12 -12 14 -9 4 -10 6
-1 6 6 1 18 -6 27 -14 8 -8 19 -15 25 -15 6 0 11 -7 11 -15 0 -8 7 -15 15 -15
8 0 15 5 15 10 0 6 10 15 23 21 20 9 19 9 -7 5 -30 -4 -65 17 -47 29 5 3 12 1
16 -5 10 -17 42 -11 47 8 3 10 -2 24 -11 32 -14 14 -13 15 14 18 43 4 57 10
50 22 -4 7 -12 7 -18 2 -7 -4 -22 -7 -34 -6 -13 0 -24 -4 -25 -10 -4 -32 -3
-42 6 -48 6 -4 7 -10 3 -14 -4 -4 -13 -2 -19 4 -7 7 -20 12 -30 12 -10 0 -18
5 -18 11 0 5 -4 8 -9 5 -5 -3 -11 3 -14 14 -6 23 3 26 21 8 9 -9 12 -8 12 7 0
17 2 18 10 5 9 -13 12 -12 25 4 8 11 12 22 9 25 -4 3 -9 0 -11 -7 -6 -16 -33
3 -33 24 0 21 22 28 35 10 12 -15 13 -15 18 3 2 10 0 25 -5 32 -7 11 -8 10 -4
-4 5 -15 2 -17 -17 -11 -12 4 -24 11 -25 15 -2 5 -7 7 -12 4 -4 -3 -6 4 -3 15
6 22 24 25 53 10 15 -8 19 -7 17 9 -1 12 -7 17 -19 13 -15 -3 -18 2 -18 27 0
19 -4 30 -10 26 -6 -3 -10 4 -10 17 0 13 -7 33 -15 45 -10 14 -12 24 -5 28 6
4 9 1 8 -6 -2 -6 2 -13 8 -16 7 -2 10 5 7 20 -3 14 0 28 6 31 6 4 11 16 11 27
0 11 8 22 18 25 9 3 28 11 41 17 19 10 25 8 37 -8 8 -10 17 -15 21 -10 5 4 2
10 -4 12 -7 3 -13 14 -13 26 0 17 -2 19 -9 8 -5 -7 -14 -10 -20 -7 -6 4 -11 3
-11 -2 0 -5 -9 -12 -20 -15 -18 -5 -19 -3 -5 29 17 42 2 55 -20 17 -14 -25
-15 -25 -9 -4 5 19 3 23 -10 18 -8 -3 -18 -1 -22 6 -4 7 -3 8 1 4 5 -4 15 3
23 15 7 13 11 16 8 6 -7 -24 2 -28 32 -12 15 8 32 14 38 14 7 0 14 9 17 20 6
23 -8 27 -17 5 -3 -8 -10 -15 -17 -15 -6 0 -8 7 -5 16 4 11 -1 18 -14 21 -16
4 -18 8 -9 19 7 8 9 17 6 20 -9 9 -27 -5 -27 -22 0 -8 -5 -14 -10 -14 -6 0 -9
5 -8 11 2 6 -7 15 -20 20 -20 8 -23 6 -17 -11 4 -12 2 -20 -5 -20 -6 0 -10 10
-8 23 2 12 9 21 15 20 24 -5 63 17 63 34 1 17 2 16 15 -1 16 -21 21 -10 6 13
-11 17 -41 7 -41 -14 0 -9 -4 -14 -9 -11 -5 3 -7 15 -4 26 4 13 0 20 -10 20
-17 0 -40 -24 -31 -33 4 -3 -1 -13 -10 -22 -9 -9 -16 -22 -16 -30 0 -7 -10
-15 -21 -18 l-21 -6 21 20 c14 14 20 27 16 40 -5 15 -3 17 11 12 11 -4 15 -2
11 4 -4 6 1 17 11 25 23 21 62 32 62 19 0 -6 7 -11 15 -11 8 0 15 5 15 10 0 6
-5 10 -11 10 -5 0 -8 4 -4 9 3 5 -1 15 -8 23 -7 7 -13 23 -13 36 l0 23 18 -23
c10 -13 18 -17 18 -10 0 6 5 12 12 12 6 0 3 -9 -7 -20 -11 -12 -13 -20 -6 -20
7 0 10 -4 7 -8 -2 -4 -1 -14 3 -21 6 -9 10 -5 15 13 7 27 36 36 36 11 0 -9 -6
-12 -17 -8 -14 4 -15 3 -7 -6 9 -10 22 -9 60 3 37 11 42 15 22 15 -14 1 -28 4
-31 9 -2 4 -2 1 -1 -5 5 -21 -14 -14 -21 7 -3 11 -11 20 -16 20 -6 0 -7 14 -3
35 4 22 2 35 -5 35 -6 0 -8 7 -4 16 6 15 8 15 20 -2 12 -17 13 -17 13 0 0 12
5 16 16 12 8 -3 22 1 31 10 14 13 13 14 -13 9 -28 -6 -28 -6 -10 9 17 13 17
16 4 16 -9 0 -20 -10 -24 -22 -6 -20 -7 -21 -20 -4 -7 10 -10 25 -8 34 5 14 4
14 -6 -1 -6 -9 -8 -22 -5 -27 3 -6 1 -10 -5 -10 -7 0 -14 9 -17 20 -3 11 -9
18 -13 15 -5 -3 -6 4 -3 16 5 16 8 18 15 7 8 -10 11 -10 15 0 2 6 9 10 14 6 5
-3 9 7 8 23 0 18 -3 23 -7 13 -6 -14 -18 -17 -39 -10 -5 1 -12 2 -16 1 -5 -1
-5 4 -1 10 5 9 2 10 -12 5 -10 -4 -15 -4 -11 0 4 4 -1 13 -11 20 -23 18 -37
17 -22 -1 7 -8 9 -15 6 -15 -4 0 0 -7 8 -16 9 -8 16 -20 16 -26 0 -6 -9 1 -21
16 -17 21 -24 24 -40 15 -11 -6 -25 -8 -32 -5 -7 2 -4 5 6 5 9 1 17 9 17 19 0
13 2 14 9 3 6 -9 11 -10 15 -2 4 6 4 11 0 11 -3 0 -1 7 6 15 7 9 10 18 7 22
-4 3 -2 15 4 25 9 16 8 19 -3 16 -7 -3 -12 -15 -12 -26 1 -12 -3 -22 -7 -22
-5 0 -9 6 -9 14 0 8 -6 17 -12 19 -10 4 -10 6 0 6 6 1 12 5 12 10 0 6 -23 8
-52 6 -43 -3 -55 0 -70 17 -15 17 -20 19 -33 8 -9 -7 -19 -10 -22 -6 -4 4 -3
10 2 14 16 11 16 32 0 32 -8 0 -15 7 -15 15 0 9 -8 19 -17 23 -13 5 -7 9 22
14 22 5 46 9 53 10 6 1 12 7 12 14 0 7 -6 14 -12 17 -10 3 -10 9 0 26 7 12 10
26 7 30 -3 5 2 12 11 15 24 9 28 7 14 -9 -14 -17 -7 -31 21 -38 15 -4 19 -2
15 9 -3 8 0 14 7 14 7 0 22 7 33 16 10 8 13 13 6 9 -9 -5 -12 3 -10 28 1 24 6
33 15 30 17 -7 16 3 -4 33 -13 21 -14 30 -5 45 7 11 8 19 2 19 -5 0 -6 7 -3
17 5 12 3 14 -7 8 -9 -5 -11 -4 -6 3 11 19 36 15 29 -5 -4 -10 -2 -14 4 -10 7
5 9 -1 5 -15 -4 -17 -2 -20 11 -15 23 8 45 -31 26 -44 -11 -7 -10 -9 5 -9 15
0 17 5 12 30 -3 19 -2 29 4 25 6 -4 10 11 10 37 1 40 2 42 15 24 15 -19 15
-19 15 3 0 12 4 19 10 16 6 -3 7 1 3 10 -4 12 -8 13 -13 4 -9 -14 -60 -4 -60
11 0 13 17 13 26 -1 3 -6 9 -7 13 -2 3 5 19 19 35 31 21 16 24 22 12 22 -10 0
-15 4 -12 9 3 5 14 7 24 4 10 -2 24 3 31 11 16 19 35 21 28 3 -3 -8 1 -14 9
-14 16 0 19 24 4 29 -6 2 -12 13 -13 25 -1 22 -17 22 -17 -1 0 -17 -38 -51
-47 -42 -4 4 -1 11 7 16 12 7 12 12 2 22 -10 10 -8 14 7 23 13 7 16 15 10 30
-7 19 -8 19 -8 -2 -1 -13 -5 -23 -11 -23 -14 0 -13 43 1 57 12 12 4 33 -12 33
-6 0 -8 -4 -4 -9 3 -5 1 -12 -4 -15 -5 -3 -11 1 -15 9 -3 8 1 18 8 22 8 5 16
17 19 28 4 16 5 15 6 -6 1 -29 48 -71 48 -44 0 8 -4 12 -8 9 -4 -2 -11 5 -14
17 -9 26 14 52 34 40 11 -7 9 -10 -8 -16 -11 -3 -21 -11 -21 -16 0 -6 9 -7 21
-4 16 5 19 4 14 -5 -5 -9 -4 -11 4 -6 6 4 19 2 27 -5 8 -6 17 -9 21 -6 3 4 -6
12 -21 18 -25 12 -26 13 -9 32 10 11 13 17 6 13 -14 -8 -53 14 -53 30 0 7 -9
14 -20 17 -11 3 -20 10 -20 17 0 6 5 8 11 4 6 -3 15 -1 19 6 5 8 10 3 14 -15
4 -14 12 -25 18 -23 35 12 0 63 -36 54 -19 -5 -20 -4 -3 8 11 9 15 20 10 31
-4 13 -3 16 5 11 6 -4 21 -2 33 4 19 11 20 10 14 -12 -7 -21 -6 -21 9 -9 9 8
15 20 12 28 -3 7 -1 13 4 13 6 0 10 -5 10 -11 0 -6 8 -8 20 -4 15 5 21 0 26
-19 5 -20 9 -23 19 -13 11 10 10 13 -1 20 -16 9 -19 47 -3 47 5 0 7 -4 4 -10
-9 -15 8 -12 33 6 22 15 23 15 17 -13 -3 -15 -2 -21 1 -13 4 8 16 23 28 32 18
15 19 19 6 28 -12 8 -12 10 5 8 42 -3 57 2 51 17 -8 23 10 18 27 -7 12 -17 16
-19 16 -7 1 9 8 30 17 48 15 30 15 33 -2 47 -11 9 -14 13 -7 10 6 -4 14 0 16
6 4 10 6 10 6 0 1 -7 5 -10 11 -7 6 4 7 -1 3 -12 -6 -16 -5 -16 11 -4 12 10
14 17 6 25 -5 5 -10 22 -10 36 0 14 -6 32 -12 39 -10 11 -10 13 0 7 7 -4 12
-2 12 5 0 8 7 6 19 -5 21 -19 42 -3 22 17 -8 8 -11 7 -11 -3 -1 -11 -4 -10
-15 4 -7 10 -18 15 -23 12 -5 -3 -8 7 -6 22 2 17 -7 41 -23 65 -25 36 -43 47
-43 26 0 -5 4 -7 10 -4 5 3 10 2 10 -3 0 -6 -7 -12 -15 -16 -9 -3 -15 0 -15 9
0 8 -6 15 -12 15 -10 0 -10 2 -1 8 6 4 13 19 15 34 2 22 6 25 18 17 11 -8 12
-12 2 -16 -13 -5 -7 -23 9 -23 6 0 7 5 4 10 -3 6 -2 10 4 10 5 0 13 -4 16 -10
3 -5 2 -10 -3 -10 -6 0 -8 -9 -5 -20 3 -11 10 -20 15 -20 6 0 7 8 4 17 -6 14
-3 14 15 -3 11 -10 24 -18 28 -17 3 1 5 -5 5 -12 -1 -8 2 -12 8 -9 5 3 6 15 3
27 -5 18 -4 19 5 5 10 -17 4 -48 -11 -48 -4 0 -15 10 -23 22 -9 12 -19 19 -22
15 -4 -4 0 -15 9 -25 10 -10 14 -22 11 -25 -11 -11 15 -35 34 -33 9 2 23 -4
30 -13 7 -9 6 -1 -3 17 -18 37 -13 79 6 52 9 -12 10 -12 5 3 -9 27 -13 43 -9
34 3 -4 9 -5 14 -1 5 3 9 -3 9 -13 0 -15 2 -16 10 -3 14 22 12 30 -7 30 -15 0
-15 2 -4 9 9 6 22 6 32 0 25 -13 25 -13 24 26 -2 40 -10 53 -19 30 -4 -10 -2
-14 5 -9 7 4 10 1 7 -6 -2 -7 -11 -14 -20 -16 -14 -2 -15 2 -5 24 6 15 17 33
24 39 6 7 9 26 7 43 -4 22 -1 32 11 36 13 5 14 9 4 14 -9 6 -9 12 4 24 19 20
34 21 18 2 -9 -10 -9 -20 1 -41 12 -26 12 -26 20 -5 7 18 11 20 23 10 12 -10
18 -10 30 0 8 7 21 10 29 7 10 -4 13 -1 9 8 -3 8 -9 12 -14 9 -11 -6 -41 21
-32 30 10 10 25 7 18 -4 -3 -5 1 -10 9 -10 9 0 16 4 16 9 0 13 -26 32 -34 24
-4 -4 -4 0 0 10 3 10 1 17 -6 17 -6 0 -8 5 -4 11 4 8 9 7 15 -2 6 -11 9 -10
15 4 3 9 10 17 15 17 6 0 5 -9 -1 -21 -17 -31 -6 -53 20 -39 18 10 31 -2 13
-13 -5 -2 -2 -2 5 -1 16 4 16 -13 0 -19 -7 -2 -10 -8 -5 -12 14 -15 22 5 26
62 1 7 8 10 16 7 10 -4 15 0 15 11 0 14 3 15 15 5 21 -17 19 -30 -5 -30 -13 0
-20 -6 -19 -17 0 -11 3 -13 6 -5 2 6 9 12 14 12 6 0 7 -5 3 -11 -4 -8 1 -9 16
-4 15 5 25 2 31 -6 7 -11 9 -9 9 6 0 11 -7 32 -17 45 -9 14 -10 19 -3 13 8 -7
22 -13 33 -13 15 0 18 -6 14 -27 -2 -16 -2 -22 0 -15 6 16 25 11 31 -9 3 -11
2 -11 -7 1 -9 12 -11 9 -10 -15 0 -16 3 -24 6 -17 2 6 11 12 19 12 11 0 12 4
6 16 -5 9 -7 25 -5 35 4 13 0 19 -11 19 -9 0 -16 5 -16 11 0 6 9 8 22 3 17 -5
27 0 46 22 13 16 21 23 18 17 -9 -16 6 -17 22 -1 9 9 12 7 12 -12 0 -22 1 -23
13 -5 9 12 19 15 28 10 8 -4 5 1 -6 12 -11 11 -23 19 -26 17 -9 -5 -21 27 -14
34 3 3 5 -1 5 -9 1 -10 5 -8 17 6 12 16 14 17 10 3 -4 -12 1 -21 13 -28 14 -7
20 -7 20 0 0 5 -4 10 -10 10 -5 0 -10 5 -10 10 0 6 8 5 19 -2 11 -7 17 -17 14
-23 -4 -5 3 -2 14 8 11 9 23 14 28 10 4 -5 2 3 -4 15 -7 13 -10 26 -8 29 3 3
13 -10 22 -27 12 -24 20 -29 28 -21 6 6 18 11 26 11 10 0 12 -3 5 -8 -6 -4
-14 -16 -17 -27 -7 -19 -6 -19 7 -2 7 9 22 17 32 17 18 1 18 1 2 11 -24 14
-22 22 7 36 16 7 25 8 25 1 0 -6 10 -4 23 5 12 8 21 20 19 26 -1 6 4 10 10 9
7 -2 12 4 10 12 -3 11 -1 12 8 3 13 -12 3 -41 -14 -42 -5 0 -10 -13 -12 -28
-2 -27 -2 -27 9 -5 6 13 16 21 23 18 8 -3 11 0 8 9 -4 10 1 12 18 8 13 -3 28
-10 35 -15 8 -6 13 1 18 22 6 25 9 29 21 19 13 -11 18 -6 15 14 -1 4 7 4 16
-1 10 -6 35 -8 56 -7 21 2 35 -1 31 -6 -3 -5 -14 -9 -25 -9 -11 0 -18 -4 -14
-10 3 -5 12 -7 20 -3 9 3 23 -1 33 -8 14 -11 15 -11 5 1 -15 16 -17 34 -4 25
5 -3 16 4 24 16 11 14 27 21 51 22 26 1 32 3 21 9 -19 11 -20 48 -1 48 8 0 16
-7 20 -15 3 -8 11 -15 18 -15 9 0 9 3 0 12 -19 19 -15 23 23 23 25 0 37 -5 41
-17 3 -10 10 -18 15 -18 11 0 4 15 -19 42 -11 13 -19 15 -33 7 -15 -8 -19 -6
-19 7 0 14 -3 14 -16 4 -13 -12 -14 -10 -3 14 7 14 15 22 19 17 4 -7 16 -5 32
4 28 14 40 14 70 1 10 -5 23 -6 30 -3 8 3 3 9 -12 15 -25 11 -25 11 -2 11 13
1 21 5 17 11 -3 5 -11 7 -19 4 -13 -5 -41 44 -31 54 3 3 5 0 5 -7 0 -8 6 -11
16 -7 11 4 14 1 10 -12 -4 -11 -1 -19 6 -20 7 0 23 -3 35 -6 16 -3 20 -1 16
10 -4 10 0 13 13 8 18 -5 18 -5 1 6 -15 10 -16 14 -5 28 12 15 11 16 -4 3 -12
-9 -18 -10 -18 -2 0 6 -5 11 -10 11 -7 0 -7 -6 0 -19 5 -11 6 -22 2 -25 -5 -3
-14 11 -21 30 -12 34 -26 44 -33 23 -2 -7 -25 -13 -51 -13 l-46 -2 20 33 c20
32 20 71 0 59 -13 -9 -8 49 7 66 7 10 10 27 5 48 -4 24 -3 31 5 26 7 -4 12
-16 12 -26 0 -10 4 -21 9 -24 5 -4 7 2 4 13 -3 10 1 22 8 27 9 5 11 2 6 -9 -3
-9 -1 -19 5 -23 6 -4 8 -3 5 2 -3 6 -2 16 4 24 7 13 9 13 9 -1 0 -9 7 -16 15
-16 19 0 19 7 -1 21 -14 11 -14 13 0 25 14 12 16 11 10 -3 -5 -13 -2 -15 12
-9 11 3 23 11 27 17 6 7 7 4 3 -6 -8 -26 13 -22 24 5 5 12 9 16 9 10 1 -7 5
-13 11 -13 5 0 6 8 3 17 -5 12 -2 15 10 10 12 -4 15 -1 12 14 -2 11 0 17 5 14
4 -3 16 3 26 12 16 16 16 16 9 -7 -4 -14 -12 -28 -17 -31 -7 -4 -7 -9 0 -13 5
-3 13 2 16 11 6 15 8 15 17 3 8 -11 10 -8 6 13 -4 27 7 37 17 15 3 -7 5 -4 5
7 -3 47 2 65 16 65 7 0 19 -8 24 -17 6 -10 11 -13 11 -6 0 6 -4 15 -10 18 -5
3 -10 11 -10 16 0 6 4 8 9 5 15 -10 40 5 34 20 -4 11 -239 14 -1559 14 l-1554
0 0 -3295z m9327 1053 c111 -138 133 -170 133 -193 0 -9 4 -14 9 -11 15 9 41
-19 212 -229 178 -218 189 -234 189 -267 0 -33 15 -54 26 -37 4 7 3 14 -4 17
-7 2 -12 10 -12 18 0 9 5 12 10 9 15 -9 305 -356 335 -401 14 -20 22 -41 18
-47 -3 -5 -1 -7 5 -3 15 9 43 -19 174 -174 151 -179 171 -206 172 -237 1 -25
26 -48 26 -24 0 6 -4 11 -10 11 -5 0 -10 5 -10 10 0 6 4 10 8 10 9 0 229 -249
277 -315 17 -22 36 -44 42 -48 16 -10 240 -263 259 -293 8 -11 50 -58 94 -102
125 -130 200 -220 200 -245 0 -16 3 -18 9 -9 13 21 238 -222 251 -270 10 -34
30 -53 30 -28 0 6 -4 10 -10 10 -5 0 -10 6 -10 12 0 16 204 -187 218 -216 6
-11 13 -34 17 -49 5 -25 25 -30 25 -6 0 6 -4 7 -10 4 -5 -3 -10 2 -10 12 0 11
36 -19 105 -87 58 -58 105 -110 105 -117 0 -7 12 -19 28 -27 15 -8 64 -52 110
-99 67 -69 82 -90 82 -116 0 -17 5 -31 11 -31 6 0 8 9 4 21 -11 34 21 11 117
-88 48 -48 123 -121 167 -161 47 -43 81 -82 81 -92 0 -13 5 -17 14 -14 18 7
152 -112 161 -143 4 -12 12 -20 18 -17 7 2 41 -24 77 -58 36 -34 56 -54 44
-45 -25 20 -41 22 -47 5 -4 -10 -7 -10 -17 -1 -11 10 -11 15 0 28 10 12 10 15
-5 15 -10 0 -16 -3 -12 -6 6 -6 -16 -34 -26 -34 -2 0 -4 10 -3 22 0 11 -5 23
-12 26 -9 3 -12 -4 -10 -23 2 -23 -1 -28 -22 -32 -14 -2 -29 3 -35 10 -5 8
-27 17 -48 21 -36 7 -38 6 -32 -13 3 -12 2 -21 -4 -21 -16 0 -23 61 -19 164 1
52 0 92 -4 88 -4 -4 -8 -60 -9 -125 -1 -64 -5 -117 -10 -117 -5 0 -9 5 -9 10
0 19 -18 10 -23 -11 -5 -17 -11 -20 -30 -15 -16 4 -29 0 -37 -9 -11 -13 -9
-15 6 -14 88 8 93 -17 6 -28 -29 -3 -52 -9 -52 -13 0 -4 -6 -7 -14 -7 -10 0
-11 9 -5 34 4 19 10 37 13 40 3 4 0 13 -6 21 -8 9 -14 62 -16 141 -5 173 -10
175 -11 4 l-1 -142 -42 15 c-23 8 -47 19 -53 24 -7 6 -29 16 -50 23 l-38 13
-2 62 c-2 68 -12 96 -13 35 -1 -92 -1 -95 -19 -89 -10 3 -48 8 -84 11 -58 6
-67 4 -74 -12 -6 -13 -11 -3 -21 42 l-12 60 -1 -48 -1 -49 -32 27 c-18 14 -62
49 -98 78 -36 28 -69 57 -75 63 -5 6 -28 24 -50 40 -54 39 -177 144 -191 162
-6 9 -9 24 -6 34 2 10 -1 18 -7 18 -6 0 -11 -9 -11 -20 0 -13 -7 -20 -20 -20
-13 0 -20 7 -20 19 0 10 -31 44 -74 80 -41 35 -77 69 -80 77 -3 8 -12 14 -20
14 -8 0 -16 3 -18 8 -1 4 -39 39 -83 77 -43 39 -93 84 -110 100 -17 17 -62 57
-100 90 -39 33 -95 83 -125 111 -30 29 -88 83 -129 120 -41 38 -100 94 -131
124 -31 30 -95 91 -143 135 -48 44 -87 84 -87 88 0 5 4 6 8 3 4 -2 9 7 10 20
1 15 -2 23 -8 19 -6 -4 -8 -10 -5 -15 3 -5 1 -12 -5 -15 -6 -4 -43 25 -83 64
-40 38 -112 108 -162 155 l-90 85 -5 183 -6 183 -2 -173 -2 -174 -172 174
c-95 96 -179 181 -187 189 -8 8 -71 70 -140 139 -177 176 -271 279 -272 298 0
14 -2 14 -6 2 -4 -10 -47 28 -139 125 l-134 140 0 678 c0 575 2 677 14 677 8
0 59 -55 113 -122z m-1706 -30 c1 -51 2 -144 3 -207 l1 -113 -104 -59 c-57
-33 -108 -59 -113 -59 -16 0 -72 -32 -91 -51 -21 -22 -37 -25 -38 -6 0 6 -4 3
-9 -9 -5 -13 -90 -65 -237 -146 -267 -147 -260 -143 -295 -152 -26 -6 -27 -4
-24 24 2 16 -1 30 -5 30 -5 0 -9 -15 -9 -33 0 -22 -8 -40 -27 -58 -28 -25
-545 -309 -564 -309 -7 0 -9 73 -7 195 2 107 -1 194 -5 192 -5 -1 -10 -92 -10
-202 l-2 -199 -25 -12 c-14 -7 -40 -18 -59 -25 -18 -7 -46 -23 -61 -36 -28
-23 -495 -273 -511 -273 -5 0 -9 83 -9 185 0 124 4 185 11 185 5 0 7 5 4 11
-22 34 -27 -9 -26 -192 2 -151 -1 -198 -11 -206 -24 -18 -152 -82 -211 -104
-31 -12 -61 -27 -65 -35 -5 -10 -379 -209 -428 -228 -6 -2 -11 5 -11 17 0 12
-1 87 -2 166 -1 144 -7 185 -12 81 -1 -30 -7 -61 -13 -69 -8 -11 -8 -15 2 -18
15 -6 17 -133 2 -133 -5 0 -10 -5 -10 -11 0 -5 5 -7 10 -4 6 3 10 -1 10 -10 0
-10 -5 -13 -12 -9 -8 5 -8 1 2 -12 8 -10 10 -16 6 -12 -5 4 -14 2 -20 -6 -14
-18 -299 -160 -354 -176 -24 -8 -54 -24 -68 -37 -22 -20 -333 -183 -349 -183
-3 0 -4 97 -3 215 2 138 -1 215 -7 215 -5 1 4 8 20 17 17 9 32 19 35 23 9 12
700 360 716 360 19 0 73 27 99 50 22 19 643 340 653 338 12 -2 46 14 77 37 42
31 547 294 597 312 23 8 63 29 88 47 50 36 513 286 530 286 13 0 48 20 75 42
33 26 476 268 493 268 8 0 31 12 51 28 64 49 265 160 294 161 l27 1 1 -92z
m1177 -354 c22 -15 22 -19 21 -232 0 -172 -3 -213 -12 -198 -7 10 -55 62 -107
115 -52 54 -132 138 -178 189 -96 106 -106 92 88 121 159 24 161 24 188 5z
m-1170 -552 c-1 -474 -2 -509 -19 -538 -18 -30 -19 -67 -19 -708 0 -637 -1
-676 -17 -677 -17 -1 -17 -2 0 -6 9 -2 17 -9 17 -14 0 -5 -8 -9 -17 -9 -16 -1
-16 -2 2 -12 19 -11 19 -11 0 -19 -17 -7 -18 -8 -2 -8 15 -1 17 -14 17 -119 0
-88 -4 -123 -15 -138 -12 -16 -14 -108 -15 -621 0 -428 -3 -603 -11 -603 -6 0
-19 10 -28 22 -11 13 -30 21 -49 22 -24 1 -28 -2 -19 -12 6 -7 19 -11 29 -9
11 3 25 -4 38 -20 25 -32 22 -35 -20 -23 -19 5 -36 7 -39 5 -2 -3 1 -5 7 -5
16 0 15 -25 -3 -60 -17 -33 -39 -39 -49 -14 -8 20 -7 20 24 33 18 7 20 10 8
10 -11 1 -18 9 -18 22 0 15 -5 19 -15 15 -12 -4 -14 0 -9 22 4 15 11 28 15 30
4 2 5 10 2 18 -3 10 2 14 18 14 12 0 19 3 16 6 -3 4 -1 16 5 28 11 20 10 20
-9 4 -11 -10 -24 -18 -30 -18 -6 0 -14 8 -18 18 -4 9 -9 251 -11 537 -7 972
-14 1558 -19 1564 -3 3 -5 -232 -3 -522 2 -296 -1 -527 -6 -527 -5 0 -5 -5 0
-12 5 -7 9 -233 9 -502 l0 -489 -34 -19 c-18 -11 -35 -18 -36 -16 -12 13 -15
308 -21 1703 -4 875 -8 1592 -10 1594 -2 2 -4 -317 -4 -710 0 -1456 -5 -2598
-11 -2604 -6 -5 -96 -13 -174 -15 -17 0 -17 -2 -5 -10 13 -8 12 -10 -2 -10
-10 0 -18 5 -18 11 0 5 -5 7 -11 3 -15 -9 -29 14 -29 49 0 33 -26 36 -58 6
-13 -11 -28 -17 -35 -13 -8 5 -7 2 2 -9 14 -17 6 -36 -24 -60 -5 -4 2 -5 18
-1 18 4 27 2 27 -7 0 -7 -3 -9 -7 -6 -3 4 -12 2 -20 -4 -9 -9 -17 -8 -28 1 -8
6 -19 9 -25 5 -11 -7 -13 5 -10 44 1 18 -2 22 -13 18 -9 -3 -17 -2 -19 3 -2 8
-32 15 -80 19 -12 1 -9 39 3 47 7 4 9 22 5 48 -4 22 -9 291 -11 596 -3 305 -7
563 -9 573 -2 9 -1 17 2 17 4 0 4 35 1 77 -3 43 -7 493 -8 1000 -1 743 1 922
11 925 10 4 8 9 -5 22 -23 23 -21 27 33 68 47 36 475 278 491 278 5 0 10 -42
11 -92 l2 -93 5 99 c6 91 8 100 31 116 39 28 78 33 83 13 4 -14 5 -14 6 3 0
12 16 34 34 48 47 37 181 115 189 109 4 -2 7 -232 6 -511z m918 337 c88 -94
164 -181 171 -192 6 -12 32 -39 57 -60 l46 -38 0 -220 c0 -191 -2 -225 -17
-250 -12 -20 -23 -27 -35 -23 -17 5 -23 -5 -19 -30 5 -28 -12 -44 -56 -50 -25
-3 -51 -10 -57 -15 -6 -5 -42 -11 -81 -14 -96 -8 -276 -26 -355 -36 -88 -11
-167 -8 -182 7 -10 10 -14 121 -16 475 -2 254 0 472 3 484 9 36 52 73 85 73
19 0 30 5 30 14 0 15 13 18 150 35 123 16 102 28 276 -160z m-1838 -382 c9
-20 9 -26 1 -21 -9 5 -11 -419 -8 -1651 3 -1315 1 -1659 -8 -1662 -9 -3 -10
-10 -3 -23 7 -14 6 -20 -6 -24 -9 -4 -22 -2 -28 3 -8 7 -16 4 -25 -10 -7 -12
-15 -19 -18 -16 -3 3 4 19 16 35 26 37 26 41 1 35 -11 -3 -17 -9 -14 -14 3 -5
-3 -12 -13 -16 -10 -3 -26 -13 -35 -21 -16 -14 -18 -13 -18 3 0 15 -2 16 -17
4 -15 -13 -15 -12 -5 8 9 17 9 22 -4 27 -23 9 -46 7 -40 -3 8 -12 -4 -41 -16
-41 -6 0 -8 9 -5 20 4 15 0 20 -13 20 -11 0 -21 4 -24 9 -9 13 -46 1 -46 -15
0 -8 -15 -20 -32 -28 l-33 -14 32 -1 c33 -1 52 -16 31 -24 -8 -3 -6 -6 5 -6
17 -1 25 -21 8 -21 -5 0 -11 -6 -14 -12 -2 -7 -3 -5 -2 5 2 9 -1 17 -6 17 -5
0 -9 8 -9 18 0 14 -2 15 -10 2 -7 -12 -13 -11 -35 10 -17 16 -22 26 -14 31 7
4 14 32 17 63 3 37 9 56 17 56 8 0 16 -6 18 -12 3 -8 6 -6 6 5 1 9 8 17 16 17
11 0 15 12 15 52 0 55 -15 57 -23 3 -3 -26 -4 -25 -6 9 -1 30 -4 37 -17 32 -9
-3 -20 -6 -25 -6 -5 0 -9 -22 -9 -50 0 -29 -5 -50 -11 -50 -5 0 -8 -4 -4 -9 3
-5 1 -12 -5 -16 -5 -3 -10 1 -10 10 0 11 -5 15 -15 11 -9 -3 -18 1 -21 9 -4 8
-14 15 -23 15 -14 -1 -14 -2 2 -14 9 -7 17 -16 17 -20 0 -11 -48 -6 -52 6 -7
19 -38 1 -38 -22 0 -11 -4 -20 -10 -20 -5 0 -10 1 -11 3 -6 22 -13 332 -13
619 -1 203 -3 368 -6 368 -3 0 -7 457 -9 1015 l-3 1014 38 23 c122 73 550 304
555 299 3 -3 11 -19 17 -34z m-618 -1749 c-1 -1359 -2 -1454 -18 -1474 -17
-20 -17 -21 -34 -3 -10 11 -14 19 -9 19 5 0 9 16 9 35 0 24 -4 33 -11 28 -8
-4 -7 -1 1 9 8 11 10 23 4 39 -5 13 -8 215 -7 449 2 310 0 427 -9 432 -8 6 -8
8 2 8 6 0 12 5 12 11 0 5 -4 7 -10 4 -5 -3 -10 -1 -10 4 0 6 5 11 12 11 9 0 9
3 0 12 -7 7 -12 17 -12 22 0 6 5 4 10 -4 7 -11 9 -1 9 35 -2 47 -2 48 -9 15
-4 -19 -8 353 -9 828 -1 664 2 862 11 862 8 0 9 3 2 10 -6 6 -18 8 -27 4 -19
-7 -23 -24 -6 -24 7 0 9 -406 8 -1332 -2 -733 -5 -1363 -7 -1400 -3 -60 -6
-67 -28 -72 -19 -5 -25 -15 -30 -46 -7 -42 -24 -55 -24 -18 0 20 -1 20 -18 5
-26 -23 -44 -21 -66 8 -10 13 -22 22 -27 20 -4 -3 -7 8 -7 25 l1 31 25 -23
c20 -18 24 -19 19 -5 -8 21 -3 22 17 2 8 -8 17 -11 20 -6 8 12 -23 43 -35 35
-5 -3 -16 1 -24 9 -18 18 -89 32 -107 21 -7 -5 -22 -7 -33 -6 -37 4 -108 -24
-116 -46 -6 -16 -5 -20 7 -15 21 8 17 -10 -6 -30 -11 -9 -20 -12 -20 -6 0 21
-33 37 -56 29 -18 -7 -20 -5 -16 16 2 13 0 30 -6 37 -16 20 -23 226 -27 820
-1 307 -5 561 -8 564 -4 3 -2 14 4 24 6 12 6 19 0 19 -6 0 -6 11 -1 28 4 16 5
49 2 73 -3 24 -5 262 -6 529 l-1 484 260 139 c264 141 322 166 338 144 6 -8 7
-8 4 3 -3 11 42 56 61 60 1 0 2 -654 2 -1452z m3400 1126 c0 -8 4 -14 9 -14 5
0 12 -16 15 -35 4 -19 11 -35 16 -35 15 0 12 28 -2 33 -7 2 -10 8 -5 12 8 10
317 -293 317 -312 0 -6 10 -19 23 -28 18 -13 20 -17 7 -25 -12 -7 -12 -12 -2
-22 17 -17 17 -348 0 -367 -11 -11 -10 -12 0 -6 11 6 13 -96 11 -572 -2 -343
-6 -583 -12 -590 -5 -7 -6 -13 -1 -13 5 0 9 -13 9 -30 0 -16 -4 -30 -8 -30 -4
0 -3 -9 3 -19 7 -14 7 -22 0 -26 -8 -5 -8 -11 0 -20 8 -10 7 -14 -2 -18 -8 -4
-9 -8 -3 -14 10 -8 15 -164 5 -158 -3 2 -6 -42 -7 -96 -1 -74 1 -98 10 -92 9
5 9 3 0 -8 -8 -10 -12 -44 -10 -94 2 -74 1 -78 -21 -81 -13 -3 -25 2 -28 11
-4 11 -21 15 -56 15 -28 0 -47 -4 -43 -9 9 -16 -15 -24 -31 -10 -8 7 -40 16
-71 20 -31 4 -59 11 -64 16 -4 4 -9 131 -10 281 -1 161 -6 272 -11 272 -5 0
-9 -12 -8 -27 7 -100 -1 -533 -10 -533 -7 0 -11 201 -12 578 -2 445 -3 492 -5
203 -2 -238 -7 -379 -14 -387 -6 -7 -9 -81 -9 -190 2 -156 0 -178 -15 -187
-11 -6 -22 -4 -34 7 -12 11 -37 16 -84 16 l-67 0 0 495 c0 455 -1 498 -17 522
-14 21 -19 54 -22 142 -3 101 -1 116 15 128 10 7 13 13 6 13 -14 0 -12 42 3
52 5 4 2 10 -8 14 -16 6 -17 53 -17 698 -1 580 -3 695 -15 716 -8 14 -14 45
-14 70 l0 45 144 -149 c80 -82 145 -155 145 -162z m-4080 -846 c0 -447 0 -894
0 -993 -1 -99 0 -187 0 -195 1 -8 1 -124 1 -258 1 -247 -4 -281 -38 -268 -7 3
-13 2 -13 -3 0 -4 -11 -21 -25 -37 -14 -16 -25 -24 -25 -19 0 6 -8 -6 -18 -25
-13 -26 -15 -38 -7 -45 6 -5 14 -18 18 -27 3 -10 13 -18 22 -18 10 0 14 -7 11
-22 -3 -13 -5 -26 -5 -30 -1 -5 -12 -8 -26 -8 -19 0 -26 7 -33 33 -6 24 -5 33
5 35 22 6 9 27 -16 26 -11 0 -21 4 -22 10 0 6 -2 20 -4 31 -3 19 -3 19 9 3 7
-10 16 -18 20 -18 11 0 -6 55 -21 63 -10 6 -13 86 -15 415 l-3 407 -6 -305
c-3 -168 -5 100 -4 595 0 495 -1 806 -5 690 -4 -166 -6 -126 -6 190 0 220 3
353 6 295 l6 -105 2 118 c1 70 -2 116 -7 112 -5 -3 -12 3 -14 12 -3 13 -5 11
-7 -7 l-2 -25 -8 25 c-5 17 -8 1 -7 -50 0 -72 0 -73 7 -25 4 28 7 -258 7 -635
-1 -377 3 -691 7 -699 6 -10 5 -12 -3 -7 -9 6 -11 -115 -11 -509 1 -410 -2
-520 -12 -533 -10 -12 -10 -14 0 -8 7 4 12 1 12 -8 0 -9 -9 -16 -20 -16 -15 0
-20 -7 -20 -25 0 -14 5 -25 10 -25 6 0 10 -15 10 -34 0 -28 -4 -35 -26 -40
-32 -8 -34 -7 -39 34 -2 18 -6 34 -8 37 -9 9 -77 -9 -77 -21 -1 -6 -7 1 -15
15 -19 34 -55 45 -62 18 -3 -10 -9 -19 -14 -19 -13 0 -11 -28 2 -32 5 -2 7
-11 4 -20 -8 -21 -66 -33 -77 -16 -6 10 -10 10 -18 -2 -9 -13 -14 -8 -11 12 0
4 -13 2 -29 -4 -17 -5 -30 -14 -30 -20 0 -5 4 -7 9 -3 6 3 28 2 51 -1 31 -5
38 -9 30 -19 -8 -10 -5 -15 11 -20 21 -7 20 -9 -15 -23 -24 -9 -33 -17 -26
-22 12 -8 92 27 99 43 1 5 12 0 22 -9 11 -9 22 -14 26 -11 3 4 1 7 -5 7 -17 0
-15 14 7 39 17 19 21 20 46 7 24 -13 25 -15 9 -24 -23 -13 -13 -16 104 -38 31
-6 45 -21 19 -21 -7 0 -26 -3 -42 -7 -22 -5 -26 -4 -15 4 8 5 13 10 10 10 -3
0 -20 4 -38 9 -37 11 -39 9 -14 -15 9 -10 18 -21 18 -26 1 -4 2 -11 3 -14 0
-4 7 -1 15 5 11 9 43 10 66 1 3 -2 9 -2 13 -1 5 1 7 -4 5 -11 -3 -7 2 -18 10
-24 23 -17 7 -44 -25 -44 -22 0 -25 -2 -13 -10 8 -5 11 -10 5 -11 -25 -3 -81
4 -102 12 -17 6 -23 5 -23 -5 0 -8 -7 -17 -16 -20 -23 -9 -36 -7 -29 4 8 14
-28 13 -42 -1 -7 -7 -17 -8 -30 -1 -24 13 -151 6 -170 -9 -10 -9 -17 -9 -25
-1 -9 9 -8 12 2 12 8 1 28 12 45 25 l29 24 -24 9 c-15 6 -19 11 -12 16 7 4 10
12 7 17 -4 5 1 9 9 9 8 0 16 -7 18 -16 2 -13 8 -11 26 9 l24 25 -39 -2 c-21
-1 -44 -6 -51 -10 -7 -4 -21 -4 -33 -1 -19 6 -20 7 -2 20 10 7 22 11 27 8 5
-4 6 -1 2 6 -4 6 -12 9 -17 6 -5 -4 -9 6 -9 21 l0 27 18 -21 c17 -19 19 -19
28 -4 14 22 7 42 -16 42 -9 0 -24 8 -31 17 -12 15 -12 16 4 10 11 -4 17 -2 17
7 0 8 3 22 7 32 5 13 3 16 -10 11 -9 -3 -17 -2 -17 3 0 6 7 10 15 10 8 0 15 5
15 10 0 6 -6 10 -14 10 -13 0 -28 65 -18 75 5 5 3 161 -4 220 -2 22 -4 256 -4
520 0 317 -3 475 -10 465 -7 -11 -10 -4 -10 28 0 23 5 42 10 42 6 0 10 25 10
55 0 30 -4 55 -10 55 -5 0 -10 5 -10 11 0 5 3 8 8 6 4 -3 8 9 9 26 1 26 0 28
-7 12 -8 -19 -9 -19 -9 3 -1 12 4 22 10 22 6 0 9 27 7 74 -1 41 -6 72 -10 70
-4 -3 -8 2 -8 11 0 9 5 13 10 10 6 -3 10 1 10 10 0 9 -4 13 -10 10 -6 -4 -10
8 -10 30 0 25 4 34 12 29 8 -5 9 -2 2 12 -5 10 -9 136 -9 279 l0 260 110 58
c299 157 434 220 419 196 -3 -5 0 -9 5 -9 6 0 11 7 11 15 0 9 11 21 25 27 14
6 25 15 25 19 0 8 107 68 123 69 4 0 7 -366 7 -812z m-1588 304 c1 -164 3
-195 8 -127 l7 90 -1 -89 -1 -89 -255 -128 c-229 -114 -296 -145 -338 -153 -7
-1 -27 -15 -45 -30 -30 -27 -216 -126 -236 -126 -7 0 -9 82 -8 221 2 208 3
221 22 234 11 8 27 21 36 29 8 9 62 38 120 65 57 27 232 112 388 190 156 77
287 138 292 135 5 -3 10 -103 11 -222z m6230 -9 c92 -95 127 -137 130 -158 1
-16 10 -31 18 -33 13 -5 13 -3 1 12 -21 25 -7 29 22 5 l27 -20 0 -954 c0 -844
-2 -954 -15 -949 -11 4 -15 0 -15 -17 0 -12 -3 -19 -7 -16 -3 4 -8 100 -10
214 -2 114 -6 210 -9 212 -3 3 -5 -82 -4 -189 1 -224 -1 -239 -36 -232 -32 6
-31 20 3 28 24 6 25 8 8 14 -31 11 -56 0 -50 -21 6 -17 2 -18 -39 -15 -25 3
-46 1 -46 -5 0 -5 -11 -9 -24 -9 -14 0 -31 -6 -38 -14 -12 -12 -18 -11 -39 6
-16 13 -18 18 -6 14 9 -3 17 -1 17 4 0 6 -6 10 -14 10 -7 0 -17 10 -21 23 -4
12 -10 521 -12 1130 -5 1073 -4 1108 14 1099 10 -6 75 -68 145 -139z m-5384 0
c0 -85 -3 -115 -8 -88 -4 22 -7 -113 -7 -300 0 -187 3 -324 7 -305 l7 35 2
-43 c0 -27 -3 -41 -9 -37 -5 3 -10 -1 -10 -10 0 -9 5 -13 10 -10 6 4 10 -10
10 -34 0 -23 -4 -41 -10 -41 -5 0 -10 -10 -9 -22 0 -22 1 -22 9 -3 7 16 9 13
9 -17 1 -24 -4 -38 -11 -39 -7 0 -8 -2 -3 -5 10 -4 10 -1176 0 -1221 -3 -13
-12 -23 -20 -23 -17 0 -75 49 -59 50 17 0 26 30 10 30 -20 0 -39 -49 -25 -66
6 -7 8 -18 4 -24 -4 -6 12 -10 44 -10 34 0 51 -4 51 -12 0 -20 -43 -35 -74
-27 -35 10 -55 -7 -51 -44 3 -25 0 -27 -31 -27 -19 0 -34 -4 -34 -10 0 -5 -9
-10 -21 -10 -15 0 -19 5 -15 15 3 8 1 15 -4 15 -6 0 -10 9 -10 19 0 16 -5 18
-39 14 -49 -7 -64 12 -30 38 l24 19 -22 0 c-25 0 -28 7 -13 30 5 9 5 19 -1 26
-5 7 -9 16 -8 20 1 5 1 159 0 342 -1 264 -4 332 -13 326 -9 -5 -9 -2 1 9 11
14 11 17 0 17 -11 0 -11 2 1 10 13 9 13 10 0 10 -9 0 -11 3 -5 8 6 4 10 240
10 671 0 555 2 665 14 669 7 2 22 13 33 24 17 17 274 157 289 158 4 0 7 -57 7
-127z m4055 98 c13 -5 34 -26 46 -46 20 -35 21 -47 21 -367 0 -286 -2 -329
-15 -325 -8 4 -17 2 -20 -3 -4 -6 1 -10 9 -10 9 0 16 -4 16 -10 0 -5 -7 -10
-16 -10 -8 0 -12 -5 -9 -10 4 -6 10 -8 15 -5 5 3 11 1 15 -5 3 -5 -1 -10 -9
-10 -9 0 -16 -4 -16 -10 0 -5 6 -9 13 -7 9 1 13 -27 15 -108 4 -145 1 -155
-43 -155 -36 0 -48 -15 -17 -23 13 -4 11 -5 -5 -6 -13 0 -23 -5 -23 -10 0 -5
9 -7 20 -4 11 3 20 0 20 -6 0 -6 -9 -11 -19 -11 -11 0 -23 -4 -26 -10 -3 -5
-24 -10 -46 -10 -22 0 -48 -4 -58 -10 -10 -5 -103 -12 -206 -16 -151 -5 -189
-3 -196 8 -7 10 -9 10 -9 1 0 -7 -8 -13 -19 -13 -14 0 -17 6 -13 26 3 19 1 25
-7 20 -6 -4 -11 -17 -11 -29 0 -16 -3 -18 -12 -9 -7 7 -18 12 -26 12 -8 0 -22
10 -32 22 -17 21 -18 56 -19 510 -1 362 2 494 11 515 18 42 44 63 77 63 17 0
34 7 39 16 7 13 48 18 213 30 112 8 209 16 214 18 20 8 104 6 128 -3z m-4463
-203 c9 -23 9 -23 10 2 l1 25 10 -25 c7 -17 7 -26 0 -28 -8 -3 -10 -183 -9
-580 l3 -577 5 570 5 570 1 -605 c1 -333 -2 -589 -6 -570 -7 32 -7 31 -9 -18
-1 -33 3 -51 9 -47 6 3 10 1 10 -4 0 -6 -5 -11 -11 -11 -8 0 -7 -6 2 -17 12
-15 12 -16 -1 -8 -13 8 -13 7 -1 -8 7 -9 10 -17 5 -17 -5 0 -8 -154 -6 -347 2
-354 1 -373 -35 -411 -11 -11 -13 -10 -14 5 0 13 -3 10 -10 -8 -9 -25 -59 -48
-59 -28 0 5 9 9 20 9 24 0 27 15 4 24 -14 5 -14 7 0 22 9 8 20 12 26 9 5 -3
10 -1 10 5 0 16 -31 25 -40 10 -5 -9 -9 -9 -14 -1 -4 6 3 15 16 20 18 8 19 10
5 10 -10 1 -20 7 -23 15 -3 8 -29 16 -69 20 -36 4 -72 9 -80 12 -10 4 -15 0
-15 -13 0 -22 35 -44 65 -40 11 1 20 -4 20 -11 0 -7 6 -17 14 -21 9 -6 5 -8
-14 -8 -14 0 -32 -6 -38 -12 -8 -8 -6 -11 8 -11 19 -1 19 -1 2 -11 -11 -6 -30
-9 -43 -6 -14 2 -27 0 -30 -4 -10 -18 -25 -8 -22 14 3 22 -3 24 -33 12 -21 -8
-50 21 -42 42 5 12 3 14 -8 8 -11 -7 -11 -5 1 10 14 17 13 18 -7 13 -13 -4
-23 -2 -23 3 0 5 6 9 14 9 19 0 27 43 21 110 -2 30 -5 252 -5 493 -1 340 -3
436 -13 430 -7 -4 -6 0 2 11 9 10 11 20 5 26 -5 5 -8 170 -6 387 l3 378 187
96 c103 53 188 97 190 98 1 0 7 -9 12 -21z m6210 -323 c9 -18 21 -30 29 -27 7
2 37 -19 66 -48 38 -38 52 -58 49 -73 -4 -18 -3 -19 4 -4 7 16 15 11 69 -38
34 -31 65 -64 68 -75 4 -11 12 -20 19 -20 12 0 201 -168 239 -212 9 -11 17
-31 17 -44 0 -12 5 -26 11 -30 8 -4 9 1 4 16 -10 33 6 24 90 -50 l74 -65 -2
-464 -2 -464 -25 -4 c-14 -2 -32 -10 -40 -18 -13 -13 -9 -15 28 -15 47 0 56
-16 15 -26 -16 -4 -33 -11 -39 -15 -30 -24 -83 6 -84 46 0 11 3 15 8 9 8 -12
52 -14 52 -2 0 4 -5 8 -11 8 -5 0 -7 6 -3 13 4 6 4 9 -1 5 -4 -4 -15 -2 -23 5
-13 9 -14 9 -8 0 4 -7 3 -13 -2 -13 -11 0 -22 34 -22 68 0 13 -4 20 -10 17 -6
-4 -10 -12 -9 -18 3 -28 -3 -32 -46 -29 l-45 4 -1 122 c0 66 -1 148 -1 181 0
43 -2 50 -6 25 -5 -33 -5 -34 -12 -10 -6 20 -7 15 -8 -20 0 -25 5 -51 10 -57
7 -9 7 -13 -2 -13 -7 0 -11 -13 -10 -32 1 -18 2 -77 1 -132 -1 -91 -2 -97 -18
-85 -9 8 -14 9 -10 2 5 -7 -3 -14 -22 -18 -16 -3 -32 -13 -35 -21 -3 -8 -13
-14 -23 -13 -16 0 -16 1 1 8 20 7 19 8 0 13 -19 5 -21 13 -20 137 1 72 -2 131
-6 131 -5 0 -8 -58 -8 -129 0 -129 -5 -165 -20 -156 -5 3 -11 1 -14 -4 -3 -5
-16 -7 -29 -4 -13 4 -18 2 -14 -3 5 -5 22 -9 39 -9 20 0 32 -5 33 -15 2 -11
-9 -15 -41 -17 -24 -1 -44 2 -44 7 0 9 -26 7 -36 -3 -4 -4 -11 -7 -16 -7 -4 0
-8 205 -8 455 0 250 -3 455 -8 455 -4 0 -7 -29 -6 -65 0 -36 -3 -65 -8 -65 -5
0 -6 -6 -1 -12 8 -15 7 -304 -2 -319 -4 -5 -2 -9 3 -9 4 0 6 -22 2 -49 -3 -28
-3 -48 2 -45 4 3 8 0 8 -5 0 -6 -4 -11 -9 -11 -5 0 -9 -67 -8 -152 0 -146 -1
-152 -21 -159 -13 -5 -24 -4 -28 3 -5 7 -2 8 6 3 9 -5 11 -4 6 4 -11 17 -29 2
-23 -19 3 -11 -1 -21 -8 -24 -11 -4 -14 24 -15 132 -3 333 -7 462 -13 469 -4
3 -7 -118 -7 -270 0 -176 -4 -278 -10 -282 -6 -4 -8 -11 -5 -16 3 -5 0 -6 -8
-3 -8 3 -19 -2 -26 -10 -7 -8 -20 -12 -29 -9 -9 3 -14 3 -11 -1 11 -12 -36
-56 -59 -56 -11 0 -23 -6 -25 -12 -3 -7 -6 -4 -6 6 -1 11 -4 16 -8 13 -9 -9
-32 25 -26 39 2 6 13 10 24 7 13 -4 19 0 19 12 0 12 -6 16 -20 12 -18 -5 -20
0 -21 51 -1 51 -2 53 -9 22 -6 -27 -8 -18 -9 43 0 45 3 77 9 77 6 0 10 9 10
20 0 11 -4 20 -10 20 -16 0 -14 730 3 731 10 0 10 2 0 6 -10 4 -13 105 -13
460 l0 455 98 -92 c53 -51 104 -107 112 -125z m-7570 168 c0 -21 2 -123 5
-226 l4 -189 -152 -74 c-156 -76 -173 -82 -161 -62 4 7 3 8 -5 4 -6 -4 -9 -11
-6 -16 7 -11 -21 -21 -42 -14 -12 4 -14 3 -6 -3 17 -12 -357 -198 -383 -191
-11 3 -26 -1 -33 -9 -7 -8 -20 -12 -28 -9 -8 3 -11 1 -8 -4 3 -6 0 -10 -8 -10
-8 0 -20 -7 -27 -15 -7 -8 -21 -15 -31 -15 -11 0 -16 -5 -14 -12 3 -8 -11 -20
-35 -30 -22 -9 -40 -12 -40 -7 0 5 6 9 13 9 9 0 9 2 -1 9 -10 6 -12 54 -10
220 3 200 4 213 23 226 11 8 27 20 35 27 8 8 76 43 150 78 74 35 268 128 430
207 162 78 303 143 313 143 13 0 17 -8 17 -37z m940 -54 c0 -5 -4 -7 -10 -4
-6 4 -10 -7 -10 -24 0 -17 3 -31 8 -31 5 0 8 -1543 3 -1614 -1 -5 -7 -3 -15 3
-7 6 -28 10 -47 8 -27 -2 -33 -7 -31 -22 7 -38 62 -55 62 -19 0 8 5 14 10 14
6 0 10 -2 10 -4 0 -2 3 -12 7 -22 3 -10 2 -15 -3 -12 -5 4 -9 -5 -9 -18 0 -13
5 -22 11 -20 6 2 11 -11 12 -35 2 -35 -9 -52 -21 -31 -2 4 -2 2 -1 -5 2 -7 -1
-15 -6 -18 -6 -4 -10 -1 -10 6 0 7 -3 9 -6 6 -4 -3 -16 -1 -28 5 -19 10 -20
10 -7 -5 12 -15 11 -17 -10 -19 -13 0 -28 -2 -34 -3 -5 -2 -23 -3 -38 -4 l-29
-1 32 -31 c24 -25 34 -29 43 -20 9 10 9 12 -2 9 -7 -2 -15 2 -18 8 -2 7 11 14
31 18 19 4 36 10 38 15 2 5 17 6 34 4 29 -5 31 -7 30 -49 0 -32 -3 -41 -12
-33 -8 7 -13 3 -18 -13 -4 -16 0 -28 14 -40 18 -14 21 -30 23 -112 1 -53 -1
-96 -5 -96 -5 0 -8 7 -8 15 0 9 -6 12 -15 9 -8 -4 -13 -10 -10 -14 3 -5 1 -11
-5 -15 -5 -3 -10 -1 -10 5 0 6 -4 8 -10 5 -5 -3 -10 -1 -10 4 0 6 -9 11 -19
11 -11 0 -21 5 -23 12 -3 9 -13 9 -39 1 -19 -6 -26 -11 -17 -12 10 -1 16 -9
15 -21 -1 -11 -7 -18 -13 -16 -20 8 -24 -5 -8 -22 14 -13 17 -13 25 -1 5 8 9
11 9 7 0 -3 3 -13 6 -21 4 -12 -4 -15 -43 -13 -46 1 -48 2 -51 31 -2 20 0 26
6 17 7 -10 11 -10 22 3 10 12 10 15 -3 15 -9 0 -23 7 -32 16 -12 13 -19 14
-28 5 -6 -6 -22 -11 -37 -10 -14 0 -19 3 -12 6 26 10 10 20 -28 17 -22 -2 -42
2 -46 7 -11 19 15 33 58 30 33 -2 39 1 31 11 -9 10 -4 13 23 15 37 2 39 0 24
-28 -7 -13 -7 -19 0 -19 5 0 10 7 10 15 0 19 37 38 57 30 9 -3 20 -1 23 6 5 7
13 5 26 -9 11 -10 34 -22 53 -26 l34 -6 -23 20 c-12 11 -27 17 -33 13 -5 -3
-16 2 -24 13 -11 15 -17 16 -32 7 -14 -9 -21 -9 -30 0 -15 15 -14 40 2 31 8
-5 8 -2 -2 9 -19 24 -38 21 -71 -12 -22 -22 -30 -25 -34 -14 -4 8 -4 19 -1 23
9 15 -45 3 -64 -14 -21 -19 -67 -18 -63 2 1 8 -11 12 -33 12 -26 0 -35 4 -35
16 0 14 -3 14 -15 4 -13 -11 -15 -1 -15 84 0 91 1 97 23 106 12 5 16 9 10 9
-23 2 -14 31 10 31 18 0 19 2 7 11 -11 8 -5 9 24 5 22 -3 44 -10 50 -16 7 -7
7 -11 1 -10 -5 2 -23 2 -40 1 l-30 -2 32 -14 c19 -8 48 -11 74 -8 l42 6 -5
-32 c-5 -34 6 -40 36 -18 14 10 15 18 7 40 -8 21 -17 27 -41 27 -16 0 -30 4
-30 9 0 18 65 30 72 13 5 -13 88 -24 88 -12 0 5 -19 10 -42 11 l-43 1 38 12
c50 15 39 25 -18 16 -25 -4 -47 -5 -50 -2 -10 10 -104 12 -110 2 -4 -7 -12 -7
-27 1 -16 9 -24 7 -44 -12 -13 -12 -27 -19 -31 -15 -4 4 -1 11 7 16 10 7 11
10 3 10 -7 0 -13 4 -13 9 0 4 11 6 25 3 16 -3 25 0 25 8 0 10 3 10 15 0 12
-10 15 -8 20 12 7 30 2 65 -13 80 -9 9 -13 4 -18 -21 -5 -21 -10 -29 -17 -22
-5 5 -16 7 -25 4 -10 -4 -13 -2 -10 8 3 8 11 13 17 11 6 -1 11 11 11 28 0 23
-4 30 -20 30 -19 0 -20 7 -20 218 0 119 -3 395 -7 612 -7 439 -2 526 28 535
10 4 26 14 35 23 18 18 440 238 462 241 6 0 12 -4 12 -10z m-596 -341 c3 -24
7 -323 10 -665 4 -608 4 -623 -15 -623 -16 0 -19 -7 -19 -40 0 -33 -3 -40 -20
-40 -15 0 -20 7 -21 28 0 23 -1 24 -8 7 -5 -11 -6 -26 -3 -33 2 -8 -5 -16 -17
-19 -21 -5 -27 -27 -15 -58 6 -14 10 -12 26 12 11 15 18 21 15 11 -7 -20 26
-30 59 -18 19 8 24 6 24 -6 0 -8 -4 -12 -10 -9 -5 3 -10 1 -10 -4 0 -6 5 -11
10 -11 6 0 10 -9 10 -20 0 -11 -6 -20 -14 -20 -7 0 -19 -7 -26 -15 -10 -12 -9
-15 8 -15 11 0 23 6 25 13 3 6 6 -3 6 -20 1 -36 -5 -41 -23 -19 -6 7 -27 16
-46 20 -19 3 -30 3 -23 -2 6 -4 13 -14 15 -21 2 -8 11 -23 21 -33 14 -14 22
-16 37 -8 14 7 20 7 20 0 0 -5 -6 -10 -12 -11 -10 0 -10 -2 0 -6 17 -7 15 -50
-3 -57 -8 -3 -31 1 -52 9 l-38 15 42 -2 c23 -1 45 1 49 5 4 4 -6 8 -22 9 -16
0 -36 2 -44 2 -15 2 -30 -12 -30 -26 0 -5 6 -8 13 -8 17 0 49 -38 37 -45 -5
-3 -12 0 -17 7 -4 7 -15 14 -23 15 -8 1 -27 5 -42 9 -21 5 -28 3 -28 -9 0 -8
6 -17 13 -20 9 -3 8 -9 -5 -22 -21 -22 -41 -10 -35 21 3 19 2 22 -9 13 -8 -6
-21 -9 -29 -5 -9 3 -13 2 -10 -4 3 -6 -5 -10 -19 -10 -18 0 -24 4 -20 15 4 8
10 12 15 9 5 -3 9 4 9 15 0 12 3 21 8 21 4 0 18 3 32 6 20 4 22 3 10 -5 -12
-9 -10 -11 13 -11 25 0 27 2 13 15 -8 8 -19 15 -25 15 -6 0 -11 9 -11 20 0 32
-38 26 -42 -7 -2 -14 -8 -28 -14 -30 -7 -2 -11 21 -12 71 -1 71 0 74 21 68 12
-2 28 -9 35 -15 8 -6 12 -6 12 1 0 10 -32 25 -55 27 -14 0 -19 145 -5 145 8 0
8 6 0 21 -6 11 -9 28 -7 37 3 13 7 9 17 -13 28 -65 34 -75 47 -75 7 0 13 -9
13 -20 0 -13 7 -20 19 -20 11 0 26 -3 35 -6 10 -4 16 -1 16 9 0 9 -8 18 -19
22 -14 4 -20 18 -23 59 -5 64 -29 96 -58 78 -52 -32 -59 53 -60 756 0 280 -3
421 -10 417 -5 -3 -10 -4 -10 -1 0 8 271 145 287 145 7 1 14 -18 17 -41z
m-1371 -85 c3 -16 6 -120 7 -233 l1 -205 -116 -58 c-116 -57 -142 -67 -129
-45 4 7 3 8 -5 4 -6 -4 -9 -12 -6 -17 8 -12 -40 -30 -62 -23 -13 4 -14 3 -5
-3 9 -7 -34 -32 -140 -83 -84 -41 -244 -118 -356 -172 -112 -54 -212 -98 -223
-98 -15 0 -19 7 -19 35 0 20 -5 35 -12 35 -6 0 -3 7 8 15 18 14 18 14 -3 8
-25 -6 -26 -11 -14 -65 7 -28 5 -38 -5 -42 -12 -4 -14 33 -14 222 0 150 4 222
10 212 6 -9 10 -10 10 -3 0 6 -5 15 -11 19 -13 8 26 33 53 34 9 0 20 5 24 12
5 7 2 8 -7 3 -10 -6 -11 -5 -4 3 19 20 526 252 537 246 6 -4 8 -3 5 2 -6 10
425 221 454 223 11 1 19 -9 22 -26z m1039 -435 c0 -222 2 -481 2 -575 1 -108
-3 -172 -9 -170 -5 1 -8 13 -6 26 2 15 -1 21 -8 17 -6 -4 -11 -2 -11 3 0 6 -4
11 -9 11 -14 0 -21 -43 -10 -56 6 -8 7 -20 2 -31 -5 -10 -8 -39 -7 -64 2 -44
1 -46 -27 -46 -22 0 -26 3 -18 13 7 9 5 15 -8 23 -14 8 -15 13 -5 19 16 11 11
40 -11 72 -12 17 -17 44 -17 87 0 50 -3 63 -15 63 -9 0 -18 7 -21 15 -4 11
-21 15 -55 15 -37 0 -49 -4 -49 -15 0 -8 -9 -15 -20 -15 -18 0 -20 -7 -20 -85
l0 -85 28 0 c15 0 41 8 57 18 27 17 32 17 53 4 18 -12 22 -23 22 -64 0 -46 2
-50 21 -45 15 4 19 2 15 -10 -3 -8 -6 -20 -6 -26 0 -8 -3 -7 -9 1 -7 11 -9 11
-14 -2 -5 -12 0 -16 18 -16 38 0 37 -15 -1 -16 -19 -1 -34 3 -34 7 0 14 -23
11 -48 -7 -16 -11 -20 -20 -13 -31 11 -21 2 -53 -16 -53 -12 0 -12 -2 1 -16
23 -22 20 -31 -14 -43 -30 -10 -41 -23 -17 -20 6 1 29 1 50 0 34 -1 37 -3 37
-31 0 -32 6 -36 30 -20 12 8 12 10 -5 10 -13 0 -16 3 -8 8 14 9 -3 36 -27 44
-8 2 5 8 29 12 27 4 48 3 54 -3 16 -16 0 -26 -18 -11 -9 7 -18 10 -22 6 -3 -3
-1 -6 5 -6 7 0 12 -6 12 -14 0 -9 12 -16 33 -18 19 -2 31 -8 30 -15 -3 -13 12
-17 61 -13 23 1 28 -2 23 -14 -4 -10 -1 -16 8 -16 19 0 19 -9 -2 -32 -32 -36
-102 -13 -91 30 4 14 -1 18 -28 19 -19 0 -31 -3 -28 -8 3 -5 14 -9 25 -9 10 0
19 -4 19 -10 0 -5 -22 -8 -49 -7 -27 1 -47 5 -44 10 2 4 -14 7 -37 7 -28 0
-39 4 -34 11 4 8 -4 9 -27 4 -19 -4 -36 -11 -39 -16 -3 -5 -22 -3 -43 3 -20 6
-34 15 -31 19 3 5 -2 6 -10 3 -8 -3 -12 -12 -10 -19 4 -9 -5 -13 -31 -13 -28
0 -35 3 -31 15 5 12 1 14 -21 8 -16 -4 -47 -7 -70 -6 -23 1 -45 -3 -48 -9 -9
-15 -45 -12 -51 5 -7 18 -41 20 -46 3 -7 -21 -40 19 -36 44 l3 23 23 -22 c14
-15 22 -18 22 -10 0 8 -11 20 -25 27 -14 7 -25 19 -25 27 0 9 5 11 18 4 9 -5
25 -12 35 -15 11 -3 17 -16 17 -33 0 -23 2 -25 11 -13 8 11 12 12 16 3 3 -8
24 -13 56 -12 64 1 99 11 89 24 -9 13 -44 16 -36 3 4 -7 0 -7 -12 0 -20 10
-45 5 -55 -11 -10 -14 -19 7 -10 21 4 7 23 14 42 16 19 2 49 7 67 10 31 7 32
6 32 -23 0 -24 4 -31 20 -31 11 0 19 3 19 8 -3 19 2 33 11 27 6 -3 10 3 10 14
0 12 -4 21 -10 21 -5 0 -9 -5 -7 -11 1 -6 -3 -13 -9 -16 -10 -3 -17 10 -29 52
-1 6 17 11 41 13 37 2 44 0 44 -15 0 -15 2 -15 9 -4 5 8 23 14 40 14 23 0 31
5 31 19 0 10 -6 18 -14 18 -7 0 -19 6 -25 14 -11 14 -45 11 -66 -4 -5 -4 -21
-3 -35 2 -20 7 -22 11 -10 18 13 8 12 10 -2 10 -12 0 -18 -8 -18 -21 0 -11 5
-17 10 -14 6 3 10 -1 10 -9 0 -32 -46 -11 -69 32 -9 17 -9 22 1 22 8 0 6 5 -4
11 -23 13 -74 1 -59 -14 14 -14 14 -57 1 -57 -5 0 -9 3 -8 8 3 16 -15 61 -23
56 -5 -3 -9 -1 -9 4 0 13 25 22 57 22 15 0 23 3 19 8 -4 4 -11 7 -15 7 -11 0
-36 27 -46 50 -7 16 -10 12 -14 -25 -6 -46 -21 -57 -48 -37 -9 6 -18 5 -28 -3
-12 -10 -15 -10 -15 3 0 8 3 23 6 31 5 14 9 14 22 4 13 -11 15 -9 9 24 -5 34
-3 39 18 44 16 4 22 11 18 21 -5 12 -7 12 -14 1 -6 -8 -9 -1 -9 23 0 44 -4 49
-38 40 -23 -6 -26 -13 -28 -52 -2 -64 -7 -62 -14 6 -8 83 -12 738 -4 769 4 17
17 29 39 38 19 6 32 15 29 20 -4 6 658 346 679 347 4 1 8 -180 9 -401z m8457
-71 c41 -34 86 -72 100 -83 23 -20 26 -29 25 -85 -2 -62 -1 -63 5 -14 5 41 8
46 14 27 5 -12 13 -19 19 -16 6 4 5 9 -3 15 -7 4 -11 11 -7 14 6 6 128 -95
180 -148 35 -37 40 -74 36 -262 l-3 -150 -30 -9 c-16 -4 -41 -13 -55 -18 -14
-6 -46 -12 -72 -13 l-48 -4 -2 267 -3 267 -2 -267 c-3 -254 -4 -268 -22 -268
-21 0 -37 -54 -25 -84 4 -11 1 -16 -10 -16 -9 0 -16 -4 -16 -10 0 -5 6 -7 13
-4 8 3 19 -2 26 -10 10 -12 9 -14 -9 -9 -11 3 -20 2 -19 -3 4 -23 -3 -31 -31
-32 -16 0 -30 4 -30 9 0 5 -20 9 -45 9 -26 0 -45 5 -45 11 0 6 7 9 15 5 8 -3
15 -2 15 3 0 5 -9 11 -21 14 -15 4 -20 13 -19 34 1 15 1 30 0 33 -1 3 -3 101
-4 218 -2 117 -6 215 -9 219 -4 3 -7 -95 -7 -219 0 -206 -2 -226 -17 -233 -17
-6 -17 -7 -1 -19 20 -14 14 -28 -8 -19 -8 3 -14 18 -14 34 0 16 -4 29 -9 29
-5 0 -9 196 -10 463 l-1 462 37 -38 c21 -20 71 -65 112 -100z m-9285 11 c9
-68 12 -737 4 -731 -9 5 -11 -20 -8 -80 1 -31 -3 -39 -22 -46 -13 -4 -29 -6
-35 -4 -7 3 -13 0 -13 -7 0 -8 -7 -9 -17 -5 -10 4 -23 8 -30 9 -22 4 -27 16
-7 17 10 0 13 3 7 6 -7 2 -13 9 -13 14 0 6 5 7 10 4 6 -4 10 7 10 24 0 17 3
31 6 31 18 0 44 -24 44 -40 0 -11 4 -20 9 -20 11 0 7 92 -4 110 -3 6 -10 8
-15 5 -5 -3 -10 5 -12 17 -2 15 -11 24 -26 26 -13 2 -25 9 -27 15 -3 7 -6 152
-7 322 l-3 310 60 32 c33 18 65 32 72 33 6 0 14 -19 17 -42z m14611 -215 c-8
-288 -10 -318 -20 -350 l-7 -22 -57 20 c-31 11 -63 23 -71 26 -8 4 -17 7 -20
8 -47 16 -49 27 -16 93 24 49 114 273 162 405 16 42 30 77 32 77 2 0 1 -116
-3 -257z m295 221 c0 -2 -16 -53 -36 -114 l-36 -110 -54 0 c-30 0 -54 2 -54 4
0 2 -9 48 -20 102 -11 54 -18 104 -16 111 7 17 216 24 216 7z m-16276 -65 c3
-17 6 -118 6 -223 l-1 -191 -42 -18 c-23 -10 -53 -25 -67 -32 -28 -15 -57 -5
-45 15 4 7 17 9 33 5 22 -5 24 -4 13 9 -8 9 -21 16 -30 16 -9 0 5 11 31 25 26
14 53 25 60 24 7 0 2 -6 -12 -12 -14 -6 -32 -18 -40 -26 -13 -13 -13 -14 2 -8
10 3 20 2 23 -3 9 -14 37 1 31 17 -4 8 3 17 17 23 19 7 19 9 3 9 -15 1 -16 4
-6 16 9 10 9 15 1 15 -6 0 -11 -5 -11 -11 0 -6 -9 -8 -20 -4 -11 3 -20 2 -20
-3 0 -5 -9 -12 -20 -15 -11 -3 -20 -2 -20 3 0 4 -11 11 -25 14 -21 5 -24 10
-15 26 14 26 13 29 -12 41 -23 9 -23 10 -1 5 13 -2 24 2 28 12 7 18 -12 33
-33 25 -10 -4 -9 0 4 15 22 26 25 27 18 7 -5 -11 -2 -13 10 -9 9 3 16 1 16 -5
0 -6 5 -11 12 -11 6 0 4 7 -5 18 -10 10 -14 22 -11 25 4 4 -1 9 -10 13 -9 3
-16 14 -17 23 0 13 -2 12 -8 -3 -5 -14 -10 -16 -15 -7 -5 7 -1 20 9 31 14 16
15 23 6 34 -17 20 -4 41 15 25 12 -10 13 -9 8 5 -5 13 -2 15 12 10 11 -4 16
-4 13 0 -4 4 -19 9 -34 12 -19 3 -24 1 -19 -7 5 -9 2 -10 -9 -6 -12 4 -17 1
-18 -11 0 -12 -2 -13 -6 -3 -5 11 -7 11 -14 0 -7 -11 -9 -10 -9 4 0 20 -1 20
-35 7 -17 -7 -24 -7 -20 0 3 6 12 10 18 11 7 0 57 22 112 49 122 59 140 61
149 19z m16416 -284 c52 -272 56 -305 41 -305 -6 0 -11 -5 -11 -11 0 -5 4 -7
10 -4 6 3 7 -1 3 -10 -4 -12 -8 -13 -13 -5 -4 7 -13 9 -19 6 -6 -4 -14 1 -18
10 -4 10 -2 19 5 22 19 6 14 22 -7 22 -11 0 -18 -7 -18 -17 0 -10 -2 -27 -3
-38 -6 -43 -16 77 -18 215 -1 80 -4 210 -7 290 -3 99 -1 129 4 95 5 -27 28
-149 51 -270z m-15243 -119 l5 -406 -27 -10 c-23 -9 -25 -13 -15 -25 7 -8 18
-15 24 -14 7 0 6 2 -1 6 -7 2 -13 9 -13 14 0 5 11 4 24 -2 19 -9 22 -14 13
-24 -6 -6 -19 -10 -29 -7 -10 2 -20 -2 -24 -12 -3 -9 -14 -16 -24 -16 -11 0
-22 -4 -25 -10 -3 -5 -13 -10 -21 -10 -9 0 -12 5 -8 11 10 16 12 137 2 152 -6
9 -8 7 -8 -5 0 -9 -5 -18 -10 -20 -6 -2 -11 -32 -12 -68 -1 -36 -6 -68 -12
-72 -16 -11 -66 -10 -66 2 0 5 10 9 21 7 21 -2 22 2 20 78 -1 44 -7 82 -12 83
-5 2 -7 8 -4 12 3 5 12 7 20 3 27 -10 75 17 75 43 0 12 -5 26 -10 29 -6 4 -8
10 -5 15 7 12 -21 20 -70 20 -36 0 -45 -4 -51 -22 -4 -13 -7 -28 -6 -34 2 -7
-16 -13 -43 -16 -25 -2 -45 0 -45 4 0 5 -7 8 -15 8 -8 0 -15 7 -15 16 0 12 7
15 29 12 17 -2 28 -1 25 4 -3 4 -32 8 -65 8 l-59 0 0 -34 c0 -28 4 -35 23 -38
18 -3 17 -5 -9 -9 -26 -4 -30 -2 -26 13 2 10 -1 18 -7 18 -6 0 -10 3 -10 8 5
31 -3 42 -31 42 -32 0 -37 9 -18 28 9 9 9 12 0 12 -7 0 -12 -6 -12 -12 0 -9
-4 -8 -11 2 -9 13 -10 12 -5 -2 6 -19 -9 -25 -19 -8 -3 6 -19 10 -36 10 -32 0
-34 3 -19 31 14 26 -2 24 -18 -2 -7 -11 -19 -18 -27 -15 -7 2 -19 -2 -26 -10
-6 -8 -14 -12 -17 -9 -3 3 -11 0 -19 -7 -11 -8 -17 -8 -26 2 -10 10 -9 12 4 7
9 -3 22 0 28 6 16 16 14 32 -2 19 -16 -14 -79 -22 -107 -15 -14 4 -19 11 -15
22 4 10 -2 7 -15 -7 -17 -18 -25 -20 -35 -12 -8 7 -19 9 -24 6 -5 -4 -12 -2
-16 4 -10 17 -38 12 -31 -6 3 -8 2 -12 -4 -9 -14 9 -12 32 3 38 6 2 20 0 29
-5 13 -6 18 -5 18 4 0 8 5 6 11 -4 14 -25 32 -23 19 2 -8 14 -21 20 -47 20
-29 0 -33 2 -24 14 10 12 9 14 -6 11 -10 -2 -24 -4 -31 -4 -7 -1 -10 -5 -7
-11 3 -5 1 -10 -6 -10 -8 0 -8 -5 2 -17 7 -10 9 -15 5 -11 -5 4 -15 0 -23 -10
-8 -9 -12 -11 -8 -4 14 27 15 62 3 62 -9 0 -8 3 2 10 13 8 12 10 -4 10 -15 0
-17 -6 -14 -29 2 -17 1 -28 -4 -25 -4 3 -8 16 -8 30 0 19 10 29 45 46 24 12
42 25 40 28 -2 4 82 49 188 100 106 52 322 158 481 237 159 78 292 141 294
138 2 -2 6 -186 9 -409z m14977 91 c-4 -20 -3 -27 5 -23 6 4 11 16 11 27 0 21
8 26 52 33 17 3 36 -2 48 -12 19 -15 21 -26 18 -117 l-3 -100 -49 -9 c-58 -10
-59 -10 -75 87 -7 40 -17 82 -22 95 -14 37 -11 62 7 55 11 -4 13 -13 8 -36z
m-5009 -51 c33 -28 67 -57 75 -66 8 -9 28 -24 43 -34 15 -9 25 -21 22 -26 -3
-5 0 -12 6 -16 8 -4 9 -3 5 4 -14 24 8 11 63 -35 58 -49 73 -65 66 -71 -8 -8
-121 -8 -137 0 -13 6 -18 5 -18 -7 0 -8 -4 -15 -10 -15 -6 0 -10 33 -10 80 0
44 -3 80 -8 80 -4 0 -6 -33 -4 -74 5 -90 -1 -95 -110 -98 l-73 -3 -3 179 c-2
170 -2 178 15 165 10 -7 45 -36 78 -63z m-3265 -57 c0 -5 7 -9 16 -9 9 0 33
-5 53 -11 55 -17 79 -76 87 -209 4 -64 2 -115 -4 -130 -6 -14 -11 -19 -11 -12
-1 7 -14 12 -31 12 -16 0 -30 4 -30 8 0 13 -36 7 -56 -9 -9 -8 -27 -13 -38
-12 -17 2 -18 1 -4 -5 15 -6 16 -11 5 -32 -7 -14 -23 -26 -35 -28 -18 -3 -22
1 -22 22 0 14 5 28 11 32 8 4 8 8 0 13 -6 4 -11 55 -12 128 -1 78 -6 120 -12
116 -6 -4 -7 -1 -1 8 14 22 14 109 0 109 -9 0 -13 -46 -15 -177 -2 -167 -3
-179 -23 -194 -15 -11 -17 -18 -8 -21 10 -3 10 -8 0 -27 -9 -17 -14 -20 -20
-11 -4 7 -13 9 -19 6 -6 -4 -11 0 -11 8 0 9 -5 16 -11 16 -6 0 -9 9 -6 19 4
16 -2 21 -24 26 l-29 7 -1 131 c-1 73 -2 151 -2 175 0 28 -5 42 -13 42 -11 0
-14 -39 -16 -177 -3 -174 -4 -178 -25 -188 -13 -5 -23 -13 -23 -17 0 -5 -4 -8
-10 -8 -5 0 -7 7 -4 15 8 20 -23 20 -42 0 -11 -10 -21 -12 -32 -6 -25 14 -73
9 -61 -6 6 -6 22 -10 37 -8 15 2 21 2 15 -1 -7 -3 -13 -12 -13 -19 0 -23 -20
-28 -40 -10 -14 13 -19 13 -24 3 -3 -7 -4 58 -2 144 3 125 8 167 22 203 11 25
25 45 32 45 6 0 12 5 12 10 0 6 15 10 33 10 18 0 37 4 43 9 16 16 364 25 364
10z m9390 -137 c0 -4 -5 -13 -12 -20 -9 -9 -9 -12 0 -12 7 0 12 -5 12 -10 0
-6 -11 -8 -25 -4 -15 4 -25 2 -25 -5 0 -6 -12 -11 -27 -12 -34 -1 -79 -17 -50
-18 9 -1 17 -5 17 -11 0 -11 30 -13 54 -4 9 3 14 10 11 14 -3 5 9 11 26 15 19
4 33 15 36 26 5 19 29 25 49 11 18 -12 23 -39 14 -71 -7 -24 -5 -31 6 -31 8 0
14 -4 14 -10 0 -12 -20 -12 -78 -1 -36 7 -45 6 -50 -8 -3 -9 -13 -21 -21 -28
-18 -14 -91 -17 -91 -4 0 5 -9 11 -20 14 -18 5 -26 29 -21 60 1 5 -3 6 -8 2
-6 -3 -8 -11 -6 -18 4 -8 -11 -13 -45 -14 -27 -2 -50 1 -50 5 0 5 -24 5 -52 1
-100 -14 -118 -8 -83 27 9 9 15 11 15 4 0 -8 6 -8 21 1 16 8 18 13 9 19 -20
13 -3 40 25 40 14 0 25 -4 25 -10 0 -5 -4 -10 -9 -10 -5 0 -11 -9 -14 -19 -4
-17 -2 -18 20 -10 31 12 36 11 27 -2 -6 -10 12 -29 29 -29 13 0 3 24 -18 44
-20 18 -20 18 2 12 12 -4 24 -2 27 3 4 5 -7 12 -24 16 -17 4 -27 11 -24 16 4
6 11 6 20 -2 7 -6 20 -9 29 -6 21 9 26 -5 15 -42 -8 -29 -7 -30 11 -21 11 6
24 8 29 5 5 -3 7 1 4 9 -3 9 3 17 18 22 13 4 29 15 36 25 7 11 25 19 40 19 21
0 23 -3 12 -10 -21 -13 -10 -19 23 -13 15 3 36 16 45 29 17 23 32 31 32 16z
m-2440 -41 c0 -5 27 -8 59 -7 33 1 57 -2 55 -5 -2 -4 0 -10 6 -14 5 -3 10 1
10 10 0 9 5 13 10 10 6 -3 10 -1 10 4 0 6 7 11 15 11 8 0 15 -5 15 -11 0 -5 5
-7 10 -4 6 4 10 -7 10 -27 0 -45 9 -54 50 -52 60 2 67 5 40 16 -23 10 -18 12
43 20 73 10 83 8 73 -17 -4 -12 -15 -14 -48 -10 -24 3 -36 3 -28 -1 8 -3 25
-10 37 -16 24 -12 107 -15 207 -7 42 3 61 0 63 -8 3 -8 -5 -13 -19 -14 -12 0
-39 -2 -58 -5 -19 -2 -64 -6 -100 -8 -36 -3 -67 -6 -70 -7 -3 -1 -9 0 -15 1
-19 5 -79 -1 -90 -9 -17 -13 -121 -23 -250 -23 -66 0 -124 -4 -130 -8 -11 -9
-65 -9 -65 0 0 8 52 28 93 35 20 4 37 11 37 16 0 12 -17 11 -41 -1 -15 -8 -22
-6 -36 10 -10 11 -27 19 -38 19 -16 -1 -16 -2 -3 -6 9 -2 16 -12 15 -23 -1
-13 -7 -17 -27 -14 -17 3 -21 2 -11 -5 9 -5 10 -11 3 -15 -16 -10 -34 30 -39
90 l-5 53 33 5 c19 3 63 9 99 14 36 5 68 10 73 11 4 0 7 -3 7 -8z m2930 -41
c0 -10 -14 -13 -65 -11 -16 0 -24 -2 -17 -5 6 -3 10 -9 7 -14 -3 -5 11 -4 30
1 41 12 62 4 44 -17 -9 -11 -8 -15 2 -18 8 -2 21 -7 29 -9 8 -3 -1 -6 -20 -8
-51 -3 -82 -6 -107 -12 -33 -8 -63 3 -63 24 0 10 5 21 10 24 16 10 12 22 -9
28 -26 6 -45 -8 -37 -28 4 -13 2 -16 -9 -11 -8 3 -14 0 -12 -7 1 -7 -10 -13
-25 -15 -17 -2 -28 1 -28 9 0 8 -16 10 -55 6 -31 -3 -55 -2 -55 4 0 5 8 9 18
9 16 1 16 1 0 14 -28 21 -21 33 17 33 19 0 32 -3 30 -6 -2 -4 3 -15 11 -26 14
-18 15 -18 44 4 26 18 48 23 133 28 56 3 104 7 106 9 8 8 21 4 21 -6z m-12795
-159 c-5 -16 0 -18 34 -17 25 0 35 4 28 9 -7 5 -4 6 8 2 11 -4 28 -7 38 -7 25
1 21 -24 -5 -33 -13 -4 -27 -7 -32 -6 -23 4 -46 -12 -46 -34 0 -15 -7 -26 -21
-30 -11 -4 -18 -9 -15 -12 7 -8 76 17 76 28 0 5 14 9 30 9 17 0 30 -4 30 -10
0 -5 -12 -10 -26 -10 -14 0 -23 -4 -19 -9 3 -5 -4 -12 -15 -16 -11 -4 -20 -15
-20 -27 0 -17 4 -19 27 -13 15 3 30 11 34 16 3 5 24 8 46 6 35 -3 39 -1 35 15
-4 16 2 18 45 18 27 0 53 -3 57 -7 7 -8 11 -9 37 -12 8 -1 8 -5 -1 -16 -10
-13 -14 -12 -28 2 -11 10 -17 12 -20 4 -5 -15 -29 -14 -35 2 -7 16 -46 -31
-47 -55 0 -10 -4 -18 -10 -18 -5 0 -10 7 -10 15 0 8 -3 15 -7 15 -12 0 -10
-54 2 -62 19 -14 -15 -9 -44 7 -16 8 -32 11 -35 7 -4 -3 -4 2 0 12 5 14 3 17
-7 14 -8 -3 -13 -11 -11 -17 2 -13 -10 -15 -23 -2 -15 13 -73 22 -80 12 -2 -5
6 -12 20 -15 16 -4 25 -13 25 -26 0 -22 -26 -28 -33 -7 -3 9 -11 9 -33 2 -40
-14 -38 -40 4 -40 17 -1 32 3 32 8 0 5 12 8 28 7 50 -4 73 0 67 10 -4 6 -11 8
-16 5 -9 -6 -45 22 -38 30 2 2 26 1 52 -2 26 -3 45 -8 42 -11 -2 -3 0 -11 6
-19 9 -10 8 -13 -1 -13 -29 0 2 -13 35 -15 33 -2 46 8 25 18 -6 3 -5 4 2 3 8
-2 12 -15 11 -32 -1 -16 1 -24 5 -18 11 16 70 37 87 30 8 -3 15 -1 15 3 0 13
-23 19 -44 11 -12 -4 -27 -1 -38 9 -32 28 -25 30 77 22 16 -1 17 -3 5 -11 -13
-8 -13 -10 0 -15 11 -4 14 -19 12 -61 -3 -44 -6 -53 -17 -44 -8 6 -40 13 -72
16 -41 3 -52 2 -38 -5 17 -8 17 -10 3 -10 -9 -1 -20 4 -23 9 -8 14 -58 13 -72
-1 -8 -8 -19 -3 -41 19 -25 26 -63 40 -82 32 -3 -1 -18 -4 -34 -6 -44 -5 -56
-12 -50 -29 3 -8 2 -15 -4 -15 -5 0 -7 -11 -4 -25 3 -18 0 -25 -11 -25 -8 0
-17 -5 -19 -12 -2 -6 -10 -8 -16 -4 -18 11 -15 26 6 26 13 0 14 2 3 9 -7 5
-11 13 -8 18 4 6 -4 8 -18 5 -14 -2 -25 -8 -25 -13 0 -5 -5 -9 -11 -9 -7 0 -9
10 -7 25 3 14 2 28 -2 30 -5 3 -6 14 -3 26 5 18 11 20 44 15 24 -4 39 -2 39 4
0 10 -26 15 -62 12 -11 -1 -15 3 -12 13 3 7 11 12 17 10 7 -2 33 -6 58 -9 37
-4 47 -1 57 15 11 17 9 19 -26 19 -21 0 -43 -5 -50 -12 -8 -8 -12 -9 -12 -1 0
6 -9 9 -20 6 -11 -3 -20 0 -20 6 0 6 8 11 18 11 21 0 64 29 44 30 -7 0 -11 4
-7 9 3 5 1 12 -5 16 -5 3 -12 -5 -16 -18 -4 -19 -10 -23 -27 -19 -12 3 -16 7
-9 10 9 3 10 7 2 17 -9 10 -4 15 18 20 24 5 29 10 25 28 -4 18 -3 19 6 7 7
-10 11 -11 11 -2 0 6 9 12 20 12 26 0 26 -17 0 -25 -11 -4 -18 -11 -15 -16 4
-5 14 -5 26 2 25 13 30 9 23 -18 -4 -13 -11 -20 -20 -16 -21 8 -17 -10 5 -24
16 -10 24 -9 43 7 13 11 18 19 11 20 -6 0 -13 -6 -16 -12 -2 -7 -7 -11 -10 -8
-7 6 29 86 37 83 14 -6 23 -2 23 11 0 7 -5 13 -11 13 -52 -1 -56 2 -56 43 0
22 5 40 10 40 6 0 10 11 10 25 0 23 4 25 41 25 35 0 40 -3 34 -19z m-5115 -72
c0 -5 4 -8 9 -5 5 3 21 -4 35 -15 25 -20 64 -20 52 0 -3 5 1 12 10 15 9 4 13
2 8 -5 -5 -8 3 -10 25 -7 37 5 37 -13 0 -23 -13 -4 -18 -7 -11 -8 6 -1 12 -5
12 -11 0 -5 -8 -7 -17 -4 -10 2 -8 -1 5 -7 33 -18 27 -31 -10 -24 -18 4 -44 2
-58 -4 -22 -9 -19 -10 23 -10 26 -1 47 -5 47 -10 0 -6 15 -11 33 -13 17 -2 32
-7 32 -13 0 -13 -58 -15 -66 -3 -3 5 -25 11 -48 13 -23 1 -44 5 -47 8 -3 3
-12 3 -20 0 -11 -4 -11 -7 0 -19 8 -7 17 -19 19 -26 4 -9 8 -10 14 -2 11 15
53 28 53 16 0 -5 -9 -12 -21 -15 -12 -3 -18 -10 -14 -16 4 -7 -3 -11 -17 -11
-13 0 -31 -7 -41 -15 -19 -14 -47 -10 -47 6 0 5 9 9 19 9 11 0 23 5 26 10 3 6
1 10 -4 10 -6 0 -11 7 -11 15 0 8 -7 15 -15 15 -13 0 -13 3 -3 20 7 11 21 20
30 20 11 0 18 7 18 18 0 15 7 18 43 16 23 -1 35 0 27 3 -8 3 -23 14 -33 24
-16 17 -20 18 -41 4 -20 -13 -25 -14 -35 -1 -8 10 -9 16 -1 21 15 10 12 23 -7
28 -14 4 -12 5 5 6 12 0 22 -4 22 -10z m3556 -65 c-3 -8 1 -22 9 -30 8 -9 15
-12 15 -8 0 4 8 0 18 -8 9 -9 26 -18 37 -22 12 -3 9 -4 -8 -2 -15 2 -30 0 -33
-5 -2 -4 -11 -6 -19 -2 -8 3 -15 0 -15 -6 0 -6 9 -11 20 -11 11 0 20 -6 20
-14 0 -8 5 -16 10 -18 6 -2 -7 -21 -29 -42 -36 -36 -44 -38 -105 -41 -37 -1
-69 1 -72 6 -3 5 -1 9 4 9 5 0 12 9 15 19 3 14 1 18 -9 14 -24 -9 -84 7 -84
22 0 8 9 15 20 15 11 0 20 -4 20 -9 0 -5 11 -8 25 -8 14 0 25 4 25 9 0 5 -4 6
-10 3 -5 -3 -10 -2 -10 3 0 10 -46 27 -65 24 -5 -1 -10 14 -11 32 0 33 1 34
39 38 21 2 41 0 44 -5 3 -5 16 2 29 14 27 25 33 17 7 -9 -16 -16 -15 -17 8
-20 30 -4 79 14 79 28 0 5 -7 10 -15 10 -8 0 -15 4 -15 9 0 4 12 7 28 4 23 -3
24 -2 7 6 -19 9 -19 10 4 10 17 1 22 -3 17 -15z m1294 -70 c0 -17 -12 -18 -28
-2 -7 7 -12 8 -12 2 0 -5 6 -16 12 -22 10 -10 10 -15 -2 -23 -12 -9 -10 -10 8
-6 12 3 22 1 22 -3 0 -5 8 -11 18 -13 14 -4 13 -5 -3 -6 -12 0 -26 -6 -33 -13
-9 -9 -12 -9 -12 0 0 7 -5 12 -11 12 -8 0 -7 -5 1 -15 7 -9 19 -14 27 -11 7 3
13 -1 13 -9 0 -18 -1 -18 -36 -1 -19 11 -33 12 -46 5 -26 -14 -13 -29 25 -29
53 0 79 -10 66 -26 -6 -7 -11 -34 -11 -60 0 -30 -3 -42 -8 -34 -5 8 -6 18 -3
24 4 5 -8 7 -29 3 -27 -4 -39 -1 -52 14 -13 16 -20 17 -37 9 -27 -15 -51 -6
-42 16 3 9 0 20 -8 25 -10 6 -11 9 -1 9 8 0 12 13 11 38 -2 60 -2 61 35 57 19
-3 38 0 41 5 3 6 -3 10 -14 10 -32 0 -25 20 7 21 15 1 30 1 35 0 4 -1 12 10
17 23 7 18 14 23 29 19 12 -3 21 -12 21 -19z m-988 -30 c10 -28 13 -30 25 -18
21 20 42 17 40 -5 0 -11 -4 -19 -7 -18 -3 1 -7 -2 -10 -8 -3 -6 15 -11 42 -11
29 -1 45 2 42 8 -3 5 -12 7 -20 4 -11 -4 -12 -2 -1 14 11 19 39 28 35 13 0 -5
2 -16 6 -25 7 -15 10 -15 22 -4 7 8 19 17 26 19 10 4 8 9 -4 20 -26 21 -22 29
15 25 28 -3 32 -6 29 -28 -2 -14 -8 -30 -13 -36 -6 -8 -3 -13 11 -17 23 -6 23
-22 0 -47 -10 -11 -18 -13 -23 -6 -5 6 -6 1 -2 -11 3 -12 1 -24 -5 -28 -6 -3
-8 -10 -6 -14 3 -4 -4 -12 -15 -19 -11 -7 -19 -8 -19 -2 0 5 -7 10 -16 10 -8
0 -13 4 -10 9 3 5 -13 3 -37 -4 -47 -14 -60 -40 -31 -62 10 -7 15 -15 13 -18
-12 -11 -169 -9 -169 3 0 7 30 11 90 11 33 0 36 3 34 28 0 20 -7 29 -23 33
-12 3 -22 8 -22 13 2 21 -1 24 -23 22 -14 -2 -27 3 -30 11 -4 11 -10 12 -25 5
-16 -9 -19 -7 -17 15 1 17 8 27 25 31 22 6 23 6 5 17 -36 21 -26 34 24 30 26
-1 37 -1 25 2 -13 3 -23 9 -23 14 0 5 -9 10 -20 12 -27 4 -28 20 -2 34 35 18
51 12 64 -22z m2812 10 c9 -3 16 -12 16 -20 0 -8 5 -14 11 -14 6 0 9 -17 7
-42 -2 -24 -8 -43 -15 -43 -6 0 -15 -3 -19 -7 -14 -15 -25 -8 -19 12 6 20 -9
28 -20 10 -9 -15 -25 -12 -25 4 0 21 -27 27 -81 20 -27 -4 -50 -5 -52 -3 -1 2
-10 -3 -19 -11 -15 -14 -15 -15 0 -21 27 -10 -39 -39 -74 -33 -16 3 -63 5
-104 4 l-76 -1 -2 47 -2 47 51 -7 c37 -5 57 -3 73 7 13 9 28 11 41 6 18 -7 18
-8 2 -8 -10 -1 -15 -5 -12 -11 3 -5 1 -10 -4 -10 -6 0 -11 5 -11 12 0 16 -13
1 -16 -18 -2 -10 3 -13 17 -9 14 5 17 2 13 -8 -4 -11 1 -13 21 -9 17 3 30 -1
36 -9 6 -10 8 -5 7 14 -2 22 -7 27 -20 24 -10 -3 -18 -1 -18 4 0 5 3 9 8 10 4
0 16 2 27 4 11 2 41 7 68 11 44 6 47 5 40 -12 -6 -16 -4 -17 9 -6 11 9 31 10
76 4 55 -8 60 -7 59 10 -1 12 -9 18 -24 18 -24 0 -38 14 -28 30 7 11 35 13 59
4z m-659 -54 c32 0 35 -2 29 -24 -4 -18 -1 -25 15 -29 22 -5 30 16 11 28 -23
14 -7 26 31 23 39 -2 68 -18 33 -18 -14 0 -15 -2 -3 -17 8 -9 9 -14 3 -10 -7
4 -14 0 -18 -8 -3 -8 -12 -15 -21 -15 -8 0 -15 -5 -15 -11 0 -7 9 -9 21 -6 13
3 19 1 16 -6 -4 -15 -67 -22 -67 -8 0 5 6 11 13 14 6 2 -7 4 -30 4 -28 0 -40
-4 -36 -11 4 -6 -1 -5 -10 3 -10 8 -20 11 -24 7 -3 -3 0 -6 7 -6 7 0 10 -3 6
-7 -11 -11 -38 -13 -56 -3 -12 6 -21 3 -33 -10 -9 -11 -23 -17 -31 -14 -18 7
-27 39 -14 52 6 6 0 8 -17 4 -15 -2 -22 -8 -16 -11 6 -4 8 -17 4 -29 -4 -18
-8 -20 -19 -11 -8 6 -14 8 -14 3 0 -5 -4 -3 -9 5 -6 9 -16 11 -27 7 -14 -6
-16 -9 -5 -15 7 -5 9 -11 4 -14 -5 -3 -26 10 -45 29 -20 19 -39 31 -41 26 -3
-4 -18 -7 -34 -6 -15 1 -34 3 -40 3 -7 1 -13 10 -13 20 0 14 5 18 19 14 10 -3
30 1 42 8 30 16 67 20 74 9 3 -5 12 -7 20 -3 8 3 15 0 15 -6 0 -6 5 -11 11
-11 8 0 8 5 -1 15 -11 13 -8 15 20 15 18 0 38 7 44 16 10 13 16 13 38 3 30
-13 83 -4 72 12 -13 21 18 27 37 8 11 -11 33 -19 54 -19z m-2293 -81 c-4 -36
-31 -64 -46 -48 -6 5 -18 9 -27 9 -9 0 -19 7 -23 15 -12 32 -72 13 -114 -36
-28 -34 -52 -38 -52 -9 0 11 7 20 15 20 9 0 12 6 9 15 -4 8 -15 15 -25 15 -10
0 -19 4 -19 8 0 4 10 8 23 8 75 1 97 5 97 19 0 11 16 15 68 17 101 4 97 6 94
-33z m-2387 -26 c1 -19 -4 -23 -49 -27 -28 -3 -125 -7 -216 -9 -159 -4 -190 0
-213 28 -6 6 -10 6 -14 -2 -6 -17 -40 -16 -46 1 -7 17 33 22 208 25 66 1 120
3 121 4 1 1 48 2 105 2 98 0 102 -1 104 -22z m8225 -114 c0 -5 7 -9 15 -9 8 0
15 -4 15 -10 0 -5 18 -10 40 -10 30 0 40 4 40 16 0 9 -5 12 -12 8 -7 -4 -8 -3
-4 4 13 21 36 13 36 -12 0 -20 4 -23 23 -19 22 6 22 6 -2 -16 -14 -12 -31 -19
-38 -17 -7 3 -13 1 -13 -5 0 -6 -5 -7 -10 -4 -6 4 -7 12 -3 18 3 7 -2 5 -13
-3 -15 -13 -47 -16 -154 -15 -128 0 -135 1 -135 20 0 17 6 19 38 17 22 -2 37
1 37 7 0 6 -16 11 -35 11 -24 0 -35 5 -35 15 0 11 11 15 43 14 23 0 37 -3 30
-6 -10 -3 -10 -9 0 -24 9 -15 23 -19 61 -19 58 0 54 12 -6 19 -3 1 -4 9 -1 19
3 14 12 17 44 14 21 -2 39 -8 39 -13z m6674 -80 c-4 -13 -7 -28 -6 -32 1 -4
-2 -17 -8 -27 -15 -28 2 -25 33 5 17 18 27 22 32 14 4 -6 2 -15 -5 -19 -9 -6
-5 -9 14 -12 14 -2 26 -7 25 -12 0 -5 5 -13 13 -17 9 -6 9 -9 1 -9 -6 0 -15 5
-18 11 -5 7 -13 5 -25 -6 -11 -10 -41 -18 -73 -20 -31 -2 -65 -9 -77 -15 -11
-6 -19 -7 -18 -3 2 4 -1 8 -7 8 -5 0 -9 -5 -7 -12 2 -8 -6 -13 -19 -13 -19 0
-20 2 -8 18 11 14 10 13 -9 -2 -12 -11 -22 -15 -22 -10 0 5 -4 4 -8 -2 -11
-17 -52 -28 -52 -13 0 8 -4 8 -12 1 -7 -5 -26 -8 -43 -6 -19 2 -25 0 -16 -5
10 -7 10 -10 1 -16 -7 -4 -16 -2 -20 5 -5 8 -15 10 -26 6 -10 -4 -21 -1 -25 6
-6 10 -12 8 -23 -7 -10 -12 -19 -16 -23 -10 -14 18 -32 15 -38 -5 -4 -11 -10
-20 -15 -20 -5 0 -15 -3 -23 -6 -8 -3 -17 2 -21 12 -5 12 4 27 30 50 35 33 61
37 50 8 -3 -8 1 -14 9 -14 8 0 15 4 15 8 0 5 10 8 22 8 13 -1 23 4 23 9 0 6 4
16 8 23 11 17 30 4 22 -16 -5 -13 -2 -12 15 3 11 10 23 15 27 12 3 -4 13 2 20
13 15 22 38 17 29 -6 -4 -11 0 -11 19 2 14 9 31 14 39 11 7 -3 13 0 12 6 0 7
4 12 9 12 6 0 9 -6 9 -12 -1 -7 3 -10 10 -6 6 4 19 6 29 5 16 -3 22 12 18 46
-1 6 3 12 9 12 5 0 9 -3 9 -7 -1 -5 0 -11 1 -15 2 -7 6 -20 9 -33 4 -17 41 19
41 40 0 33 10 55 25 55 9 0 11 8 8 23 -5 17 -3 19 7 11 8 -8 9 -20 4 -35z
m416 31 c0 -5 7 -10 15 -10 16 0 20 -16 6 -24 -5 -3 -11 1 -15 9 -7 20 -25 19
-22 -1 3 -21 32 -38 41 -24 5 8 11 7 22 -1 12 -10 16 -10 23 1 7 12 33 15 80
11 20 -2 9 -19 -21 -31 -22 -10 -33 -10 -41 -2 -9 9 -15 9 -25 0 -8 -6 -26
-13 -41 -14 -15 -2 -40 -6 -57 -9 -16 -4 -42 -6 -57 -6 -15 1 -29 -3 -33 -9
-9 -15 -25 -12 -25 5 0 8 -4 15 -10 15 -5 0 -10 5 -10 10 0 6 7 10 15 10 8 0
15 8 15 18 1 22 28 58 37 48 4 -4 3 -10 -3 -14 -22 -16 -9 -37 24 -37 28 0 36
5 49 33 15 31 33 43 33 22z m-10865 -24 c99 -3 219 -9 268 -12 l87 -7 -1 -71
c-1 -39 -4 -61 -6 -48 -3 16 -12 22 -31 23 -44 2 -67 -2 -74 -14 -5 -9 -11 -7
-20 4 -7 9 -22 19 -32 23 -16 5 -17 4 -6 -9 10 -13 9 -15 -9 -15 -11 0 -21 5
-21 10 0 6 -7 10 -15 10 -8 0 -15 -6 -15 -12 0 -9 -3 -9 -9 1 -13 21 -41 22
-41 3 0 -10 -3 -13 -8 -7 -7 10 -17 14 -57 21 -11 2 -14 2 -7 -2 17 -8 15 -24
-3 -24 -8 0 -15 7 -15 15 0 8 -4 15 -10 15 -5 0 -10 -6 -10 -12 0 -9 -4 -8
-10 2 -5 8 -10 11 -10 5 0 -5 -5 -3 -10 5 -9 13 -10 13 -10 0 0 -13 -1 -13
-10 0 -9 13 -11 13 -20 0 -6 -9 -10 -10 -10 -3 0 15 -49 10 -60 -7 -5 -8 -9
-9 -14 -1 -4 6 -4 16 -1 21 4 6 1 9 -5 8 -7 -2 -14 4 -15 12 -2 13 16 15 124
13 69 -1 126 -3 126 -3 0 -6 88 -4 91 2 3 5 10 6 15 2 15 -9 168 -14 173 -6 2
4 -26 8 -64 8 -37 1 -73 4 -79 9 -7 4 -23 4 -37 1 -14 -4 -24 -2 -24 4 0 6 -8
5 -20 -2 -15 -10 -27 -10 -50 -1 -17 6 -28 7 -24 2 3 -5 -11 -9 -30 -9 -22 0
-36 5 -37 13 0 10 -2 10 -6 0 -2 -7 -9 -13 -14 -13 -5 0 -9 6 -9 13 0 7 -15
13 -36 15 -19 1 -33 -2 -30 -7 3 -5 -8 -11 -24 -13 -35 -5 -39 -1 -8 11 18 6
19 9 5 14 -9 3 -23 -1 -32 -9 -13 -14 -15 -13 -15 9 0 19 5 24 18 22 9 -2 98
-6 197 -9z m858 -25 l68 -1 -5 -62 c-2 -35 -5 -69 -5 -75 -1 -8 -12 -11 -33
-7 -27 4 -30 3 -15 -6 9 -6 17 -16 17 -22 0 -7 -4 -7 -14 1 -7 6 -21 9 -30 5
-9 -3 -16 -1 -16 5 0 6 6 11 12 11 14 0 -18 23 -45 33 -11 4 -16 3 -12 -3 3
-6 2 -10 -4 -10 -5 0 -11 4 -13 8 -1 5 -21 12 -43 15 -27 4 -35 3 -25 -3 13
-8 13 -10 -2 -10 -9 0 -22 8 -27 18 -7 10 -11 12 -11 4 0 -7 -8 -12 -18 -10
-11 2 -27 -4 -37 -12 -17 -14 -18 -13 -12 4 7 17 4 18 -25 12 -56 -12 -78 -14
-72 -5 3 5 -5 9 -18 8 -13 0 -17 -3 -10 -6 6 -2 12 -9 12 -14 0 -16 -38 9 -44
28 -3 10 -8 37 -11 60 l-6 42 188 -3 c103 -2 219 -4 256 -5z m359 -62 c2 -49
0 -59 -13 -59 -9 0 -23 -7 -30 -16 -12 -15 -11 -16 11 -11 14 4 19 4 13 1 -7
-3 -13 -12 -13 -20 0 -9 5 -12 12 -8 7 4 8 3 4 -5 -6 -9 -11 -9 -21 -1 -10 9
-16 6 -25 -10 -10 -18 -13 -19 -26 -5 -19 18 -51 20 -57 3 -2 -7 -4 0 -4 15 0
22 3 27 15 22 13 -5 13 -3 -1 13 -12 13 -17 36 -17 81 l0 62 74 -2 74 -2 4
-58z m664 36 c9 -8 31 -15 50 -15 l34 0 0 -125 c0 -69 -2 -125 -4 -125 -2 0
-13 -3 -23 -6 -17 -5 -17 -5 0 9 14 12 15 16 3 20 -7 3 -23 -3 -35 -14 -12
-11 -21 -15 -21 -9 0 14 -27 13 -33 -2 -4 -8 -6 -7 -6 3 -1 22 23 31 40 16 11
-10 11 -9 0 5 -11 14 -17 15 -34 6 -16 -8 -22 -8 -25 1 -5 15 -23 14 -19 -1 1
-7 -8 -14 -20 -16 -16 -2 -23 2 -23 13 0 9 5 13 10 10 6 -3 10 -2 10 3 0 6 -7
13 -16 16 -12 5 -15 0 -14 -22 4 -57 -4 -54 -9 3 -4 41 -2 65 6 76 7 9 10 19
6 23 -4 4 -1 11 7 16 12 8 12 10 1 10 -7 0 -11 6 -7 15 3 8 1 15 -4 15 -6 0
-10 20 -10 45 l0 45 61 0 c40 0 65 -5 75 -15z m239 -11 c24 -15 24 -20 24
-125 0 -60 -3 -108 -7 -108 -4 1 -9 0 -12 -1 -14 -6 -80 -6 -80 1 0 4 -8 5
-19 2 -24 -6 -27 9 -26 126 l0 94 35 13 c47 17 57 17 85 -2z m276 -54 c-1 -36
-7 -69 -12 -74 -14 -15 -11 -46 6 -46 8 0 15 -4 15 -10 0 -5 -4 -10 -10 -10
-5 0 -10 -8 -10 -17 0 -16 2 -16 11 -3 9 12 10 12 5 -3 -3 -10 -6 -22 -6 -26
0 -5 -24 -6 -52 -4 -35 3 -48 1 -40 -5 10 -6 5 -9 -17 -8 -17 1 -31 5 -31 9 0
5 -4 5 -10 2 -5 -3 -10 -2 -10 4 0 23 -36 2 -41 -25 -4 -16 -7 14 -9 71 -1 55
-3 123 -4 150 -1 28 0 54 2 58 2 4 51 6 110 5 l106 -3 -3 -65z m729 -60 c0
-102 -1 -110 -17 -102 -10 4 -34 5 -53 2 l-35 -6 42 -8 c27 -5 40 -12 39 -21
-2 -17 -16 -32 -16 -18 0 14 -72 6 -82 -9 -8 -10 -11 -10 -15 0 -2 6 -11 12
-19 12 -8 0 -14 5 -14 10 0 6 -5 10 -11 10 -5 0 -8 -4 -5 -8 2 -4 1 -14 -5
-22 -6 -11 -9 -4 -9 23 0 36 1 37 28 31 15 -4 30 -12 34 -18 5 -6 8 -1 8 12 0
13 -4 20 -10 17 -5 -3 -10 -1 -10 5 0 6 -12 8 -27 6 -24 -4 -25 -3 -12 7 9 7
14 18 11 26 -2 7 2 17 9 22 12 7 12 9 0 9 -7 0 -11 6 -7 15 3 9 0 15 -9 15
-11 0 -15 13 -15 50 l0 50 100 0 100 0 0 -110z m263 102 l127 -2 0 -85 c0 -53
-4 -85 -11 -85 -5 0 -7 5 -4 11 4 6 -3 5 -14 -3 -17 -10 -23 -10 -29 -1 -5 8
-14 3 -27 -16 -16 -25 -26 -29 -83 -34 -35 -3 -81 -2 -103 0 l-39 6 0 107 0
107 28 -2 c15 -1 84 -3 155 -3z m362 -11 l90 -1 -3 -125 c-2 -69 -7 -123 -11
-120 -5 2 -44 5 -87 6 -44 1 -98 7 -121 14 -37 11 -42 11 -46 -4 -3 -9 -5 41
-6 110 l-1 126 48 -3 c26 -1 88 -3 137 -3z m385 -146 c0 -77 -4 -135 -8 -130
-4 6 -18 11 -32 11 -14 1 -53 4 -87 7 -41 3 -64 1 -67 -7 -2 -6 -5 51 -5 126
l-1 138 100 -3 100 -2 0 -140z m110 1 l0 -134 -40 1 -40 2 0 133 0 132 40 0
40 0 0 -134z m172 34 c0 -52 -1 -113 -1 -135 l-1 -40 -70 3 -70 4 0 135 0 135
71 -4 72 -3 -1 -95z m117 84 l32 -7 -2 -128 c0 -73 -5 -126 -10 -123 -5 3 -9
0 -9 -6 0 -6 -4 -9 -8 -6 -5 3 -27 6 -50 7 l-42 3 0 133 0 133 29 0 c16 0 43
-3 60 -6z m149 -136 l3 -126 -46 2 -45 1 0 128 0 128 43 -3 42 -3 3 -127z
m137 115 l47 -6 -6 -56 c-3 -31 -5 -86 -6 -123 l0 -67 -64 0 c-37 1 -69 6 -74
12 -5 7 -10 65 -11 130 l-2 117 34 0 c19 0 56 -3 82 -7z m263 -19 l52 -7 0
-122 0 -122 -35 4 c-19 2 -35 -1 -35 -6 0 -5 -6 -11 -12 -14 -7 -2 -5 -3 5 -1
9 1 31 -3 47 -9 28 -10 30 -15 30 -59 0 -47 0 -48 -32 -48 l-33 -1 33 -14 c17
-8 32 -20 32 -27 0 -9 -3 -9 -8 -2 -10 16 -66 28 -56 13 5 -9 2 -10 -10 -6
-10 4 -25 7 -34 7 -15 0 -15 2 -2 10 13 9 13 10 0 10 -13 0 -13 1 0 10 12 7
10 9 -7 7 -16 -1 -19 -5 -12 -13 11 -13 -3 -26 -33 -31 -16 -3 -18 6 -18 67 0
53 3 70 14 70 8 0 16 7 20 15 3 8 16 15 28 16 16 1 13 4 -12 9 -19 5 -38 6
-42 4 -5 -3 -8 51 -8 120 l0 126 38 0 c20 0 61 -3 90 -6z m4818 -46 c16 -53 8
-70 -29 -62 -18 3 -35 12 -39 18 -6 8 -11 7 -17 -4 -6 -8 -13 -11 -17 -8 -3 4
-14 -3 -24 -15 -16 -19 -21 -20 -44 -9 -24 11 -28 10 -38 -13 -15 -34 -52 -35
-46 0 3 13 2 23 -1 20 -4 -2 -12 0 -19 4 -9 5 -8 12 3 27 12 16 16 17 24 5 8
-12 14 -13 36 -3 14 7 35 12 46 12 11 0 17 5 14 10 -8 13 25 26 34 13 10 -17
50 -8 71 15 28 29 35 28 46 -10z m-4311 -115 c-4 -287 -4 -293 -17 -288 -16 5
-84 15 -123 18 -28 2 -30 5 -33 52 -5 77 2 92 43 91 19 -1 35 -3 35 -6 0 -3
18 -6 40 -5 36 0 57 13 28 17 -7 0 -17 2 -23 3 -5 1 -33 5 -62 9 -63 9 -65 14
-61 133 l2 88 86 6 c47 3 85 6 86 7 0 1 -1 -55 -1 -125z m158 112 l37 -6 0
-204 c0 -130 -4 -205 -10 -205 -5 0 -10 -5 -10 -11 0 -5 4 -7 10 -4 13 8 9
-48 -4 -57 -6 -4 -19 1 -30 10 -11 9 -17 12 -13 6 4 -8 -7 -11 -33 -11 l-40 0
1 241 c1 132 3 244 5 247 3 6 13 6 87 -6z m-363 -100 l0 -105 -27 -1 c-16 -1
-37 0 -48 2 -11 1 -44 2 -72 2 l-53 -1 0 104 0 104 100 0 100 0 0 -105z m470
-154 l-1 -250 -24 11 -23 10 -1 239 -1 239 25 0 26 0 -1 -249z m3520 134 c6
-8 9 -18 6 -24 -3 -5 0 -11 6 -14 10 -3 10 -7 -1 -20 -17 -22 -37 -22 -45 0
-6 14 -12 11 -40 -16 -38 -37 -72 -39 -69 -4 2 17 -2 20 -18 16 -14 -4 -17 -8
-9 -13 7 -4 9 -13 5 -20 -6 -10 -10 -9 -17 4 -10 17 -34 22 -40 7 -1 -6 -23
-23 -48 -40 -34 -23 -48 -27 -62 -20 -20 11 -58 3 -58 -12 0 -5 -11 -9 -25 -9
-14 0 -25 5 -25 10 0 6 -8 10 -17 10 -14 1 -12 4 7 15 14 8 31 14 39 15 8 0
22 7 31 15 10 9 30 17 46 18 16 1 39 13 51 27 22 24 23 24 37 5 14 -20 15 -20
41 5 22 20 28 22 35 10 8 -12 13 -11 32 7 17 16 27 19 41 12 9 -6 17 -7 17 -3
0 3 6 1 14 -5 11 -9 15 -6 20 14 7 28 27 33 46 10z m-3421 -35 l24 0 -6 -137
c-4 -76 -7 -151 -7 -166 0 -16 -4 -26 -9 -22 -6 3 -13 -1 -18 -8 -5 -10 -15
-12 -28 -6 -11 4 -14 8 -7 8 6 1 12 6 12 12 0 6 -7 9 -15 5 -13 -4 -15 10 -15
97 -1 56 -2 134 -3 173 l-2 70 25 -13 c14 -7 36 -13 49 -13z m815 -47 c-2 -32
-3 -89 -3 -126 -1 -43 -5 -66 -11 -62 -6 3 -10 -5 -10 -19 0 -14 -5 -23 -12
-21 -40 10 -58 19 -59 29 0 6 -4 2 -9 -9 -5 -13 -9 33 -9 120 l-1 140 58 3 58
3 -2 -58z m136 -83 c0 -104 -3 -129 -15 -134 -9 -3 -12 -12 -8 -23 4 -11 -5
-6 -21 12 -16 17 -23 22 -16 12 11 -15 10 -17 -4 -11 -9 3 -16 16 -17 28 -4
97 -5 222 -2 235 3 13 14 16 44 13 l39 -4 0 -128z m-852 120 c9 0 12 -39 11
-162 0 -108 -3 -155 -9 -140 -5 12 -14 22 -20 22 -7 0 -7 -6 0 -21 7 -11 9
-23 6 -26 -3 -3 -8 2 -12 11 -10 25 -24 19 -26 -11 -1 -16 -4 35 -7 112 -4 77
-4 160 -2 183 3 39 5 43 25 38 11 -3 27 -6 34 -6z m398 -119 c-3 -69 -6 -136
-6 -148 0 -12 -5 -25 -10 -28 -6 -3 -10 -17 -10 -30 0 -12 -7 -25 -15 -29 -8
-3 -15 -1 -15 4 0 6 5 10 11 10 9 0 5 47 -5 57 -7 7 -56 -24 -60 -37 -2 -8 -4
-1 -5 17 0 17 4 35 10 39 8 4 7 9 -2 15 -22 13 -1 23 47 20 30 -1 44 2 39 9
-3 6 -11 8 -16 4 -5 -3 -15 -1 -22 5 -8 6 -18 6 -27 1 -8 -6 -18 -10 -22 -10
-12 0 -10 218 2 222 6 2 33 3 61 4 l51 1 -6 -126z m174 18 c0 -71 -4 -108 -10
-104 -5 3 -10 0 -10 -8 0 -19 -27 -30 -34 -14 -3 9 -8 8 -15 -3 -9 -12 -11
-13 -11 -1 0 8 -3 11 -7 8 -3 -4 -12 -2 -20 4 -9 9 -13 8 -13 0 0 -6 5 -11 10
-11 6 0 20 -10 32 -22 13 -13 19 -16 16 -6 -5 12 0 16 20 16 23 0 24 -2 8 -13
-9 -7 -17 -16 -16 -19 1 -4 0 -12 -3 -19 -3 -9 -7 -9 -18 -1 -16 13 -43 5 -46
-13 -3 -13 9 -17 36 -13 11 1 11 -2 -2 -14 -8 -9 -23 -16 -31 -16 -14 0 -16
23 -16 180 l0 180 65 0 65 0 0 -111z m-360 -4 c0 -63 -4 -105 -10 -105 -5 0
-10 -5 -10 -11 0 -5 5 -7 10 -4 6 4 10 -12 10 -40 0 -25 -4 -44 -9 -41 -4 3
-6 16 -4 30 6 30 -7 38 -32 19 -20 -15 -20 -15 3 -8 26 7 28 0 7 -21 -8 -9
-25 -14 -37 -12 -22 3 -23 6 -26 151 l-3 147 51 0 50 0 0 -105z m769 -30 c-1
-74 -6 -132 -11 -129 -4 3 -8 -1 -8 -8 0 -9 -3 -9 -10 2 -9 13 -10 13 -11 0 0
-10 -3 -8 -9 5 -5 11 -9 75 -9 143 l-1 122 31 0 30 0 -2 -135z m-3454 95 c-2
-3 5 -7 17 -7 13 -1 18 3 14 13 -3 8 -1 14 3 14 5 0 11 -6 14 -12 3 -10 8 -10
21 1 15 12 19 12 32 -7 15 -21 64 -31 64 -13 0 15 29 21 54 11 20 -7 26 -6 29
8 3 9 5 -32 5 -92 0 -60 -4 -103 -8 -96 -5 7 -16 14 -27 15 -10 1 -26 6 -36
10 -11 5 -23 3 -30 -5 -9 -10 -9 -11 3 -5 13 8 13 7 1 -9 -14 -17 -16 -17 -29
1 -7 10 -18 17 -24 15 -6 -2 -8 4 -5 13 4 8 2 15 -3 15 -6 0 -10 -4 -10 -10 0
-5 -13 -10 -29 -10 -21 0 -31 -6 -36 -22 l-8 -23 -5 25 c-5 18 -8 8 -13 -35
-4 -41 -6 -13 -7 90 -1 94 2 145 7 135 6 -8 8 -17 6 -20z m3800 4 c0 -10 -3
-24 -8 -31 -4 -6 -4 -13 0 -16 4 -3 7 -40 6 -84 -2 -98 -1 -95 -13 -88 -5 3
-10 1 -10 -4 0 -6 4 -11 9 -11 14 0 20 -37 8 -49 -7 -7 -7 -14 1 -23 6 -8 7
-19 2 -27 -4 -8 -6 -21 -2 -29 3 -10 1 -13 -6 -8 -7 4 -12 3 -12 -3 0 -5 7
-14 16 -19 11 -6 13 -11 5 -16 -6 -4 -11 -1 -11 6 0 9 -2 10 -8 1 -9 -14 -62
-29 -62 -17 0 4 10 19 23 32 17 20 18 24 5 19 -18 -6 -22 17 -21 108 0 11 1
61 2 110 1 62 4 85 11 75 9 -13 14 -7 11 13 0 4 4 7 9 7 6 0 10 15 10 33 0 19
3 37 7 41 12 11 28 0 28 -20z m-4285 1 c9 5 11 4 6 -3 -4 -7 -3 -12 3 -12 5 0
12 8 14 18 3 9 5 -48 4 -128 0 -80 -3 -126 -6 -103 -5 34 -9 41 -20 33 -12 -7
-12 -11 -2 -24 12 -14 10 -16 -10 -18 -71 -4 -119 13 -89 32 13 8 12 10 -4 10
-13 0 -17 -5 -13 -20 3 -11 1 -20 -3 -20 -5 0 -9 24 -9 54 0 33 -8 73 -19 99
-15 34 -17 48 -8 57 8 10 8 11 -1 6 -7 -4 -13 -3 -13 2 0 12 59 22 66 11 2 -4
14 -5 27 -3 12 3 28 6 35 6 6 1 12 6 12 12 0 6 4 5 9 -3 5 -8 14 -10 21 -6z
m235 -1 c71 4 104 3 100 -4 -3 -5 -2 -10 4 -10 5 0 14 7 18 15 7 12 13 12 33
2 22 -11 25 -20 28 -79 3 -64 2 -67 -20 -65 -13 0 -26 6 -30 11 -5 7 -11 7
-20 -2 -16 -16 -33 -15 -19 2 8 10 8 16 -3 25 -17 14 -31 -2 -22 -26 5 -11 2
-14 -10 -9 -14 5 -15 4 -4 -9 7 -9 16 -12 19 -8 3 4 17 7 31 6 42 -2 46 -4 25
-13 -17 -7 -14 -9 14 -9 29 -1 32 1 21 14 -11 13 -10 14 3 10 10 -4 15 -19 14
-43 0 -20 -2 -30 -4 -21 -3 11 -11 15 -24 12 -11 -3 -19 0 -19 7 0 10 -3 10
-15 0 -12 -10 -18 -10 -30 0 -16 14 -35 6 -35 -16 0 -8 -5 -14 -11 -14 -5 0
-8 4 -5 9 4 5 -4 6 -16 3 -18 -5 -19 -7 -6 -10 9 -2 15 -9 12 -17 -3 -7 -1
-16 5 -20 6 -3 11 -12 11 -18 0 -7 -8 -2 -18 9 -16 21 -67 40 -87 34 -5 -1
-20 -2 -32 -2 -13 1 -23 -2 -23 -7 0 -13 35 -19 53 -9 13 7 15 5 11 -6 -4 -9
-18 -14 -40 -13 l-35 2 2 144 c0 79 4 138 9 131 6 -10 33 -11 115 -6z m660
-12 c19 -10 75 -4 75 9 0 5 7 9 16 9 8 0 12 -4 9 -10 -4 -6 5 -10 19 -10 l26
0 -1 -102 c-1 -57 -3 -95 -6 -85 -4 14 -11 16 -41 11 -50 -9 -78 -25 -31 -17
22 3 39 1 43 -6 8 -13 -66 -16 -78 -4 -4 4 -13 8 -19 8 -7 1 -24 7 -39 15 -28
13 -28 15 -28 106 0 87 1 93 20 89 11 -2 27 -8 35 -13z m475 -8 c0 5 6 3 14
-3 8 -7 17 -8 20 -3 3 5 19 9 36 10 l30 1 0 -79 c0 -53 -4 -80 -12 -84 -10 -5
-10 -7 0 -12 24 -11 11 -23 -15 -13 -14 5 -32 8 -39 5 -8 -3 -16 -1 -19 4 -10
15 -23 12 -28 -7 -3 -10 -5 32 -6 92 0 74 2 105 9 95 5 -8 10 -11 10 -6z m-50
-84 c0 -68 -3 -89 -15 -93 -8 -4 -17 -3 -19 2 -3 4 -24 8 -46 9 -25 1 -39 -2
-35 -8 3 -6 0 -10 -9 -10 -12 0 -14 18 -14 93 l0 93 69 1 69 2 0 -89z m439 -2
c0 -46 -3 -75 -7 -66 -5 12 -11 15 -21 9 -8 -5 -20 -7 -28 -4 -7 3 -13 0 -13
-6 0 -14 -49 -3 -67 15 -13 13 -18 115 -6 127 3 4 37 7 75 7 l68 0 -1 -82z
m448 70 l83 1 0 -38 c0 -52 -11 -102 -21 -96 -4 3 -10 1 -14 -5 -3 -5 -17 -10
-31 -10 -15 0 -23 4 -19 10 4 7 -2 9 -19 4 -17 -4 -26 -2 -26 6 0 8 -9 11 -25
8 -17 -4 -25 -1 -25 8 0 8 -4 14 -10 14 -11 0 -14 93 -4 103 4 4 12 4 17 0 6
-4 48 -6 94 -5z m2501 -36 c-10 -2 -18 -8 -18 -14 0 -5 7 -7 16 -4 12 5 15 -1
14 -27 -3 -47 -1 -61 8 -53 8 9 9 13 11 71 1 33 4 43 15 39 10 -4 13 -22 11
-72 -1 -37 -6 -76 -11 -86 -5 -14 -4 -17 5 -12 8 6 11 -4 9 -33 -3 -48 -32
-59 -36 -14 -3 41 -12 41 -12 0 0 -20 -4 -38 -8 -41 -4 -2 -7 22 -6 55 0 32
-3 59 -8 59 -4 0 -9 -33 -9 -72 -2 -58 -3 -65 -8 -33 -3 22 -5 88 -3 146 3
104 4 107 25 101 18 -5 19 -7 5 -10z m-349 -39 c11 -9 18 -20 16 -24 -3 -4 2
-9 10 -13 8 -3 16 0 17 7 1 7 4 -18 7 -56 3 -37 11 -67 16 -67 12 0 12 0 14
98 2 57 5 71 11 55 5 -13 12 -23 16 -23 3 0 4 6 1 13 -3 7 3 13 14 13 14 0 15
-3 7 -13 -8 -10 -7 -12 4 -8 12 5 17 -2 20 -28 5 -45 0 -57 -19 -50 -11 4 -8
-2 7 -17 21 -21 22 -24 6 -36 -9 -6 -13 -14 -7 -15 10 -4 14 -22 12 -50 -1
-12 -8 -15 -25 -12 -25 5 -42 -10 -30 -28 4 -8 9 -8 17 0 18 18 37 13 37 -9 0
-11 -4 -20 -10 -20 -18 0 -25 -2 -40 -10 -12 -7 -16 1 -18 40 -2 27 2 51 8 55
5 3 10 10 10 15 0 5 -11 -2 -25 -16 -19 -19 -25 -35 -25 -69 0 -25 -4 -45 -8
-45 -4 0 -7 32 -5 70 1 43 -2 68 -7 65 -6 -4 -10 -21 -11 -38 0 -18 -3 -26 -6
-19 -2 6 -9 12 -14 12 -6 0 -7 -4 -4 -10 7 -12 -5 -13 -21 -2 -14 8 -16 192
-3 192 5 0 9 5 9 11 0 5 -4 7 -10 4 -11 -7 -13 6 -4 29 8 20 9 20 33 -1z
m-209 -190 c-1 -53 -2 -56 -15 -39 -15 19 -15 19 -15 -2 0 -14 7 -22 18 -23
15 -1 15 -2 0 -6 -9 -2 -16 -13 -15 -23 1 -12 5 -16 12 -10 7 6 11 2 12 -11 1
-11 -3 -17 -9 -13 -6 4 -6 0 1 -14 8 -16 7 -21 -5 -26 -25 -10 -56 -7 -49 4 4
6 15 8 26 5 14 -5 17 -2 13 8 -3 10 -13 13 -27 9 -20 -5 -20 -4 -8 11 7 9 11
17 9 17 -9 0 -45 -35 -51 -50 -3 -8 -6 -2 -6 15 -1 17 -4 48 -8 69 -4 25 -3
37 4 33 5 -3 10 0 10 8 0 8 -3 12 -7 10 -4 -2 -7 14 -8 35 -1 28 2 40 12 40
17 0 29 -27 15 -35 -5 -4 -6 -12 -2 -18 4 -7 8 -16 9 -22 0 -5 2 -16 2 -22 1
-7 12 -13 25 -13 16 0 18 3 8 9 -8 5 -12 19 -9 34 3 14 1 31 -3 39 -11 17 9
38 37 38 23 0 24 -4 24 -57z m2124 41 c3 -8 2 -12 -4 -9 -6 3 -10 4 -10 1 0
-3 18 -15 40 -26 37 -19 40 -19 49 -2 7 11 10 13 11 3 0 -9 7 -11 21 -8 15 4
19 2 15 -8 -3 -8 0 -17 6 -21 6 -4 8 -3 5 3 -4 6 6 10 24 11 16 0 27 -4 24 -9
-4 -5 3 -6 17 0 13 4 29 6 36 4 6 -3 12 1 12 8 0 10 3 10 12 1 8 -8 15 -9 25
0 11 9 12 7 7 -8 -6 -16 -5 -17 7 -6 7 6 22 12 33 12 11 0 28 8 39 18 11 9 17
12 14 5 -12 -20 9 -23 29 -4 13 12 27 16 39 11 11 -4 35 -7 53 -6 17 1 32 -2
32 -6 0 -5 9 -8 19 -8 11 0 23 -5 26 -10 4 -6 11 -8 16 -4 5 3 6 10 3 16 -4 6
3 5 16 -2 18 -10 24 -9 31 1 5 8 9 10 9 4 0 -5 12 -15 26 -22 20 -9 26 -9 30
1 5 13 72 10 90 -5 7 -5 30 -7 53 -4 25 3 41 1 41 -6 0 -5 5 -7 10 -4 6 3 10
1 10 -4 0 -11 -10 -14 -45 -12 -11 0 -14 -2 -7 -5 38 -17 11 -20 -220 -27 -53
-2 -68 -5 -68 -17 -1 -11 -3 -10 -11 4 -8 13 -13 15 -19 6 -5 -8 -34 -12 -84
-12 -42 0 -79 -4 -82 -10 -4 -5 -10 -5 -18 1 -6 5 -18 6 -25 2 -18 -11 -53 -2
-44 12 4 7 0 8 -13 3 -36 -15 -84 -24 -78 -15 7 12 -39 7 -49 -6 -6 -7 -10 -6
-13 2 -4 8 -13 9 -30 3 -13 -5 -24 -6 -24 -1 0 4 -7 8 -15 8 -8 0 -15 -7 -15
-16 0 -11 -3 -11 -16 5 -8 10 -13 14 -10 8 4 -8 -7 -10 -34 -8 -28 2 -38 0
-34 -9 2 -7 -2 -21 -10 -32 -9 -11 -16 -15 -16 -8 0 7 -7 10 -15 7 -8 -4 -15
-1 -15 5 0 6 3 10 8 10 18 -3 46 3 35 8 -7 2 -13 10 -13 17 0 6 -9 12 -20 13
-11 1 -20 -4 -20 -13 0 -20 -18 -17 -22 4 -3 16 -8 17 -37 9 -26 -6 -31 -11
-20 -18 11 -7 11 -9 -4 -9 -14 0 -16 5 -11 27 6 23 5 25 -12 18 -10 -4 -25 -8
-32 -8 -8 0 -10 -8 -6 -21 6 -19 6 -19 -11 -2 -14 14 -20 15 -27 4 -7 -9 -8
-6 -5 10 3 12 1 22 -4 22 -5 0 -9 -8 -9 -17 0 -14 -2 -15 -9 -5 -4 7 -12 12
-17 11 -30 -5 -35 4 -9 16 44 21 192 79 252 99 29 10 55 22 58 27 9 14 22 11
29 -7z m453 -204 c13 0 13 3 3 15 -12 15 0 22 14 8 14 -14 41 -8 54 12 9 14
12 15 8 3 -2 -9 1 -19 9 -22 9 -3 12 0 8 10 -4 10 2 14 18 13 13 0 18 -3 12
-6 -7 -2 -13 -9 -13 -15 0 -6 7 -8 14 -5 10 4 13 1 9 -9 -3 -7 0 -14 6 -14 23
0 10 -18 -20 -29 -40 -14 -59 -14 -39 0 11 8 9 9 -10 3 -26 -7 -38 -8 -55 -4
-18 4 -60 -1 -47 -7 6 -2 12 -9 12 -14 0 -13 -43 -4 -48 9 -2 7 -8 10 -13 7
-5 -4 -6 1 -3 9 3 9 2 16 -4 16 -6 0 -12 -4 -14 -9 -4 -12 -54 -22 -74 -14 -7
3 -11 9 -8 14 3 5 10 6 16 3 6 -4 14 0 19 7 8 12 10 12 18 0 15 -23 44 5 31
29 -8 15 -6 18 15 16 14 0 25 -7 25 -14 0 -7 -4 -10 -10 -7 -5 3 -10 1 -10 -4
0 -27 50 4 51 32 2 17 3 16 6 -5 3 -17 11 -28 20 -28z m-417 -89 c0 -6 5 -11
11 -11 5 0 7 5 4 10 -3 6 -2 10 4 10 5 0 13 -5 17 -11 4 -8 9 -7 15 2 7 11 9
10 9 -3 0 -10 5 -19 10 -19 6 -1 16 -2 23 -3 6 -1 17 1 22 5 17 12 109 4 143
-13 28 -15 32 -15 32 -1 0 8 6 13 13 10 7 -3 24 4 38 14 30 23 94 26 85 4 -3
-8 -1 -15 4 -15 6 0 10 5 10 11 0 5 5 7 10 4 6 -3 10 0 11 7 0 10 2 10 6 0 2
-6 9 -10 14 -6 5 3 9 0 9 -5 0 -6 5 -11 10 -11 6 0 9 5 8 11 -2 6 3 14 10 16
21 8 13 -15 -14 -42 -14 -15 -33 -24 -41 -21 -8 3 -11 1 -8 -4 3 -6 -1 -10
-10 -10 -10 0 -14 -5 -9 -12 5 -10 4 -10 -6 -1 -7 6 -18 9 -25 6 -8 -2 -23 1
-35 7 -16 9 -25 9 -36 0 -7 -7 -25 -9 -39 -6 -14 4 -25 2 -25 -3 0 -5 -7 -12
-16 -15 -10 -4 -13 -2 -8 6 5 7 2 9 -9 5 -9 -3 -18 0 -21 9 -5 14 -8 14 -22 0
-14 -14 -17 -14 -30 -1 -9 8 -18 15 -22 15 -4 1 -26 5 -49 9 -27 5 -43 5 -43
-2 0 -5 -6 -4 -14 2 -19 16 -100 26 -91 11 3 -5 3 -10 -2 -11 -17 -1 -59 -7
-73 -11 -9 -2 -14 3 -12 13 1 9 -5 16 -13 16 -9 0 -14 -6 -11 -14 4 -10 -3
-12 -32 -7 -20 3 -43 6 -49 6 -22 2 -14 18 10 20 41 3 52 5 77 15 51 21 160
30 160 14z m-3661 -518 c17 -8 30 -9 44 -2 10 6 21 8 25 5 3 -3 -1 -6 -8 -6
-10 0 -9 -5 3 -18 22 -24 21 -29 -3 -35 -13 -3 -18 -11 -14 -21 4 -10 -2 -17
-19 -21 -14 -4 -27 -15 -30 -26 -7 -25 -27 -24 -34 1 -5 19 -6 19 -18 3 -7 -9
-11 -23 -8 -30 3 -7 0 -13 -7 -13 -6 0 -8 5 -5 10 3 6 2 10 -3 10 -5 0 -12 9
-15 20 -7 25 21 56 36 41 17 -17 57 -13 57 5 0 10 -6 14 -14 11 -11 -4 -13 -1
-9 11 6 14 4 15 -8 5 -24 -19 -78 1 -79 29 0 4 7 14 16 23 18 18 55 17 93 -2z
m-3382 -792 c10 -13 9 -19 -9 -34 -21 -18 -32 -18 -70 -2 -16 6 -18 1 -19 -41
-1 -27 -1 -52 0 -56 2 -12 -38 -48 -52 -48 -8 0 -17 -3 -21 -7 -4 -4 -20 -8
-36 -8 -20 -1 -32 6 -39 21 -9 22 -5 63 8 65 26 6 61 11 85 13 24 2 30 8 33
32 7 57 13 70 40 81 33 13 63 7 80 -16z m953 -215 l0 -74 -44 -17 c-25 -10
-50 -15 -58 -13 -10 4 -116 -30 -210 -67 -22 -9 -23 -44 -2 -52 13 -5 13 -7 2
-14 -10 -7 -9 -9 5 -9 23 0 19 -28 -5 -44 -24 -15 -33 -1 -33 52 0 26 -2 52
-5 57 -3 6 -5 21 -5 35 0 22 10 28 95 58 52 19 109 40 126 48 17 9 38 16 47
18 9 1 20 5 23 9 4 4 18 7 31 7 20 0 23 5 23 40 0 22 2 40 5 40 3 0 5 -33 5
-74z m-980 -76 c13 -9 13 -11 0 -20 -8 -5 -91 -35 -185 -67 -185 -61 -263 -74
-285 -48 -12 14 -12 16 1 14 7 -1 21 1 29 4 60 26 245 87 262 87 14 0 18 -5
14 -15 -3 -8 0 -15 5 -15 6 0 9 9 6 20 -3 11 -4 20 -4 20 1 0 20 7 42 15 47
17 94 19 115 5z m17 -104 c-2 -18 -7 -38 -11 -44 -11 -18 -34 -14 -45 6 -8 12
-13 14 -18 5 -5 -6 -17 -11 -27 -10 -13 1 -22 -6 -26 -23 -5 -20 -12 -25 -37
-25 -17 -1 -29 3 -27 7 3 4 2 8 -3 8 -16 0 -31 -15 -35 -35 -3 -18 -10 -20
-80 -17 -51 1 -79 -2 -84 -10 -5 -8 -2 -9 9 -5 10 3 17 4 17 1 0 -8 -51 -24
-60 -19 -19 12 3 35 38 41 29 5 245 77 361 119 8 3 12 8 9 10 -3 3 -82 -22
-177 -54 -94 -33 -171 -57 -171 -52 0 4 71 31 158 60 86 29 166 59 177 66 27
17 36 10 32 -29z m-1674 -445 c19 -7 24 -17 25 -48 1 -21 4 -49 7 -62 8 -40
-4 -66 -36 -78 -26 -10 -29 -9 -29 7 0 28 -19 34 -42 13 -12 -10 -18 -12 -14
-5 4 6 3 12 -3 12 -16 0 -41 -30 -41 -51 0 -18 -12 -26 -67 -43 -19 -6 -23 -4
-23 13 0 12 -4 21 -9 21 -5 0 -11 8 -14 18 -2 9 -7 -4 -11 -30 -8 -47 -8 -47
-69 -67 -33 -12 -63 -18 -66 -16 -3 3 5 8 17 12 29 7 18 23 -18 23 -38 0 -60
-9 -60 -25 0 -13 -30 -25 -64 -25 -12 0 -16 5 -12 15 3 8 0 15 -7 16 -7 0 7 6
31 14 24 7 49 20 55 29 10 12 276 110 362 133 11 3 37 12 58 21 30 13 37 21
37 44 0 15 -2 28 -3 28 -2 0 -30 -9 -62 -20 -32 -11 -66 -18 -75 -15 -10 3
-28 1 -41 -4 -13 -5 -17 -10 -9 -10 21 -1 0 -17 -33 -25 -27 -6 -28 -5 -25 26
3 31 7 34 78 60 80 28 124 34 163 19z m-255 -88 c-3 -26 -12 -31 -108 -65
-136 -48 -190 -56 -215 -32 -17 17 -12 20 136 70 184 63 191 64 187 27z"/>
<path d="M3600 7350 c-12 -8 -12 -10 3 -16 9 -3 17 -11 17 -16 0 -7 -19 -8
-54 -4 -59 6 -66 1 -66 -52 0 -19 -3 -23 -9 -14 -6 11 -10 10 -15 -4 -10 -25
2 -32 65 -36 41 -2 55 0 52 9 -7 18 55 8 76 -11 24 -21 28 -20 33 9 3 14 1 25
-3 25 -5 0 -6 13 -3 29 6 27 4 30 -28 36 -24 5 -38 14 -44 31 -7 18 -13 21
-24 14z"/>
<path d="M2298 7379 c-23 -13 -23 -35 -1 -47 12 -7 15 -18 10 -46 -6 -35 -5
-36 26 -37 18 -1 36 -1 40 0 4 1 15 -5 23 -14 18 -17 34 -20 34 -5 0 6 -5 10
-11 10 -8 0 -7 5 1 15 10 12 10 21 1 41 -6 14 -8 30 -5 36 4 6 0 14 -7 19 -8
4 -14 14 -14 20 0 7 -7 14 -15 16 -13 4 -13 3 0 -6 9 -7 10 -11 3 -11 -6 0
-15 5 -18 10 -8 13 -45 12 -67 -1z"/>
</g>
</svg>
