<?xml version="1.0" standalone="no"?>
<!DOCTYPE svg PUBLIC "-//W3C//DTD SVG 20010904//EN"
 "http://www.w3.org/TR/2001/REC-SVG-20010904/DTD/svg10.dtd">
<svg version="1.0" xmlns="http://www.w3.org/2000/svg"
 width="900.000000pt" height="239.000000pt" viewBox="0 0 900.000000 239.000000"
 preserveAspectRatio="xMidYMid meet">
<metadata>
Created by potrace 1.13, written by Peter Selinger 2001-2015
</metadata>
<g transform="translate(0.000000,239.000000) scale(0.100000,-0.100000)"
fill="#000000" stroke="none">
<path d="M5879 1893 c0 -5 0 -155 1 -335 1 -188 -3 -329 -8 -332 -5 -3 -29 -7
-53 -10 -24 -2 -57 -11 -74 -20 -16 -9 -42 -16 -57 -16 -15 0 -58 -12 -95 -26
-37 -14 -95 -32 -128 -41 -33 -8 -82 -21 -110 -29 -54 -14 -162 -37 -182 -37
-7 0 -13 -4 -13 -8 0 -3 -9 -9 -20 -12 -11 -3 -20 -2 -20 2 0 4 -7 8 -15 8 -9
0 -14 -6 -11 -14 3 -7 -1 -13 -8 -13 -8 0 -16 6 -19 13 -3 9 -8 9 -21 -2 -9
-8 -19 -11 -23 -7 -3 3 -2 6 4 6 6 0 13 6 16 14 4 10 0 12 -13 9 -11 -3 -21
-12 -23 -22 -4 -14 -5 -14 -6 2 0 9 -6 17 -12 17 -5 0 -8 -4 -4 -9 3 -5 1 -12
-5 -16 -5 -3 -10 -1 -10 5 0 7 -6 8 -19 0 -25 -13 -71 -13 -71 0 0 6 9 10 20
10 25 0 27 20 3 21 -42 2 -88 -3 -91 -11 -2 -5 -11 -7 -20 -4 -13 4 -13 2 3
-10 19 -16 19 -16 -5 -12 -14 2 -24 9 -22 16 1 6 -2 9 -8 5 -6 -3 -8 -11 -5
-16 4 -5 2 -9 -4 -9 -5 0 -14 7 -19 16 -8 14 -10 14 -21 0 -8 -9 -19 -16 -25
-16 -6 0 -4 5 4 10 13 9 13 10 0 10 -9 0 -21 -5 -28 -12 -9 -9 -12 -9 -12 3 0
12 -2 12 -10 -1 -8 -13 -10 -12 -10 3 0 15 -3 15 -21 5 -17 -11 -23 -11 -26 0
-3 6 -8 10 -13 7 -5 -3 -63 -7 -130 -8 -127 -4 -135 1 -37 22 32 7 56 15 54
17 -3 3 -35 -2 -73 -11 -43 -10 -84 -13 -112 -9 -27 4 -59 1 -85 -7 -31 -10
-41 -11 -45 -1 -2 7 -8 12 -13 12 -6 0 -7 -4 -4 -10 7 -11 -17 -17 -105 -25
-36 -3 -92 -8 -125 -11 -76 -8 -363 21 -475 47 -128 29 -191 41 -197 36 -2 -3
9 -8 26 -12 54 -12 42 -22 -14 -13 -39 7 -72 6 -125 -5 -39 -8 -80 -12 -91
-10 -13 4 -19 0 -19 -11 0 -9 5 -16 10 -16 6 0 10 -4 10 -10 0 -5 -7 -10 -15
-10 -9 0 -15 9 -15 25 0 14 -5 25 -11 25 -6 0 -8 -9 -4 -20 5 -14 2 -20 -9
-20 -9 0 -16 9 -16 20 0 12 -7 20 -17 20 -12 0 -14 -3 -6 -8 7 -5 9 -13 4 -21
-7 -11 -10 -10 -15 5 -3 11 -16 20 -31 20 -14 1 -22 -2 -19 -7 3 -5 -2 -9 -10
-9 -9 0 -16 5 -16 11 0 6 -9 8 -22 3 -13 -4 -33 -7 -45 -6 -13 1 -23 -4 -23
-11 0 -9 -3 -8 -9 1 -4 8 -21 13 -37 11 -57 -4 -94 1 -94 14 0 9 -32 13 -129
14 -71 0 -138 4 -149 7 -23 8 -28 55 -38 337 -6 202 -8 219 -26 201 -15 -15
-80 -16 -95 -1 -25 25 -25 12 -21 -446 0 -62 -1 -66 -24 -60 -23 5 -199 24
-275 30 -23 2 -47 6 -53 10 -5 3 -32 12 -59 19 -49 12 -64 12 -356 -11 -154
-12 -238 -9 -297 12 -32 10 -53 22 -46 26 17 11 1 39 -22 39 -14 0 -20 -7 -20
-22 0 -23 0 -23 -188 -25 -152 -1 -196 -5 -228 -18 -39 -17 -262 -37 -270 -24
-2 3 -25 2 -51 -4 -39 -7 -142 -15 -245 -18 -17 0 -18 -34 -18 -560 l0 -559
4500 0 4500 0 0 640 c0 420 -3 640 -10 640 -5 0 -10 -4 -10 -10 0 -5 -7 -10
-16 -10 -8 0 -13 3 -10 8 2 4 -13 6 -35 4 -21 -2 -39 -9 -39 -16 0 -6 -5 -4
-10 4 -8 12 -10 12 -10 1 0 -11 -3 -11 -16 0 -13 10 -17 10 -24 0 -5 -9 -13
-10 -21 -5 -18 11 -89 13 -89 2 0 -21 -236 8 -267 33 -15 13 -75 20 -213 24
-111 3 -269 20 -300 31 -8 4 -51 12 -95 19 -44 7 -106 19 -138 26 -45 10 -62
11 -77 1 -19 -11 -39 -7 -80 17 -38 22 -127 43 -238 56 -103 12 -129 12 -174
1 -29 -8 -78 -19 -108 -25 -30 -6 -95 -22 -145 -36 -135 -39 -207 -56 -224
-54 -9 1 -23 0 -31 -3 -17 -7 -271 -26 -436 -34 l-111 -5 -12 243 c-7 134 -14
264 -14 290 -2 52 -5 54 -68 39 -25 -6 -43 -4 -60 5 -28 15 -39 17 -40 7z
m-419 -993 c0 -29 16 -33 124 -35 56 -1 133 -5 171 -9 39 -4 84 -8 100 -10 27
-1 30 -5 31 -39 1 -36 -5 -45 -20 -30 -9 10 -46 11 -52 2 -2 -5 -11 -6 -19 -2
-8 3 -15 1 -15 -5 0 -6 6 -12 13 -14 6 -3 -5 -5 -25 -5 -21 0 -38 4 -38 9 0 4
-12 8 -27 7 -25 0 -26 -1 -8 -9 15 -6 6 -9 -35 -11 -73 -3 -102 0 -117 13 -8
6 -13 6 -13 1 0 -14 -170 -29 -226 -20 -35 6 -337 4 -412 -3 -2 0 0 -4 3 -10
7 -11 -8 -14 -19 -3 -14 14 -36 11 -36 -5 0 -15 -2 -15 -10 -2 -7 11 -10 2
-10 -33 0 -30 -4 -46 -10 -42 -5 3 -10 21 -10 39 l0 33 -47 -3 c-27 -2 -63 1
-81 6 -22 6 -36 5 -45 -4 -9 -10 -18 -10 -40 -1 -15 6 -24 14 -21 18 4 4 0 7
-10 7 -9 0 -14 -4 -11 -10 9 -14 -28 -13 -42 1 -9 9 -36 9 -105 1 -123 -15
-254 -21 -603 -27 -159 -3 -303 -8 -320 -11 -16 -3 -49 -1 -72 4 -26 6 -43 6
-45 0 -2 -5 -49 -11 -104 -14 -80 -4 -104 -2 -113 10 -7 8 -8 16 -4 19 4 2
132 8 283 11 151 4 291 11 310 16 23 6 -18 7 -115 4 -82 -2 -280 -5 -440 -5
-278 -1 -370 6 -400 31 -6 5 -37 16 -70 24 -32 9 -59 17 -61 18 -1 2 8 8 22
15 13 6 24 7 24 2 0 -5 23 -9 52 -9 47 0 50 1 32 14 -25 19 -19 23 41 30 27 3
51 10 53 16 2 5 8 8 13 4 14 -9 -17 -34 -50 -40 -17 -4 -31 -9 -31 -13 0 -7
327 -4 348 4 8 3 21 0 29 -6 11 -9 17 -9 26 1 10 10 9 11 -3 5 -8 -5 -11 -4
-7 0 13 15 36 14 30 -1 -3 -8 0 -14 6 -14 6 0 11 8 11 17 0 13 3 14 12 5 20
-20 128 -15 144 6 13 16 13 16 14 -1 0 -19 32 -19 183 -2 35 4 57 3 57 -3 0
-12 8 -12 355 -12 370 0 515 8 522 27 5 13 7 13 15 0 7 -14 37 -15 231 -10
122 3 228 10 235 16 8 6 17 6 26 -2 7 -6 32 -9 57 -7 24 3 88 5 142 5 92 1 98
2 107 24 l9 22 7 -22 c3 -13 10 -21 14 -18 5 3 11 1 15 -5 3 -5 -3 -10 -14
-10 -12 0 -21 -4 -21 -10 0 -6 32 -10 75 -10 43 0 75 4 75 10 0 6 -12 10 -28
10 -25 0 -27 3 -27 39 0 22 3 37 7 35 5 -3 8 -14 8 -24z m2437 -215 c12 -20
12 -19 13 3 0 20 5 22 48 22 35 0 49 -4 49 -14 0 -8 -6 -12 -14 -9 -12 5 -13
-2 -8 -31 4 -20 3 -36 -1 -35 -27 5 -34 -2 -28 -26 5 -18 2 -25 -9 -25 -10 0
-13 7 -10 20 3 11 0 20 -6 20 -6 0 -11 -9 -11 -19 0 -25 -20 -38 -31 -20 -6 9
-9 10 -9 2 0 -8 -15 -11 -40 -10 l-40 1 0 58 c0 45 4 60 16 65 10 4 22 -1 29
-10 7 -10 15 -17 18 -17 9 0 -5 34 -17 43 -6 4 0 7 14 5 14 -2 30 -12 37 -23z
m332 16 c29 -1 32 -3 21 -16 -10 -12 -9 -15 4 -15 10 0 15 -4 11 -10 -8 -13
-35 -1 -35 16 0 8 -6 11 -15 8 -8 -4 -15 -17 -15 -30 0 -16 4 -22 15 -18 19 8
45 -19 45 -45 0 -16 6 -21 25 -21 14 0 25 -3 25 -7 0 -9 -141 -15 -187 -7 -30
4 -33 8 -32 37 0 25 2 28 8 12 7 -16 9 -14 14 14 4 19 7 44 7 57 0 23 17 32
55 28 11 -1 35 -2 54 -3z"/>
</g>
</svg>
