<?xml version="1.0" standalone="no"?>
<!DOCTYPE svg PUBLIC "-//W3C//DTD SVG 20010904//EN"
 "http://www.w3.org/TR/2001/REC-SVG-20010904/DTD/svg10.dtd">
<svg version="1.0" xmlns="http://www.w3.org/2000/svg"
 width="324.000000pt" height="314.000000pt" viewBox="0 0 324.000000 314.000000"
 preserveAspectRatio="xMidYMid meet">
<metadata>
Created by potrace 1.13, written by Peter Selinger 2001-2015
</metadata>
<g transform="translate(0.000000,314.000000) scale(0.100000,-0.100000)"
fill="#000000" stroke="none">
<path d="M1010 2821 c-15 -29 -12 -52 13 -95 40 -71 120 -92 235 -62 75 19 83
6 52 -83 -13 -38 -21 -75 -17 -83 3 -9 19 -22 36 -29 23 -10 31 -21 31 -39 0
-14 9 -31 20 -38 11 -7 20 -18 20 -26 0 -7 7 -19 15 -26 8 -7 15 -25 15 -40 0
-32 22 -54 48 -48 21 6 88 -55 78 -70 -3 -6 -21 -13 -40 -16 -31 -6 -88 -57
-163 -149 -13 -15 -30 -27 -38 -27 -8 0 -25 -11 -37 -25 -12 -14 -27 -25 -33
-25 -6 0 -24 -13 -39 -29 -15 -16 -42 -32 -60 -35 -18 -4 -44 -19 -59 -34 -28
-29 -57 -99 -57 -138 0 -19 -5 -24 -24 -24 -13 0 -34 -11 -47 -25 -13 -13 -32
-25 -42 -25 -9 0 -27 -11 -39 -25 -12 -14 -26 -25 -31 -25 -5 0 -32 -21 -61
-46 -28 -26 -80 -67 -116 -92 -87 -61 -109 -82 -104 -97 3 -7 -6 -21 -19 -32
l-24 -19 38 -48 c41 -51 45 -61 29 -71 -12 -7 -70 25 -70 39 0 6 -5 5 -11 -1
-9 -9 -9 -20 0 -44 20 -57 -3 -59 -54 -4 -24 27 -47 47 -50 44 -3 -3 -6 -25
-7 -48 -1 -34 -5 -42 -23 -47 -13 -3 -27 -16 -34 -30 -6 -13 -14 -24 -18 -24
-5 0 -8 -18 -8 -39 -1 -24 -8 -48 -20 -61 -10 -11 -15 -23 -12 -27 4 -3 -2
-12 -13 -20 -11 -8 -20 -23 -20 -33 0 -17 -4 -18 -26 -9 -28 10 -64 4 -64 -12
0 -5 -6 -9 -12 -9 -7 0 -25 -14 -40 -32 -21 -27 -29 -31 -39 -21 -16 16 -33
17 -24 2 4 -6 -1 -17 -11 -25 -18 -13 -18 -15 -2 -24 16 -10 16 -13 -3 -47
l-21 -37 41 -38 c40 -38 63 -45 134 -40 18 1 27 -3 27 -13 0 -18 37 -6 87 28
42 28 42 52 2 66 -31 11 -31 12 -27 61 4 41 14 62 52 111 26 33 49 72 52 87 7
32 19 50 58 80 31 24 90 30 102 10 5 -8 14 -3 28 15 13 15 52 38 100 56 43 17
110 50 149 73 38 24 84 51 101 61 17 11 40 27 51 37 11 10 59 43 108 74 65 41
102 58 143 65 47 7 57 6 61 -8 45 -132 150 -303 308 -501 50 -63 116 -149 147
-191 52 -71 142 -150 211 -185 26 -14 32 -13 73 6 24 12 51 19 59 16 17 -6 20
-42 5 -51 -6 -3 -10 -16 -10 -29 0 -15 -20 -42 -57 -77 -87 -82 -118 -98 -209
-105 -102 -9 -114 -15 -114 -63 0 -21 3 -41 8 -45 4 -5 7 -35 7 -69 0 -94 -2
-93 301 -78 137 7 328 15 424 19 157 6 179 9 211 30 67 41 87 136 49 232 -11
28 -20 56 -20 63 0 9 30 17 89 24 145 19 225 70 320 208 69 99 79 126 87 233
6 82 9 91 30 101 13 6 24 19 24 29 0 19 -1 19 -57 1 -92 -31 -247 -23 -394 21
-36 11 -74 29 -84 40 -19 21 -13 42 7 22 7 -7 26 -12 43 -12 16 0 50 -7 75
-16 50 -17 310 -31 275 -15 -19 9 -18 10 5 12 14 1 -24 7 -85 15 -60 7 -131
18 -159 25 l-49 12 26 14 c21 11 40 11 89 3 91 -14 182 -12 237 6 54 17 54 18
53 159 -2 129 -59 339 -118 432 -18 29 -46 83 -63 120 -53 123 -136 273 -192
344 -29 39 -90 99 -134 133 -90 71 -296 208 -368 246 -39 21 -50 32 -59 65 -7
22 -31 62 -55 90 -48 55 -97 76 -150 64 -24 -5 -33 -3 -33 6 0 27 -18 24 -74
-11 -51 -32 -60 -35 -88 -25 -17 6 -38 20 -46 32 -12 17 -21 20 -56 15 -25 -4
-60 0 -89 9 -46 14 -53 13 -133 -10 -46 -13 -119 -29 -160 -34 -95 -12 -147 1
-241 57 -38 23 -75 42 -82 42 -7 0 -9 5 -6 10 3 6 -3 10 -14 10 -11 0 -25 -9
-31 -19z m644 -1246 c13 -14 48 -34 77 -45 68 -24 327 -155 354 -179 11 -10
38 -28 60 -41 52 -30 86 -61 79 -71 -7 -11 -52 12 -129 66 -33 23 -95 58 -138
78 -43 20 -91 45 -105 55 -30 21 -141 67 -147 61 -10 -10 26 -36 80 -58 33
-13 76 -34 96 -46 20 -13 81 -46 135 -73 54 -27 108 -60 119 -72 11 -12 50
-40 87 -62 61 -36 92 -68 67 -68 -17 0 -72 31 -127 72 -51 38 -92 61 -320 179
-52 26 -104 59 -116 72 -13 14 -37 28 -54 32 -18 3 -34 11 -37 16 -10 16 -32
10 -56 -16 -13 -13 -29 -25 -36 -25 -25 0 -24 23 3 52 25 25 34 29 66 24 20
-3 43 -9 52 -12 11 -4 16 -1 16 10 0 20 -38 36 -84 36 -25 0 -42 -10 -79 -48
l-47 -48 23 -19 c20 -18 20 -20 4 -23 -10 -2 -24 2 -32 8 -28 23 -16 57 38
114 46 49 58 56 90 56 28 0 44 -7 61 -25z m303 -295 c74 -39 156 -85 182 -103
128 -85 161 -111 161 -123 0 -20 -13 -17 -56 14 -55 39 -197 124 -271 161 -34
17 -65 35 -68 41 -4 6 -24 18 -46 27 -39 15 -73 53 -48 53 7 0 73 -32 146 -70z"/>
</g>
</svg>
